<svg width="952" height="151" viewBox="0 0 952 151" fill="none" xmlns="http://www.w3.org/2000/svg">
<path d="M303.577 76.5057L534.784 23.7048L540.643 76.173L309.436 128.974L303.577 76.5057Z" fill="#EDCB92"/>
<path d="M335.09 101.605L327.995 103.235L328.22 112.574C328.059 112.647 327.877 112.706 327.675 112.753C327.513 112.826 327.315 112.889 327.078 112.943C326.842 112.998 326.601 113.035 326.357 113.056C326.12 113.11 325.914 113.14 325.737 113.145L325.512 103.806L318.164 105.495L318.389 114.833C318.228 114.906 318.046 114.966 317.843 115.012C317.682 115.085 317.483 115.148 317.246 115.203C317.01 115.257 316.769 115.294 316.525 115.315C316.289 115.369 316.082 115.399 315.905 115.404L315.68 106.065L310.815 107.183C310.621 106.801 310.485 106.441 310.407 106.103C310.306 105.664 310.297 105.239 310.381 104.829L315.651 103.617L315.389 92.9535L308.699 94.4906C308.504 94.1085 308.368 93.7485 308.291 93.4106C308.19 92.9714 308.181 92.5466 308.265 92.1361L315.36 90.5058L315.135 81.167C315.296 81.0944 315.461 81.0387 315.63 80.9999C315.825 80.9195 316.04 80.8521 316.277 80.7978C316.513 80.7434 316.754 80.706 316.998 80.6854C317.235 80.6311 317.441 80.6014 317.618 80.5964L317.843 89.9352L325.191 88.2466L324.966 78.9078C325.128 78.8352 325.293 78.7795 325.462 78.7407C325.657 78.6603 325.872 78.593 326.109 78.5386C326.345 78.4843 326.586 78.4468 326.83 78.4263C327.066 78.3719 327.273 78.3422 327.45 78.3372L327.675 87.676L332.54 86.5581C332.735 86.9402 332.871 87.3002 332.948 87.6381C333.049 88.0773 333.058 88.5021 332.974 88.9126L327.704 90.1237L327.966 100.788L334.656 99.2505C334.851 99.6327 334.987 99.9927 335.064 100.331C335.165 100.77 335.174 101.195 335.09 101.605ZM325.483 101.358L325.22 90.6943L317.872 92.3828L318.135 103.047L325.483 101.358Z" fill="#FAFAFA"/>
<path d="M341.792 106.254L340.235 99.9428C340.406 99.7611 340.661 99.6314 340.999 99.5538C341.37 99.4684 341.736 99.509 342.094 99.6757L344.848 105.392C345.887 105.58 347.008 105.66 348.211 105.633C349.448 105.598 350.709 105.433 351.993 105.138C354.797 104.493 356.844 103.418 358.134 101.912C359.45 100.365 359.868 98.5438 359.387 96.4491C359.014 94.8274 358.137 93.6417 356.755 92.892C355.366 92.1086 353.106 91.5609 349.975 91.2487C347.104 90.9836 344.77 90.5773 342.972 90.03C341.201 89.4411 339.832 88.6707 338.866 87.7188C337.927 86.7253 337.286 85.4853 336.944 83.9987C336.37 81.4985 336.836 79.3462 338.342 77.5418C339.84 75.7035 342.211 74.4117 345.455 73.6664C348.326 73.0066 351.152 72.9975 353.932 73.6393C354.189 73.8292 354.433 74.0399 354.664 74.2714C354.895 74.5029 355.088 74.7252 355.244 74.9384L356.743 80.9967C356.571 81.1784 356.316 81.3081 355.979 81.3857C355.607 81.4711 355.242 81.4305 354.884 81.2638L352.199 75.8515C350.121 75.4754 348.051 75.5241 345.99 75.9977C343.592 76.5489 341.863 77.4619 340.804 78.7367C339.737 79.9777 339.414 81.5105 339.833 83.3349C340.082 84.4161 340.532 85.2909 341.183 85.9593C341.868 86.6199 342.897 87.1483 344.268 87.5446C345.674 87.933 347.56 88.2466 349.927 88.4853C353.905 88.9229 356.837 89.6896 358.725 90.7853C360.613 91.881 361.814 93.5438 362.326 95.7737C362.97 98.5779 362.431 101.032 360.709 103.135C358.98 105.204 356.256 106.666 352.54 107.52C350.817 107.915 349.122 108.127 347.457 108.154C345.783 108.147 344.332 107.947 343.104 107.554C342.847 107.364 342.603 107.153 342.372 106.921C342.141 106.69 341.947 106.468 341.792 106.254Z" fill="#FAFAFA"/>
<path d="M369.722 95.1413L366.135 79.5321L362.284 80.4171C362.12 80.1701 362.015 79.9452 361.969 79.7425C361.891 79.4047 361.915 79.0435 362.04 78.6591L365.635 77.3529L365.223 71.8452C365.478 71.7155 365.791 71.608 366.162 71.5226C366.399 71.4683 366.728 71.4283 367.149 71.4027L368.36 76.6733L375.353 75.0663C375.894 74.9421 376.219 75.1165 376.327 75.5895C376.374 75.7922 376.388 76.1625 376.369 76.7003L376.373 77.1797L368.872 78.9032L372.226 93.4989C372.591 95.0868 372.97 96.3513 373.364 97.2923C373.784 98.1917 374.332 98.795 375.007 99.1023C375.716 99.4018 376.696 99.4079 377.946 99.1206C378.554 98.9809 379.218 98.7749 379.938 98.5028C380.692 98.2229 381.417 97.8961 382.114 97.5226C382.542 97.9933 382.876 98.5926 383.114 99.3203C382.482 99.8212 381.683 100.29 380.716 100.725C379.749 101.161 378.758 101.495 377.745 101.728C375.751 102.186 374.082 101.965 372.737 101.065C371.426 100.156 370.421 98.182 369.722 95.1413Z" fill="#FAFAFA"/>
<path d="M398.843 96.3463L387.035 99.0597C386.872 98.8127 386.766 98.5878 386.72 98.3851C386.658 98.1148 386.685 97.7705 386.803 97.3523L390.156 96.155L385.358 75.2751L381.506 76.1602C381.351 75.947 381.246 75.7221 381.191 75.4856C381.121 75.1815 381.149 74.8373 381.274 74.4528L386.07 72.337C386.714 72.5091 387.273 72.7721 387.745 73.1259L388.507 79.4602C388.907 77.0207 389.766 74.9558 391.085 73.2655C392.397 71.5414 394.015 70.4581 395.941 70.0156C396.313 69.9302 396.743 69.8669 397.231 69.8258C397.746 69.7431 398.217 69.7059 398.646 69.7141C399.119 70.0679 399.556 70.5009 399.958 71.0132L401.329 76.514C401.116 76.6697 400.874 76.7786 400.604 76.8407C400.266 76.9183 399.922 76.8907 399.571 76.7578L397.326 72.0982C397.184 72.0954 397.045 72.1096 396.909 72.1406C396.808 72.1639 396.707 72.1872 396.605 72.2105C395.152 72.5443 393.884 73.3694 392.799 74.6858C391.706 75.9684 390.924 77.5176 390.452 79.3334C390.006 81.1077 389.985 82.8732 390.389 84.6301L392.869 95.4248L397.836 94.2836C398.376 94.1594 398.701 94.3338 398.81 94.8068C398.856 95.0095 398.87 95.3798 398.851 95.9176L398.843 96.3463Z" fill="#FAFAFA"/>
<path d="M431.66 88.0586L426.864 90.1744C426.22 90.0023 425.662 89.7394 425.189 89.3855L424.604 85.6784C423.888 87.5148 422.836 89.0546 421.45 90.298C420.098 91.5335 418.476 92.3687 416.584 92.8034C414.253 93.3391 412.209 93.115 410.454 92.1312C408.732 91.1396 407.63 89.5964 407.149 87.5017C406.598 85.1029 407.117 83.0272 408.706 81.2748C410.321 79.4809 412.869 78.1841 416.349 77.3844C417.126 77.2059 418.029 77.0339 419.058 76.8686C420.087 76.7033 421.179 76.577 422.332 76.4897L421.867 74.4625C420.671 69.2595 417.725 67.1975 413.029 68.2766C411.813 68.5561 410.562 69.0746 409.278 69.8321C408.02 70.5481 406.905 71.4266 405.935 72.4676C405.652 72.3193 405.367 72.0825 405.078 71.7575C404.783 71.3986 404.604 71.084 404.541 70.8138C405.65 69.5988 406.892 68.584 408.27 67.7694C409.674 66.9132 411.086 66.3221 412.505 65.996C418.958 64.5132 422.957 67.1335 424.502 73.857L427.576 87.2363L431.428 86.3513C431.584 86.5645 431.689 86.7894 431.743 87.0259C431.813 87.3299 431.785 87.6742 431.66 88.0586ZM423.299 80.6961L422.833 78.6689C421.721 78.7822 420.65 78.9215 419.621 79.0868C418.584 79.2184 417.66 79.3773 416.85 79.5636C414.18 80.177 412.258 81.0989 411.082 82.3294C409.899 83.5261 409.509 85.003 409.913 86.7598C410.255 88.2464 411.003 89.3372 412.159 90.032C413.348 90.7191 414.737 90.8802 416.325 90.5153C417.811 90.1737 419.128 89.4799 420.275 88.4338C421.456 87.38 422.332 86.1648 422.905 84.7882C423.478 83.4116 423.61 82.0475 423.299 80.6961Z" fill="#FAFAFA"/>
<path d="M436.355 79.8302L432.769 64.2209L428.917 65.106C428.754 64.859 428.649 64.6341 428.602 64.4314C428.524 64.0935 428.548 63.7324 428.673 63.3479L432.268 62.0417L431.856 56.5341C432.111 56.4044 432.424 56.2969 432.796 56.2115C433.032 56.1571 433.361 56.1172 433.782 56.0916L434.993 61.3622L441.987 59.7552C442.527 59.631 442.852 59.8054 442.961 60.2784C443.007 60.4811 443.021 60.8514 443.002 61.3892L443.006 61.8686L435.505 63.5921L438.859 78.1877C439.224 79.7757 439.604 81.0402 439.998 81.9811C440.418 82.8806 440.965 83.4839 441.641 83.7911C442.35 84.0906 443.329 84.0967 444.579 83.8095C445.188 83.6698 445.852 83.4638 446.572 83.1917C447.326 82.9117 448.051 82.585 448.747 82.2115C449.176 82.6822 449.509 83.2815 449.747 84.0092C449.116 84.5101 448.316 84.9784 447.349 85.414C446.382 85.8496 445.392 86.1839 444.378 86.4168C442.385 86.8748 440.716 86.6537 439.37 85.7534C438.059 84.8453 437.054 82.8709 436.355 79.8302Z" fill="#FAFAFA"/>
<path d="M469.107 66.2753L452.079 70.1881L452.207 70.7456C452.96 74.0228 454.406 76.4472 456.546 78.0186C458.712 79.5485 461.23 79.9835 464.102 79.3236C465.42 79.0208 466.728 78.5244 468.028 77.8345C469.362 77.1368 470.414 76.4505 471.183 75.7756C471.516 75.9838 471.788 76.2413 472.001 76.5481C472.206 76.8211 472.364 77.1227 472.476 77.4528C470.036 79.6851 467.279 81.1545 464.205 81.861C461.84 82.4044 459.655 82.3374 457.649 81.6599C455.636 80.9487 453.915 79.7258 452.485 77.9914C451.047 76.2231 450.025 74.0214 449.42 71.386C448.806 68.7169 448.731 66.2978 449.193 64.1286C449.681 61.9178 450.662 60.0739 452.137 58.5968C453.611 57.1197 455.514 56.1133 457.845 55.5776C464.062 54.1491 468.02 57.1345 469.721 64.5337C469.582 65.1701 469.378 65.7507 469.107 66.2753ZM451.781 67.9623L466.883 64.492C465.626 59.0187 462.784 56.7905 458.358 57.8075C456.128 58.3199 454.424 59.4941 453.245 61.33C452.1 63.1582 451.612 65.3689 451.781 67.9623Z" fill="#FAFAFA"/>
<path d="M483.612 71.6927L489.389 70.3651C492.193 69.7208 494.546 69.8204 496.447 70.6641C498.382 71.5 499.586 72.9484 500.06 75.0094C500.619 77.442 499.967 79.637 498.105 81.5944C496.251 83.5856 493.499 85.0005 489.85 85.8389C486.302 86.6541 483.364 86.6357 481.034 85.7839C478.704 84.932 477.275 83.3574 476.747 81.0599C476.18 78.5935 477.172 76.178 479.724 73.8132C478.724 73.3316 478.088 72.4995 477.816 71.317C477.444 69.6953 477.918 67.9678 479.24 66.1346C477.024 65.0074 475.61 63.1092 474.997 60.4401C474.422 57.94 474.771 55.7434 476.044 53.8503C477.342 51.9158 479.326 50.6418 481.995 50.0285C484.292 49.5006 486.333 49.6363 488.118 50.4357L493.389 48.5308C493.922 48.3728 494.246 48.5472 494.363 49.054C494.409 49.2567 494.423 49.627 494.405 50.1649L494.381 50.7573L490.174 51.7238C490.803 52.2909 491.349 52.9657 491.813 53.7482C492.27 54.497 492.611 55.3612 492.836 56.341C493.41 58.8412 493.048 61.0586 491.75 62.9932C490.478 64.8862 488.507 66.1394 485.838 66.7527C484.115 67.1486 482.5 67.164 480.993 66.7988C480.241 67.8608 479.997 68.9662 480.261 70.1149C480.603 71.6015 481.719 72.1275 483.612 71.6927ZM489.901 72.595L483.06 74.1671C482.587 74.2758 482.119 74.33 481.656 74.3295C479.76 76.2947 479.041 78.274 479.499 80.2674C479.872 81.8891 480.944 82.9944 482.716 83.5833C484.495 84.206 486.702 84.2146 489.338 83.609C492.142 82.9647 494.264 81.9078 495.705 80.4385C497.154 79.0029 497.676 77.4067 497.273 75.6498C496.947 74.2308 496.137 73.2609 494.843 72.74C493.542 72.1853 491.895 72.137 489.901 72.595ZM490.251 56.9349C489.816 55.0429 488.897 53.6714 487.492 52.8204C486.087 51.9694 484.421 51.7652 482.496 52.2077C480.57 52.6502 479.161 53.5609 478.268 54.9398C477.376 56.3187 477.147 57.9542 477.581 59.8462C478.016 61.7383 478.936 63.1098 480.341 63.9608C481.746 64.8117 483.411 65.016 485.337 64.5735C487.263 64.1309 488.672 63.2202 489.565 61.8413C490.457 60.4624 490.686 58.827 490.251 56.9349Z" fill="#FAFAFA"/>
<path d="M514.449 69.7822L503.655 72.2626C503.491 72.0156 503.386 71.7907 503.34 71.588C503.278 71.3177 503.305 70.9735 503.422 70.5552L507.282 69.2415L502.485 48.3616L498.379 49.3049C498.224 49.0916 498.119 48.8668 498.064 48.6303C497.995 48.3262 498.022 47.982 498.147 47.5975L503.197 45.4235C503.841 45.5956 504.399 45.8586 504.872 46.2124L509.996 68.5113L513.442 67.7194C513.982 67.5952 514.307 67.7696 514.416 68.2426C514.462 68.4453 514.476 68.8156 514.458 69.3534L514.449 69.7822ZM503.289 38.6262C503.436 39.2682 503.354 39.8384 503.042 40.337C502.722 40.8018 502.207 41.1158 501.497 41.2788C500.788 41.4418 500.188 41.3841 499.697 41.1056C499.198 40.7933 498.875 40.3162 498.728 39.6743C498.58 39.0324 498.666 38.479 498.986 38.0142C499.299 37.5156 499.81 37.1848 500.519 37.0217C501.229 36.8587 501.833 36.9333 502.331 37.2456C502.822 37.5241 503.141 37.9843 503.289 38.6262Z" fill="#FAFAFA"/>
<path d="M532.673 47.3472L530.273 42.243C528.689 42.0025 526.95 42.0996 525.058 42.5343C523.301 42.938 521.873 43.7643 520.772 45.013C519.664 46.2281 518.925 47.7318 518.554 49.5244C518.184 51.3169 518.247 53.2943 518.744 55.4566C519.505 58.7677 520.951 61.192 523.083 62.7297C525.215 64.2673 527.699 64.7101 530.537 64.0579C531.72 63.7862 532.922 63.3677 534.144 62.8024C535.366 62.2371 536.361 61.617 537.131 60.9422C537.43 61.1581 537.685 61.4195 537.898 61.7263C538.103 61.9993 538.278 62.297 538.424 62.6193C537.355 63.5407 536.154 64.3503 534.82 65.048C533.486 65.7457 532.093 66.2615 530.64 66.5953C528.275 67.1388 526.09 67.0718 524.085 66.3943C522.072 65.6831 520.35 64.4602 518.92 62.7258C517.482 60.9575 516.461 58.7557 515.855 56.1204C515.249 53.4851 515.211 51.075 515.741 48.8903C516.263 46.6718 517.261 44.824 518.736 43.3469C520.236 41.8282 522.169 40.7972 524.534 40.2538C525.683 39.9898 526.93 39.8455 528.276 39.8207C529.614 39.7622 530.752 39.8386 531.69 40.05C532.163 40.4038 532.6 40.8369 533.003 41.3491L534.431 47.1033C534.184 47.2667 533.943 47.3756 533.706 47.43C533.368 47.5076 533.024 47.48 532.673 47.3472Z" fill="#FAFAFA"/>
<path d="M709.851 64.4969L721.952 61.8628L724.039 71.8224C726.008 81.2182 728.808 84.751 738.016 82.8212L744.312 81.5019C746.473 81.0489 748.802 80.4627 750.073 79.5096C749.166 77.0515 748.077 73.2583 747.298 70.4789C746.061 71.1304 743.771 71.9046 742.174 72.2393L737.194 73.283C735.691 73.5981 735.267 72.5099 734.696 69.7851L730.403 49.3021L697.33 56.2336L699.437 66.2872C700.795 72.7703 700.804 79.8308 690.78 87.2281C693.162 88.2983 698.128 91.8676 699.876 93.659C711.281 84.8933 711.82 73.8928 709.851 64.4969ZM697.992 105.726L694.436 95.7801L687.931 98.9088L685.037 85.0969L694.902 83.0293L692.736 72.6938L682.871 74.7614L679.129 56.9093L668.136 59.2132L671.877 77.0654L660.696 79.4087L662.862 89.7441L674.043 87.4008L677.509 103.938C673.122 105.936 669.091 107.762 665.678 109.262L670.835 119.363L679.813 114.931L683.889 134.38C684.165 135.696 683.794 136.264 682.478 136.54C681.257 136.796 677.404 137.603 673.626 138.297C675.627 140.82 677.961 144.941 678.948 147.775C685.525 146.396 689.976 145.169 692.702 142.734C695.562 140.467 696.025 137.526 694.882 132.076L690.196 109.714L697.992 105.726ZM734.546 98.5556C732.791 104.22 730.052 109.404 726.404 113.994C720.824 111.24 716.046 107.631 712.184 103.242L734.546 98.5556ZM739.778 86.0811L737.904 86.9644L697.126 95.5106L699.312 105.94L704.667 104.818L701.447 106.768C706.38 112.992 712.057 118.08 718.307 122.165C712.607 126.792 705.791 130.771 698.1 133.854C700.51 135.997 703.918 140.089 705.602 142.973C714.619 138.729 722.48 133.649 729.145 127.544C736.95 130.616 745.739 132.305 755.513 132.611C756.367 129.195 758.577 123.828 760.394 120.799C751.905 121.008 744.158 120.082 737.193 118.206C742.99 109.831 746.589 99.857 747.663 87.6654L739.778 86.0811Z" fill="#EDCB92"/>
<path d="M778.187 40.9551L754.133 45.9962L755.847 54.1706L779.9 49.1295L778.187 40.9551ZM786.941 98.1681L827.625 89.6416L828.511 93.8697L787.827 102.396L786.941 98.1681ZM784.775 87.8326L825.459 79.3061L826.305 83.3463L785.621 91.8728L784.775 87.8326ZM782.608 77.4972L823.293 68.9706L824.139 73.0109L783.455 81.5374L782.608 77.4972ZM841.258 98.0641L833.263 59.9169L770.405 73.0906L778.4 111.238L791.93 108.402C786.042 113.069 776.579 117.995 767.914 121.577C770.75 122.944 775.563 126.251 777.895 128.018C786.834 123.399 797.97 116.16 804.65 109.66L795.688 107.615L822.185 102.062L817.418 107.867C827.429 109.3 838.166 111.856 844.171 113.834L852.964 105.714C846.85 104.151 836.854 102.322 827.54 100.939L841.258 98.0641ZM813.208 45.1895L812.814 43.3103L823.244 41.1246C822.624 43.3143 821.816 45.5434 821.097 47.2634L830.411 48.6463C832.63 44.2579 834.584 37.6689 835.944 31.9892L827.841 31.2353L826.248 32.0595L799.564 37.652C799.852 36.2184 800.12 34.6909 800.295 33.183L790.07 33.0699C789.248 39.912 786.695 46.9207 782.582 52.0985C785.207 52.9216 789.912 54.78 792.052 56.0971C793.948 53.4438 795.612 50.1524 796.935 46.6382L802.573 45.4567L802.868 46.8661C803.597 50.3426 802.134 55.063 784.582 60.7033L783.38 54.9718L755.005 60.9187L756.797 69.469L781.696 64.2507C783.613 65.9087 785.608 67.9426 786.734 69.5703C802.145 64.4769 809.176 59.1781 811.88 54.2956C818.882 58.2228 827.687 59.5163 838.486 58.6262C839.23 55.6257 841.014 51.0342 842.816 48.4005C829.994 50.4012 819.542 50.1395 813.425 46.2231L813.208 45.1895Z" fill="#EDCB92"/>
<path d="M880.69 14.7645C883.642 30.7223 894.249 72.4417 860.375 100.826C864.665 102.575 868.984 105.397 871.587 107.99C888.728 92.4312 895.03 73.357 896.732 55.7373C905.568 70.756 919.838 86.8922 942.784 92.4803C943.618 88.9706 946.024 84.5427 948.93 81.0893C913.106 73.4921 899.951 39.2709 895.977 26.8621C895.171 21.1459 894.296 16.0327 893.563 12.0668L880.69 14.7645Z" fill="#EDCB92"/>
<path d="M697.004 56.2348L717.768 51.8829L721.963 71.8961C722.987 76.782 724.222 77.9945 728.074 77.1871L737.564 75.1982C739.161 74.8635 741.021 74.3757 741.921 73.9908L740.974 71.3448C739.886 71.769 738.026 72.2568 736.899 72.4931L727.409 74.482C725.718 74.8364 725.278 74.1438 724.707 71.419L719.922 48.5871L693.708 54.0811L695.894 64.5105C697.39 71.6513 697.135 80.7288 688.534 89.2992C689.196 89.6509 690.352 90.4875 690.866 91.0664C700.006 81.7944 700.233 71.644 698.618 63.9394L697.004 56.2348ZM689.324 95.411L679.248 101.152L674.384 77.9443L688.008 75.089L687.437 72.3642L673.813 75.2195L669.618 55.2063L666.894 55.7773L671.088 75.7905L656.618 78.823L657.189 81.5478L671.659 78.5153L676.7 102.569C671.174 105.689 666.079 108.522 662.107 110.629L663.919 113.192C667.852 110.897 672.423 108.369 677.31 105.481L683.513 135.078C683.809 136.488 683.324 136.982 682.028 137.351C680.9 137.588 676.692 138.568 671.485 139.463C672.132 140.21 672.838 141.239 673.184 141.951C679.479 140.632 682.767 139.943 684.434 139.005C686.027 138.181 686.77 137.044 686.218 134.413L679.838 103.971C683.247 101.981 686.843 99.9526 690.326 97.8495L689.324 95.411ZM734.071 88.4852C731.98 98.6339 726.904 107.643 720.178 115.33C711.456 110.684 703.996 104.106 698.367 95.9681L734.071 88.4852ZM735.528 85.1393L734.909 85.465L691.5 94.5626L692.072 97.2874L695.548 96.5588C701.523 105.41 709.269 112.418 718.258 117.4C710.651 125.566 701.108 131.98 691.754 136.49C692.53 136.916 693.538 137.98 693.997 138.766C703.593 134.009 713.171 127.293 720.926 118.9C730.213 123.428 740.667 126.043 752.098 126.295C752.391 125.351 752.812 124.086 753.446 123.365C742.336 123.241 731.94 120.908 722.901 116.623C730.241 108.12 735.719 97.7522 737.643 85.8729L735.528 85.1393Z" fill="#006F95"/>
<path d="M805.914 36.7445L825.833 32.5699C824.776 36.4205 823.477 40.5181 822.11 43.3549L824.71 43.5946C826.335 40.1153 827.997 34.4705 829.44 29.6561L827.383 29.2043L826.859 29.5103L790.121 37.2098C790.608 34.8518 790.926 32.6272 791.205 30.2147L788.382 30.3159C787.549 38.043 785.135 45.7094 781.461 51.5798C782.291 51.7981 783.596 52.4074 784.164 52.7788C786.259 49.201 788.008 44.911 789.283 40.23L803.189 37.3156L803.287 37.7854C804.547 43.7987 804.421 52.5549 779.641 62.5544C780.323 63 781.366 63.7624 781.899 64.4353C798.835 57.2568 804.63 50.7455 806.178 45.0264C812.739 50.1249 824.079 52.7507 835.748 52.2669C835.986 51.5304 836.615 50.3197 837.135 49.5241C824.679 50.467 812.549 47.8109 806.437 42.5199C806.627 40.6165 806.366 38.9056 806.012 37.2143L805.914 36.7445ZM774.322 94.2719L828.16 82.9886L830.07 92.1026L776.232 103.386L774.322 94.2719ZM771.9 82.715L825.738 71.4316L827.589 80.2638L773.751 91.5471L771.9 82.715ZM769.478 71.1581L823.316 59.8747L825.167 68.7068L771.329 79.9902L769.478 71.1581ZM774.078 106.682L833.366 94.2563L825.47 56.5789L766.182 69.0043L774.078 106.682ZM771.231 40.6783L749.996 45.1287L750.567 47.8535L771.802 43.4031L771.231 40.6783ZM776.879 54.9921L751.134 60.3877L751.706 63.1125L777.45 57.7169L776.879 54.9921ZM790.578 105.382C784.245 110.73 773.585 116.496 764.642 120.626C765.418 121.052 766.727 122.151 767.221 122.636C775.897 118.169 786.701 111.687 793.371 106.071L790.578 105.382ZM814.407 102.545C826.05 103.342 837.436 104.781 844.623 106.316L846.707 103.623C839.144 102.167 827.308 100.921 816.081 100.233L814.407 102.545Z" fill="#006F95"/>
<path d="M881.762 11.1379C884.272 24.0496 894.051 73.9856 857.908 101.374C858.664 101.706 859.781 102.354 860.295 102.933C885.29 83.6683 888.67 53.9268 887.438 32.606C894.177 48.8491 909.912 78.9986 940.496 85.9285C940.714 85.0981 941.437 83.8676 942.016 83.354C904.813 75.2611 889.822 31.8122 886.675 23.3497C885.909 17.8213 885.077 13.3856 884.581 10.5471L881.762 11.1379Z" fill="#006F95"/>
<path d="M199.113 70.6651C200.187 63.2745 200.015 52.0066 199.162 44.1662L192.566 44.3193C193.213 52.0974 193.288 62.7976 192.006 69.5419L199.113 70.6651ZM261.996 91.573L258.326 70.0923L276.684 66.9556L275.277 58.7229L256.919 61.8596L253.88 44.0694L274.32 40.577L272.897 32.2497L252.457 35.7421L249.191 16.6271L240.391 18.1307L243.656 37.2457L233.72 38.9434C234.096 34.3018 234.345 29.4871 234.199 24.6425L225.345 24.6944C225.635 33.7997 225.073 43.0505 223.4 50.9327C221.586 47.1523 217.95 41.8327 214.824 37.7894L209.629 41.0144L206.638 23.5081L197.838 25.0117L212.664 111.786L221.464 110.283L209.872 42.4338C213.094 47.0449 216.589 52.6808 218.088 56.3204L222.95 52.86C222.33 55.4982 221.472 57.8849 220.565 59.9876C222.887 60.4674 227.106 61.7917 229.114 62.7147C230.628 58.4631 231.885 53.2813 232.778 47.6749L245.079 45.573L248.119 63.3632L228.909 66.6454L230.316 74.8781L249.526 71.5959L253.196 93.0766L226.889 97.5714L228.312 105.899L286.319 95.9876L284.896 87.6603L261.996 91.573Z" fill="#006F95"/>
<g filter="url(#filter0_d)">
<path d="M25.2514 65.4254L22.2513 68.9571C25.8753 71.3571 30.6396 74.7309 32.9687 76.9625L37.7895 70.9771C35.7466 69.2809 32.2011 66.7702 28.9419 64.7949L44.8395 62.0786L43.6592 55.1707L21.043 59.0349C21.6198 57.2807 22.0235 55.6535 22.411 53.9316L14.1688 53.0025C12.545 61.1686 8.55537 69.739 3.82919 75.7082C5.75886 76.742 9.30436 79.2527 10.7771 80.462C13.5393 76.6787 16.1238 71.8545 18.3435 66.6057L25.2514 65.4254ZM57.0834 96.1187L78.091 92.5294L79.6593 101.708C79.821 102.655 79.491 103.003 78.3554 103.197C77.4253 103.454 73.6402 104.1 70.1066 104.509C71.487 106.319 73.3753 108.82 74.3311 110.994C79.5357 110.105 83.4939 109.331 86.2334 107.695C88.7836 106.09 89.3281 104.147 88.649 100.172L85.8034 83.5178L55.8061 88.6431L54.7552 82.4922L89.8624 76.4938L88.5528 68.8289L53.4456 74.8273L52.4916 69.2442L52.1131 69.3089C54.0908 66.6336 55.8769 63.4067 57.4251 59.9282L66.6041 58.3599L63.101 62.3672C66.9765 64.5293 71.803 67.6977 74.3214 69.897L79.3938 63.6738C77.1455 61.9153 73.3323 59.5477 69.9161 57.794L88.4633 54.6251L87.2831 47.7172L60.1246 52.3574C60.496 50.541 60.9782 48.8029 61.2549 47.0026L52.8719 46.3897C51.765 53.591 48.5277 60.8641 44.1453 65.9955C45.9318 66.7615 48.9371 68.3907 50.7883 69.5352L43.1234 70.8449L44.0773 76.4279L7.45603 82.685L8.76565 90.35L45.387 84.0929L46.4379 90.2437L16.1567 95.4176L20.4089 120.305L29.6826 118.72L26.7076 101.309L47.7152 97.7194L48.9925 105.195C42.4251 116.348 28.5157 126.711 13.5786 132.769C15.6838 134.26 18.8208 137.23 20.3282 139.213C32.1425 133.688 43.1555 125.184 50.7225 115.32L54.2956 136.233L63.6639 134.633L60.1392 114.004C69.2845 119.648 82.2149 124.646 96.2342 125.756C97.0763 123.275 99.0169 119.243 100.491 117.043C83.3818 116.655 67.5454 111.18 58.5547 104.73L57.0834 96.1187Z" fill="#006F95"/>
<path d="M150.515 84.3429C155.218 80.5202 159.635 76.162 163.593 71.3954C168.514 74.5476 174.049 77.3027 179.85 79.3308L150.515 84.3429ZM157.347 107.231L154.679 91.6174L177.863 87.6562L180.531 103.27L157.347 107.231ZM134.771 62.8799C136.528 64.0406 138.395 65.2798 139.425 66.1752C141.765 63.3406 144.135 60.1114 146.156 56.5521C149.168 59.933 152.781 63.4062 156.834 66.6093C151.416 73.0864 144.968 78.6681 138.199 82.9412L134.771 62.8799ZM126.875 96.4655L123.302 75.5526L129.642 74.4693L133.215 95.3823L126.875 96.4655ZM111.473 77.5736L117.624 76.5227L121.197 97.4356L115.046 98.4866L111.473 77.5736ZM113.161 50.4052L116.363 69.1416L110.212 70.1926L107.011 51.4561L113.161 50.4052ZM128.381 67.0883L122.04 68.1716L118.839 49.4351L125.179 48.3518L128.381 67.0883ZM169.182 44.8265C167.468 50.1838 164.837 55.308 161.574 60.1507C157.015 56.8392 153.054 53.036 149.993 49.3712L150.635 47.9955L169.182 44.8265ZM173.629 36.0807L172.179 36.7179L153.821 39.8546C154.726 37.1679 155.519 34.4027 156.124 31.6699L147.487 30.7108C145.335 40.915 140.357 51.115 134.044 58.6216L130.778 39.5066L99.0769 44.9229L111.106 115.327L117.73 114.195L116.34 106.057L141.416 101.772L138.845 86.7263C140.113 87.8733 141.412 89.2095 142.285 90.3265C143.34 89.6593 144.473 88.8813 145.511 88.1196L150.863 119.442L159.19 118.019L158.673 114.991L181.857 111.03L182.358 113.963L190.875 112.508L185.491 80.9965C186.202 81.1672 186.913 81.3379 187.623 81.5086C188.466 79.0274 190.517 75.0734 192.04 73.1575C183.433 71.8038 175.403 68.6958 168.49 64.7152C173.855 56.7864 177.875 47.8213 179.791 37.9495L173.629 36.0807Z" fill="#006F95"/>
</g>
<path d="M445.352 104.701L633.161 60.6159L637.842 103.64L450.033 147.725L445.352 104.701Z" fill="#006F95"/>
<path d="M462.854 136.425L453.513 138.572C453.356 138.424 453.243 138.203 453.176 137.911C453.102 137.589 453.137 137.273 453.282 136.963L456.578 135.836L450.983 111.496L448.001 112.181C447.533 112.289 447.252 112.138 447.158 111.729C447.111 111.524 447.103 111.156 447.135 110.626L447.142 110.255L456.484 108.107C456.641 108.256 456.753 108.476 456.821 108.769C456.894 109.09 456.859 109.406 456.715 109.717L453.419 110.844L459.014 135.184L461.996 134.498C462.464 134.391 462.745 134.542 462.839 134.951C462.886 135.156 462.893 135.523 462.861 136.054L462.854 136.425Z" fill="#FAFAFA"/>
<path d="M490.776 130.007L482.312 131.953C482.17 131.739 482.079 131.544 482.039 131.369C481.985 131.135 482.009 130.837 482.111 130.475L485.012 129.439L482.149 116.984C481.202 112.861 478.988 111.2 475.509 111.999C474.135 112.315 472.957 113.017 471.976 114.104C471.017 115.156 470.341 116.435 469.949 117.941C469.55 119.418 469.531 120.946 469.894 122.525L472.142 132.305L474.686 131.72C475.154 131.612 475.435 131.763 475.529 132.173C475.569 132.348 475.581 132.669 475.565 133.134L475.558 133.505L467.094 135.451C466.952 135.237 466.861 135.042 466.821 134.867C466.767 134.633 466.791 134.335 466.893 133.973L469.794 132.937L465.641 114.868L462.308 115.634C462.173 115.45 462.082 115.255 462.035 115.05C461.975 114.787 461.999 114.489 462.107 114.157L466.257 112.325C466.814 112.474 467.298 112.702 467.707 113.008L468.408 117.464C468.817 115.492 469.626 113.86 470.837 112.565C472.048 111.271 473.589 110.409 475.46 109.979C477.799 109.441 479.744 109.733 481.295 110.854C482.838 111.946 483.913 113.808 484.518 116.439L487.36 128.807L489.904 128.222C490.372 128.114 490.653 128.265 490.747 128.675C490.787 128.85 490.799 129.171 490.783 129.636L490.776 130.007Z" fill="#FAFAFA"/>
<path d="M501.997 127.52L489.125 109.285L486.582 109.87C486.114 109.977 485.833 109.826 485.739 109.417C485.699 109.242 485.686 108.921 485.703 108.456L485.71 108.085L494.262 106.119C494.403 106.333 494.494 106.527 494.534 106.703C494.588 106.937 494.564 107.235 494.463 107.597L491.561 108.633L502.314 124.077L505.133 105.606L502.589 106.19C502.122 106.298 501.841 106.147 501.746 105.738C501.706 105.562 501.694 105.242 501.71 104.776L501.717 104.405L510.138 102.47C510.279 102.684 510.37 102.878 510.41 103.054C510.464 103.288 510.44 103.585 510.339 103.947L507.437 104.984L503.839 127.097C503.619 127.209 503.319 127.309 502.939 127.396C502.558 127.483 502.245 127.525 501.997 127.52Z" fill="#FAFAFA"/>
<path d="M531.301 108.641L516.565 112.028L516.676 112.51C517.328 115.346 518.58 117.444 520.431 118.804C522.305 120.128 524.485 120.504 526.97 119.933C528.111 119.671 529.243 119.241 530.368 118.644C531.522 118.04 532.432 117.446 533.098 116.862C533.386 117.042 533.622 117.265 533.806 117.531C533.983 117.767 534.12 118.028 534.217 118.314C532.106 120.245 529.72 121.517 527.059 122.129C525.013 122.599 523.122 122.541 521.386 121.955C519.644 121.34 518.154 120.282 516.917 118.781C515.672 117.251 514.788 115.345 514.264 113.065C513.733 110.755 513.667 108.662 514.067 106.784C514.489 104.871 515.338 103.275 516.614 101.997C517.89 100.719 519.537 99.8477 521.554 99.384C526.934 98.1474 530.36 100.731 531.832 107.134C531.712 107.684 531.535 108.187 531.301 108.641ZM516.307 110.102L529.376 107.098C528.287 102.361 525.828 100.433 521.998 101.314C520.068 101.757 518.593 102.773 517.573 104.362C516.583 105.944 516.16 107.858 516.307 110.102Z" fill="#FAFAFA"/>
<path d="M539.101 116.452L537.914 111.692C538.099 111.557 538.308 111.463 538.542 111.409C538.834 111.342 539.132 111.366 539.436 111.481L541.395 115.786C542.976 116.1 544.701 116.042 546.573 115.612C548.385 115.195 549.731 114.486 550.608 113.484C551.486 112.482 551.777 111.337 551.482 110.051C551.24 108.998 550.625 108.201 549.639 107.658C548.681 107.108 547.283 106.783 545.444 106.683C543.357 106.578 541.676 106.364 540.402 106.041C539.12 105.689 538.144 105.19 537.472 104.544C536.823 103.862 536.374 102.981 536.125 101.899C535.729 100.174 536.074 98.663 537.161 97.3665C538.278 96.0633 539.991 95.1463 542.3 94.6153C543.353 94.3734 544.458 94.2271 545.616 94.1764C546.804 94.1189 547.712 94.1872 548.341 94.3811C548.75 94.6873 549.129 95.062 549.477 95.5053L550.563 99.8269C550.349 99.9684 550.14 100.063 549.935 100.11C549.643 100.177 549.345 100.153 549.042 100.038L547.193 96.215C545.828 96.0361 544.386 96.1215 542.865 96.4709C539.386 97.2707 537.929 98.8985 538.493 101.354C538.648 102.027 538.943 102.575 539.379 102.998C539.837 103.385 540.538 103.686 541.48 103.9C542.421 104.115 543.692 104.284 545.29 104.409C547.914 104.576 549.906 105.072 551.266 105.899C552.648 106.689 553.524 107.888 553.894 109.496C554.33 111.397 553.946 113.071 552.739 114.518C551.526 115.936 549.618 116.943 547.016 117.542C545.788 117.824 544.559 117.968 543.329 117.974C542.128 117.972 541.098 117.84 540.237 117.576C539.828 117.27 539.449 116.895 539.101 116.452Z" fill="#FAFAFA"/>
<path d="M560.15 107.227L557.045 93.7195L553.712 94.4856C553.571 94.2719 553.48 94.0773 553.44 93.9019C553.372 93.6095 553.393 93.297 553.501 92.9643L556.612 91.8337L556.255 87.0675C556.476 86.9552 556.747 86.8621 557.068 86.7882C557.273 86.7412 557.557 86.7066 557.922 86.6844L558.97 91.2455L565.022 89.8543C565.49 89.7468 565.771 89.8977 565.865 90.307C565.905 90.4824 565.917 90.8029 565.901 91.2683L565.904 91.6832L559.414 93.1751L562.317 105.806C562.633 107.18 562.961 108.274 563.302 109.088C563.666 109.867 564.14 110.389 564.724 110.655C565.338 110.914 566.186 110.919 567.267 110.67C567.794 110.549 568.368 110.371 568.991 110.136C569.644 109.893 570.271 109.611 570.874 109.287C571.245 109.695 571.533 110.213 571.74 110.843C571.193 111.276 570.501 111.682 569.664 112.059C568.828 112.436 567.971 112.725 567.093 112.927C565.368 113.323 563.924 113.132 562.76 112.353C561.625 111.567 560.755 109.859 560.15 107.227Z" fill="#FAFAFA"/>
<path d="M583.763 107.063C585.284 106.714 586.523 106.013 587.482 104.962C588.47 103.904 589.107 102.588 589.391 101.014C589.705 99.4334 589.647 97.7076 589.217 95.8364C588.787 93.9651 588.086 92.3871 587.113 91.1024C586.17 89.8108 585.023 88.9048 583.672 88.3842C582.35 87.8569 580.929 87.768 579.409 88.1174C577.888 88.4669 576.634 89.1707 575.646 90.229C574.687 91.2805 574.051 92.5965 573.737 94.177C573.452 95.7507 573.525 97.4732 573.955 99.3444C574.385 101.216 575.072 102.797 576.015 104.089C576.988 105.373 578.135 106.279 579.456 106.807C580.778 107.334 582.214 107.42 583.763 107.063ZM584.207 108.993C582.16 109.463 580.269 109.406 578.534 108.819C576.821 108.197 575.346 107.136 574.108 105.635C572.864 104.105 571.979 102.2 571.455 99.919C570.931 97.6385 570.898 95.5529 571.356 93.6622C571.807 91.7423 572.671 90.1432 573.947 88.8648C575.246 87.5505 576.918 86.6582 578.965 86.1877C581.012 85.7173 582.891 85.7931 584.604 86.4152C586.34 87.0014 587.83 88.0595 589.074 89.5896C590.312 91.0905 591.193 92.9812 591.717 95.2618C592.241 97.5423 592.277 99.6425 591.826 101.562C591.368 103.453 590.49 105.056 589.191 106.37C587.915 107.648 586.254 108.523 584.207 108.993Z" fill="#FAFAFA"/>
<path d="M608.484 102.951L598.265 105.3C598.124 105.086 598.033 104.892 597.993 104.716C597.939 104.482 597.963 104.184 598.064 103.822L600.966 102.786L596.813 84.7173L593.479 85.4834C593.345 85.2989 593.254 85.1043 593.207 84.8996C593.146 84.6365 593.17 84.3386 593.278 84.0059L597.429 82.1746C597.986 82.3235 598.469 82.551 598.878 82.8572L599.538 88.3387C599.884 86.2276 600.628 84.4406 601.769 82.9778C602.903 81.4857 604.304 80.5481 605.97 80.165C606.292 80.0911 606.664 80.0364 607.087 80.0007C607.532 79.9292 607.941 79.8969 608.312 79.904C608.721 80.2101 609.099 80.5849 609.447 81.0281L610.634 85.7883C610.449 85.9231 610.24 86.0173 610.006 86.0711C609.714 86.1383 609.416 86.1144 609.112 85.9995L607.17 81.9672C607.046 81.9649 606.926 81.9771 606.809 82.004C606.721 82.0242 606.633 82.0443 606.546 82.0645C605.288 82.3535 604.19 83.0676 603.252 84.2068C602.306 85.3168 601.63 86.6575 601.221 88.2289C600.835 89.7643 600.817 91.2923 601.167 92.8126L603.314 102.154L607.612 101.166C608.08 101.059 608.361 101.209 608.455 101.619C608.495 101.794 608.507 102.115 608.491 102.58L608.484 102.951Z" fill="#FAFAFA"/>
<path d="M618.268 98.2549L617.082 93.4947C617.266 93.3599 617.476 93.2657 617.71 93.2119C618.002 93.1447 618.3 93.1686 618.603 93.2835L620.563 97.589C622.143 97.9029 623.869 97.8448 625.74 97.4147C627.553 96.9981 628.898 96.2887 629.776 95.2866C630.654 94.2845 630.945 93.1402 630.649 91.8537C630.407 90.8012 629.793 90.0035 628.806 89.4607C627.849 88.9112 626.45 88.5862 624.611 88.4857C622.525 88.3805 620.844 88.1665 619.569 87.8439C618.288 87.492 617.311 86.9931 616.64 86.3471C615.99 85.6652 615.541 84.7834 615.293 83.7016C614.896 81.9766 615.242 80.4658 616.329 79.1693C617.445 77.8661 619.158 76.9491 621.468 76.4181C622.521 76.1762 623.626 76.0299 624.784 75.9792C625.971 75.9217 626.88 75.99 627.509 76.1839C627.918 76.4901 628.297 76.8648 628.645 77.3081L629.73 81.6297C629.517 81.7712 629.308 81.8654 629.103 81.9125C628.81 81.9797 628.513 81.9558 628.209 81.8409L626.361 78.0178C624.996 77.8389 623.553 77.9243 622.033 78.2737C618.554 79.0735 617.096 80.7013 617.661 83.1573C617.815 83.8297 618.111 84.3775 618.547 84.8006C619.005 85.1878 619.705 85.4886 620.647 85.703C621.589 85.9174 622.859 86.0872 624.458 86.2122C627.082 86.3787 629.074 86.8751 630.434 87.7015C631.816 88.492 632.692 89.6912 633.061 91.2993C633.498 93.1997 633.113 94.8735 631.907 96.3205C630.694 97.7383 628.786 98.7463 626.184 99.3444C624.956 99.6267 623.727 99.7706 622.497 99.7763C621.296 99.7753 620.265 99.6428 619.404 99.379C618.995 99.0729 618.617 98.6981 618.268 98.2549Z" fill="#FAFAFA"/>
<path fill-rule="evenodd" clip-rule="evenodd" d="M364.862 49.6236C364.639 48.2611 365.563 46.9755 366.925 46.7522L366.952 46.7478C368.315 46.5245 369.6 47.4481 369.824 48.8106C370.047 50.1731 369.123 51.4587 367.761 51.682L367.734 51.6864C366.371 51.9097 365.086 50.9861 364.862 49.6236Z" fill="#EDCB92"/>
<path d="M354.175 55.3574C354.903 55.2382 355.52 55.0863 356.041 54.9209C357.849 54.347 358.331 52.4227 358.452 50.5302C358.691 46.7938 360.549 43.3871 363.617 41.3625C369.007 38.8026 372.489 38.5558 376.126 38.2979L376.197 38.2929C384.561 37.6997 389.178 38.0184 389.178 38.0184C393.154 39.2364 396.958 42.1363 397.949 48.1846C398.829 53.5576 396.171 58.7507 391.59 61.6857L391.318 66.5675L386.101 67.4224L384.49 64.1254L379.773 64.8983C377.642 65.2475 377.083 67.5015 375.667 69.1321C375.585 69.2275 372.537 69.645 371.494 69.816C371.352 68.949 369.74 65.652 369.74 65.652C366.942 65.0099 364.06 63.3132 362.276 61.4786L356.423 61.8567C356.423 61.8567 353.841 55.4122 354.175 55.3574Z" fill="#EDCB92"/>
<path fill-rule="evenodd" clip-rule="evenodd" d="M402.388 37.7886C403.639 38.3732 404.179 39.8611 403.594 41.112C402.629 43.1771 401.362 44.5343 400.285 45.3877C399.749 45.8116 399.265 46.1079 398.894 46.3062C398.708 46.4054 398.549 46.4805 398.425 46.5352C398.363 46.5625 398.309 46.5847 398.265 46.6024C398.243 46.6112 398.223 46.6188 398.206 46.6254L398.182 46.6345L398.171 46.6384L398.166 46.6402L398.164 46.6411C398.163 46.6415 398.162 46.6419 397.309 44.2917L398.162 46.6419C396.864 47.1127 395.43 46.4421 394.959 45.1441C394.494 43.8618 395.143 42.4468 396.41 41.9589C396.41 41.9589 396.41 41.9588 396.411 41.9587C396.427 41.9515 396.472 41.9309 396.541 41.8943C396.678 41.821 396.906 41.6855 397.18 41.4682C397.722 41.0394 398.465 40.2775 399.064 38.9948C399.649 37.744 401.137 37.2039 402.388 37.7886Z" fill="#EDCB92"/>
<path fill-rule="evenodd" clip-rule="evenodd" d="M375.089 31.5343C373.267 31.8329 372.032 33.5519 372.331 35.3739C372.453 36.1195 372.809 36.7609 373.313 37.2443C374.31 38.1995 374.344 39.7821 373.389 40.779C372.434 41.7759 370.851 41.8098 369.854 40.8545C368.595 39.6476 367.7 38.0334 367.396 36.1824C366.651 31.6353 369.733 27.3452 374.281 26.6001C378.828 25.855 383.118 28.9371 383.863 33.4842C384.166 35.3352 383.833 37.1505 383.025 38.6964C382.385 39.9198 380.874 40.3929 379.651 39.7529C378.427 39.113 377.954 37.6024 378.594 36.3789C378.918 35.7599 379.051 35.0384 378.929 34.2927C378.63 32.4707 376.911 31.2358 375.089 31.5343Z" fill="#EDCB92"/>
<path fill-rule="evenodd" clip-rule="evenodd" d="M362.37 46.9305C362.192 45.8404 362.931 44.812 364.021 44.6334L364.048 44.6289C365.138 44.4503 366.166 45.1892 366.345 46.2792C366.523 47.3692 365.785 48.3977 364.695 48.5763L364.667 48.5807C363.577 48.7593 362.549 48.0205 362.37 46.9305Z" fill="#006F95"/>
<path fill-rule="evenodd" clip-rule="evenodd" d="M354.548 36.3704C354.459 35.8253 354.828 35.3111 355.373 35.2218C356.748 34.9965 359.925 35.2621 361.517 38.2842C361.756 38.7391 361.612 39.3016 361.183 39.5848C358.396 41.4236 356.686 44.5334 356.465 47.9817C356.402 48.9721 356.24 50.0699 355.803 51.0243C355.351 52.01 354.588 52.8713 353.358 53.2616C353.056 53.3576 352.727 53.4485 352.369 53.5316C352.557 54.1137 352.833 54.8832 353.125 55.6656C353.425 56.4678 353.735 57.2697 353.971 57.872C354.017 57.9893 354.06 58.099 354.099 58.1995L359.226 57.8683C359.518 57.8494 359.803 57.9593 360.007 58.169C361.661 59.8692 364.373 61.4671 366.979 62.065C367.273 62.1325 367.521 62.3293 367.653 62.6005L366.755 63.0397C367.653 62.6005 367.653 62.6004 367.653 62.6005L367.672 62.6398L367.725 62.7482C367.77 62.8417 367.834 62.9757 367.912 63.1392C368.067 63.4656 368.276 63.9112 368.49 64.3853C368.703 64.8579 368.925 65.3669 369.104 65.8183C369.139 65.9054 369.173 65.9945 369.207 66.084C369.376 66.0588 369.554 66.0323 369.736 66.0051C370.09 65.9524 370.46 65.8974 370.805 65.8448C371.255 65.7761 371.667 65.711 371.968 65.6579C372.024 65.6481 372.075 65.6389 372.12 65.6305C372.348 65.3409 372.56 65.0237 372.778 64.6813C372.84 64.5845 372.904 64.4838 372.969 64.3807C373.183 64.0396 373.415 63.6729 373.655 63.3386C374.301 62.4398 375.177 61.5366 376.626 61.2991L381.343 60.5262C381.778 60.4548 382.209 60.6774 382.403 61.0739L383.688 63.7029L387.379 63.0981L387.606 59.0178C387.624 58.6972 387.795 58.4046 388.065 58.2314C392.352 55.4851 394.785 50.6667 393.977 45.7339C393.059 40.1327 389.587 37.4918 385.9 36.3622C385.371 36.2004 385.075 35.6412 385.236 35.1131C385.398 34.5851 385.957 34.2881 386.485 34.4499C390.75 35.7562 394.886 38.9153 395.95 45.4105C396.874 51.0503 394.188 56.459 389.575 59.6292L389.331 64.0107C389.305 64.4789 388.957 64.8661 388.495 64.942L383.278 65.7968C382.842 65.8682 382.411 65.6456 382.218 65.2492L380.932 62.6201L376.95 63.2728C376.268 63.3845 375.799 63.7828 375.279 64.506C375.077 64.786 374.892 65.0798 374.685 65.408C374.615 65.5202 374.541 65.6364 374.464 65.7575C374.174 66.2126 373.841 66.7101 373.437 67.1754C373.279 67.3575 373.091 67.4358 373.068 67.4452C373.067 67.4456 373.067 67.4458 373.066 67.446C373.009 67.4711 372.957 67.4877 372.927 67.4971C372.863 67.5168 372.796 67.5329 372.74 67.5453C372.624 67.5713 372.476 67.5993 372.315 67.6276C371.989 67.685 371.559 67.7529 371.106 67.8219C370.739 67.8779 370.36 67.9344 370.003 67.9874C369.465 68.0674 368.98 68.1396 368.67 68.1904C368.125 68.2797 367.611 67.9103 367.522 67.3653C367.506 67.2713 367.421 66.9996 367.245 66.5561C367.082 66.1455 366.874 65.6678 366.667 65.2077C366.46 64.7493 366.257 64.3164 366.106 63.9976C366.089 63.9625 366.073 63.9288 366.058 63.8966C363.39 63.1831 360.723 61.6278 358.906 59.8931L353.502 60.2423C353.071 60.2702 352.671 60.0176 352.51 59.6163L353.438 59.2444C352.51 59.6163 352.51 59.6164 352.51 59.6163L352.48 59.5425L352.398 59.3362C352.328 59.1586 352.228 58.9053 352.109 58.6011C351.871 57.9933 351.556 57.1807 351.252 56.3649C350.949 55.5527 350.65 54.7233 350.447 54.0874C350.348 53.7748 350.262 53.4799 350.213 53.248C350.19 53.1424 350.162 52.9909 350.16 52.8376C350.16 52.7709 350.161 52.6118 350.225 52.4322C350.294 52.2396 350.515 51.8423 351.028 51.7581C351.711 51.6463 352.281 51.5053 352.753 51.3554C353.331 51.1719 353.713 50.7841 353.985 50.1911C354.271 49.5667 354.411 48.7561 354.469 47.854C354.705 44.1673 356.407 40.75 359.266 38.503C358.164 37.2106 356.5 37.0639 355.697 37.1955C355.152 37.2848 354.638 36.9154 354.548 36.3704ZM368.656 35.4136L376.509 34.1269C377.054 34.0377 377.569 34.407 377.658 34.952C377.747 35.497 377.378 36.0112 376.833 36.1005L368.98 37.3873C368.435 37.4766 367.921 37.1072 367.831 36.5622C367.742 36.0172 368.111 35.5029 368.656 35.4136Z" fill="#006F95"/>
<path fill-rule="evenodd" clip-rule="evenodd" d="M398.767 36.5351C399.268 36.769 399.484 37.3642 399.25 37.8645C398.394 39.6949 397.285 40.8735 396.368 41.5995C395.911 41.9614 395.504 42.2095 395.203 42.3703C395.052 42.4507 394.927 42.5095 394.835 42.5499C394.789 42.5701 394.752 42.5857 394.723 42.5972C394.709 42.6029 394.697 42.6076 394.687 42.6113L394.674 42.6161L394.669 42.618L394.667 42.6188L394.666 42.6191C394.665 42.6193 394.665 42.6195 394.324 41.6794L394.665 42.6195C394.146 42.8078 393.572 42.5395 393.384 42.0204C393.196 41.5035 393.461 40.9328 393.976 40.7419C393.976 40.7419 393.976 40.7419 393.976 40.7419C393.977 40.7415 393.979 40.7409 393.981 40.74C393.989 40.7368 394.005 40.73 394.03 40.7193C394.078 40.6979 394.158 40.6609 394.261 40.6056C394.469 40.4948 394.774 40.311 395.126 40.0317C395.829 39.4756 396.729 38.535 397.438 37.0176C397.672 36.5173 398.267 36.3013 398.767 36.5351ZM393.982 40.7396C393.982 40.7396 393.982 40.7396 393.982 40.7396L393.982 40.7397C393.982 40.7397 393.982 40.7396 393.982 40.7396Z" fill="#006F95"/>
<path fill-rule="evenodd" clip-rule="evenodd" d="M371.862 27.4416C369.222 27.8741 367.433 30.3645 367.865 33.004C368.042 34.0812 368.56 35.0145 369.291 35.7149C369.689 36.097 369.703 36.73 369.321 37.1288C368.939 37.5276 368.306 37.5411 367.907 37.159C366.874 36.1691 366.141 34.8468 365.892 33.3274C365.281 29.5979 367.809 26.079 371.538 25.4679C375.268 24.8568 378.786 27.3848 379.398 31.1143C379.647 32.6337 379.374 34.1209 378.711 35.3887C378.455 35.8781 377.85 36.0673 377.361 35.8113C376.872 35.5553 376.682 34.9511 376.938 34.4617C377.408 33.5646 377.6 32.515 377.424 31.4377C376.991 28.7982 374.501 27.0091 371.862 27.4416Z" fill="#006F95"/>
<path d="M579 86.1716C590.506 86.1716 599.833 76.8442 599.833 65.3382C599.833 53.8323 590.506 44.5049 579 44.5049C567.494 44.5049 558.167 53.8323 558.167 65.3382C558.167 76.8442 567.494 86.1716 579 86.1716Z" fill="#EDCB92"/>
<path fill-rule="evenodd" clip-rule="evenodd" d="M575 42.5049C564.046 42.5049 555.167 51.3846 555.167 62.3382C555.167 73.2919 564.046 82.1716 575 82.1716C585.953 82.1716 594.833 73.2919 594.833 62.3382C594.833 51.3846 585.953 42.5049 575 42.5049ZM553.167 62.3382C553.167 50.28 562.942 40.5049 575 40.5049C587.058 40.5049 596.833 50.28 596.833 62.3382C596.833 74.3964 587.058 84.1716 575 84.1716C562.942 84.1716 553.167 74.3964 553.167 62.3382Z" fill="#006F95"/>
<path fill-rule="evenodd" clip-rule="evenodd" d="M575 48.8384C575.552 48.8384 576 49.2861 576 49.8384V74.8384C576 75.3907 575.552 75.8384 575 75.8384C574.448 75.8384 574 75.3907 574 74.8384V49.8384C574 49.2861 574.448 48.8384 575 48.8384Z" fill="#006F95"/>
<path fill-rule="evenodd" clip-rule="evenodd" d="M568.247 54.3698C569.232 53.3845 570.569 52.8311 571.962 52.8311H581.077C581.629 52.8311 582.077 53.2788 582.077 53.8311C582.077 54.3833 581.629 54.8311 581.077 54.8311H571.962C571.099 54.8311 570.272 55.1738 569.661 55.784C569.051 56.3941 568.708 57.2217 568.708 58.0845C568.708 58.9474 569.051 59.7749 569.661 60.3851C570.272 60.9952 571.099 61.338 571.962 61.338H578.038C579.432 61.338 580.768 61.8915 581.753 62.8767C582.738 63.8619 583.292 65.1982 583.292 66.5915C583.292 67.9848 582.738 69.321 581.753 70.3062C580.768 71.2915 579.432 71.8449 578.038 71.8449H567.708C567.156 71.8449 566.708 71.3972 566.708 70.8449C566.708 70.2927 567.156 69.8449 567.708 69.8449H578.038C578.901 69.8449 579.729 69.5022 580.339 68.892C580.949 68.2819 581.292 67.4543 581.292 66.5915C581.292 65.7286 580.949 64.9011 580.339 64.2909C579.729 63.6808 578.901 63.338 578.038 63.338H571.962C570.569 63.338 569.232 62.7845 568.247 61.7993C567.262 60.8141 566.708 59.4778 566.708 58.0845C566.708 56.6912 567.262 55.355 568.247 54.3698Z" fill="#006F95"/>
<defs>
<filter id="filter0_d" x="0.353027" y="24.0452" width="202.251" height="122.849" filterUnits="userSpaceOnUse" color-interpolation-filters="sRGB">
<feFlood flood-opacity="0" result="BackgroundImageFix"/>
<feColorMatrix in="SourceAlpha" type="matrix" values="0 0 0 0 0 0 0 0 0 0 0 0 0 0 0 0 0 0 127 0" result="hardAlpha"/>
<feOffset dx="4" dy="4"/>
<feComposite in2="hardAlpha" operator="out"/>
<feColorMatrix type="matrix" values="0 0 0 0 0.929412 0 0 0 0 0.788235 0 0 0 0 0.219608 0 0 0 1 0"/>
<feBlend mode="normal" in2="BackgroundImageFix" result="effect1_dropShadow"/>
<feBlend mode="normal" in="SourceGraphic" in2="effect1_dropShadow" result="shape"/>
</filter>
</defs>
</svg>
