<svg width="537" height="377" viewBox="0 0 537 377" fill="none" xmlns="http://www.w3.org/2000/svg">
<path d="M438.607 236.434H92.7474C90.3864 236.431 88.123 235.491 86.4535 233.82C84.7841 232.148 83.845 229.882 83.8423 227.518V13.9921C83.8443 12.2603 84.5322 10.6 85.7553 9.37538C86.9783 8.1508 88.6365 7.46195 90.3662 7.45996H440.875C442.635 7.46196 444.322 8.16271 445.566 9.40846C446.81 10.6542 447.51 12.3432 447.512 14.105V227.518C447.509 229.882 446.57 232.148 444.901 233.82C443.231 235.491 440.968 236.431 438.607 236.434Z" fill="#F2F2F2"/>
<path d="M425.99 223.808H103.658C98.9327 223.808 95.0887 220.203 95.0887 215.773V29.8323C95.0887 26.5468 97.9372 23.8738 101.439 23.8738H428.104C431.663 23.8738 434.559 26.5909 434.559 29.9304V215.773C434.559 220.203 430.715 223.808 425.99 223.808Z" fill="white"/>
<path d="M447.388 13.4821H83.717V8.94288C83.7204 6.57117 84.6633 4.29767 86.3388 2.62114C88.0143 0.944604 90.2856 0.00195943 92.6544 0H438.45C440.819 0.00194801 443.09 0.944589 444.766 2.62112C446.441 4.29766 447.384 6.57117 447.388 8.94288V13.4821Z" fill="#CCCCCC"/>
<path d="M99.9599 9.06913C101.237 9.06913 102.272 8.03285 102.272 6.75454C102.272 5.47622 101.237 4.43994 99.9599 4.43994C98.6832 4.43994 97.6482 5.47622 97.6482 6.75454C97.6482 8.03285 98.6832 9.06913 99.9599 9.06913Z" fill="white"/>
<path d="M108.734 9.06913C110.011 9.06913 111.046 8.03285 111.046 6.75454C111.046 5.47622 110.011 4.43994 108.734 4.43994C107.458 4.43994 106.423 5.47622 106.423 6.75454C106.423 8.03285 107.458 9.06913 108.734 9.06913Z" fill="white"/>
<path d="M117.51 9.06913C118.786 9.06913 119.821 8.03285 119.821 6.75454C119.821 5.47622 118.786 4.43994 117.51 4.43994C116.233 4.43994 115.198 5.47622 115.198 6.75454C115.198 8.03285 116.233 9.06913 117.51 9.06913Z" fill="white"/>
<path d="M390.511 192.622H140.718C138.214 192.619 135.813 191.622 134.043 189.849C132.272 188.077 131.276 185.673 131.273 183.166V62.5822C131.275 60.7072 132.02 58.9095 133.344 57.5836C134.668 56.2578 136.464 55.5119 138.337 55.5098H392.779C394.682 55.512 396.506 56.2697 397.852 57.6167C399.197 58.9638 399.954 60.7902 399.956 62.6951V183.166C399.953 185.673 398.957 188.077 397.186 189.849C395.416 191.622 393.015 192.619 390.511 192.622ZM138.337 56.5905C136.75 56.5923 135.229 57.2242 134.107 58.3474C132.985 59.4707 132.354 60.9937 132.353 62.5822V183.166C132.355 185.387 133.237 187.515 134.805 189.086C136.374 190.656 138.5 191.539 140.718 191.542H390.511C392.729 191.539 394.855 190.656 396.423 189.086C397.992 187.515 398.874 185.387 398.876 183.166V62.6951C398.875 61.0767 398.232 59.525 397.089 58.3805C395.946 57.2361 394.396 56.5923 392.779 56.5905H138.337Z" fill="#CCCCCC"/>
<path d="M149.353 183.166H381.876C384.166 183.166 386.362 182.255 387.982 180.634C389.601 179.012 390.511 176.813 390.511 174.52V73.7168C390.511 71.4238 389.601 69.2247 387.982 67.6033C386.362 65.9819 384.166 65.071 381.876 65.071H149.353C147.063 65.071 144.866 65.9819 143.247 67.6033C141.628 69.2247 140.718 71.4238 140.718 73.7168V174.52C140.718 176.813 141.628 179.012 143.247 180.634C144.866 182.255 147.063 183.166 149.353 183.166Z" fill="#F2F2F2"/>
<path d="M175.754 94.3986C178.437 94.3986 180.612 92.2213 180.612 89.5354C180.612 86.8495 178.437 84.6721 175.754 84.6721C173.072 84.6721 170.897 86.8495 170.897 89.5354C170.897 92.2213 173.072 94.3986 175.754 94.3986Z" fill="#CCCCCC"/>
<path d="M175.754 112.771C178.437 112.771 180.612 110.594 180.612 107.908C180.612 105.222 178.437 103.044 175.754 103.044C173.072 103.044 170.897 105.222 170.897 107.908C170.897 110.594 173.072 112.771 175.754 112.771Z" fill="#CCCCCC"/>
<path d="M175.754 131.143C178.437 131.143 180.612 128.966 180.612 126.28C180.612 123.594 178.437 121.417 175.754 121.417C173.072 121.417 170.897 123.594 170.897 126.28C170.897 128.966 173.072 131.143 175.754 131.143Z" fill="#CCCCCC"/>
<path d="M175.754 149.516C178.437 149.516 180.612 147.338 180.612 144.652C180.612 141.966 178.437 139.789 175.754 139.789C173.072 139.789 170.897 141.966 170.897 144.652C170.897 147.338 173.072 149.516 175.754 149.516Z" fill="#CCCCCC"/>
<path d="M359.792 90.0756H200.041C199.898 90.0756 199.761 90.0187 199.659 89.9173C199.558 89.816 199.501 89.6785 199.501 89.5352C199.501 89.3919 199.558 89.2545 199.659 89.1531C199.761 89.0518 199.898 88.9949 200.041 88.9949H359.792C359.935 88.9949 360.072 89.0518 360.173 89.1531C360.275 89.2545 360.331 89.3919 360.331 89.5352C360.331 89.6785 360.275 89.816 360.173 89.9173C360.072 90.0187 359.935 90.0756 359.792 90.0756Z" fill="#CCCCCC"/>
<path d="M359.792 108.448H200.041C199.898 108.448 199.761 108.391 199.659 108.29C199.558 108.188 199.501 108.051 199.501 107.908C199.501 107.764 199.558 107.627 199.659 107.525C199.761 107.424 199.898 107.367 200.041 107.367H359.792C359.935 107.367 360.072 107.424 360.173 107.525C360.275 107.627 360.331 107.764 360.331 107.908C360.331 108.051 360.275 108.188 360.173 108.29C360.072 108.391 359.935 108.448 359.792 108.448Z" fill="#CCCCCC"/>
<path d="M359.792 126.82H200.041C199.898 126.82 199.761 126.763 199.659 126.662C199.558 126.561 199.501 126.423 199.501 126.28C199.501 126.137 199.558 125.999 199.659 125.898C199.761 125.796 199.898 125.74 200.041 125.74H359.792C359.935 125.74 360.072 125.796 360.173 125.898C360.275 125.999 360.331 126.137 360.331 126.28C360.331 126.423 360.275 126.561 360.173 126.662C360.072 126.763 359.935 126.82 359.792 126.82Z" fill="#CCCCCC"/>
<path d="M359.792 145.193H200.041C199.898 145.193 199.761 145.136 199.659 145.034C199.558 144.933 199.501 144.795 199.501 144.652C199.501 144.509 199.558 144.371 199.659 144.27C199.761 144.169 199.898 144.112 200.041 144.112H359.792C359.935 144.112 360.072 144.169 360.173 144.27C360.275 144.371 360.331 144.509 360.331 144.652C360.331 144.795 360.275 144.933 360.173 145.034C360.072 145.136 359.935 145.193 359.792 145.193Z" fill="#CCCCCC"/>
<path d="M230.264 163.565H214.613C213.897 163.564 213.211 163.279 212.705 162.773C212.2 162.266 211.915 161.579 211.914 160.863V146.273C211.915 145.557 212.2 144.87 212.705 144.364C213.211 143.857 213.897 143.572 214.613 143.572H230.264C230.979 143.572 231.665 143.857 232.171 144.364C232.677 144.87 232.962 145.557 232.962 146.273V160.863C232.962 161.579 232.677 162.266 232.171 162.773C231.665 163.279 230.979 163.564 230.264 163.565Z" fill="#00779F"/>
<path d="M265.344 163.565H249.693C248.978 163.564 248.292 163.279 247.786 162.773C247.28 162.266 246.995 161.579 246.995 160.863V127.901C246.995 127.185 247.28 126.498 247.786 125.991C248.292 125.485 248.978 125.2 249.693 125.199H265.344C266.06 125.2 266.746 125.485 267.252 125.991C267.757 126.498 268.042 127.185 268.043 127.901V160.863C268.042 161.579 267.757 162.266 267.252 162.773C266.746 163.279 266.06 163.564 265.344 163.565Z" fill="#00779F"/>
<path d="M300.964 163.565H285.313C284.598 163.564 283.912 163.279 283.406 162.773C282.9 162.266 282.616 161.579 282.615 160.863V109.529C282.616 108.812 282.9 108.126 283.406 107.619C283.912 107.113 284.598 106.828 285.313 106.827H300.964C301.68 106.828 302.366 107.113 302.872 107.619C303.378 108.126 303.662 108.812 303.663 109.529V160.863C303.662 161.579 303.378 162.266 302.872 162.773C302.366 163.279 301.68 163.564 300.964 163.565Z" fill="#00779F"/>
<path d="M337.664 163.565H322.013C321.297 163.564 320.611 163.279 320.106 162.773C319.6 162.266 319.315 161.579 319.314 160.863V91.6967C319.315 90.9804 319.6 90.2936 320.106 89.7871C320.611 89.2806 321.297 88.9957 322.013 88.9949H337.664C338.379 88.9957 339.065 89.2806 339.571 89.7871C340.077 90.2936 340.362 90.9804 340.363 91.6967V160.863C340.362 161.579 340.077 162.266 339.571 162.773C339.065 163.279 338.379 163.564 337.664 163.565Z" fill="#00779F"/>
<path d="M359.792 163.565H200.041C199.898 163.565 199.761 163.508 199.659 163.407C199.558 163.305 199.501 163.168 199.501 163.024C199.501 162.881 199.558 162.744 199.659 162.642C199.761 162.541 199.898 162.484 200.041 162.484H359.792C359.935 162.484 360.072 162.541 360.173 162.642C360.275 162.744 360.331 162.881 360.331 163.024C360.331 163.168 360.275 163.305 360.173 163.407C360.072 163.508 359.935 163.565 359.792 163.565Z" fill="#3F3D56"/>
<path d="M429.979 264.368C430.416 263.705 430.993 263.146 431.669 262.731C432.346 262.316 433.105 262.054 433.893 261.964C434.681 261.874 435.48 261.959 436.232 262.211C436.984 262.464 437.672 262.878 438.247 263.426L455.385 254.57L454.319 264.548L438.208 271.427C437.225 272.333 435.945 272.847 434.609 272.871C433.274 272.895 431.976 272.428 430.962 271.557C429.947 270.687 429.287 269.475 429.106 268.15C428.924 266.825 429.235 265.479 429.979 264.368Z" fill="#FFB8B8"/>
<path d="M444.725 268.089C444.336 267.784 444.049 267.367 443.903 266.894L442.54 262.485C442.393 262.007 442.397 261.496 442.55 261.02C442.703 260.545 442.998 260.128 443.396 259.826L457.287 249.321L472.331 221.378C472.961 220.565 473.745 219.885 474.637 219.375C475.53 218.866 476.514 218.538 477.534 218.409C478.553 218.281 479.588 218.355 480.579 218.627C481.57 218.899 482.497 219.363 483.309 219.994C484.12 220.625 484.8 221.41 485.308 222.304C485.817 223.198 486.145 224.183 486.273 225.204C486.401 226.225 486.327 227.261 486.056 228.253C485.784 229.245 485.32 230.174 484.69 230.986L476.131 249.072C473.534 254.562 469.034 258.92 463.468 261.337L447.189 268.406C446.876 268.542 446.538 268.61 446.197 268.606C445.856 268.603 445.519 268.527 445.209 268.385C445.037 268.306 444.874 268.206 444.725 268.089Z" fill="#3F3D56"/>
<path d="M485.067 209.716C492.388 209.716 498.323 203.774 498.323 196.444C498.323 189.114 492.388 183.172 485.067 183.172C477.747 183.172 471.812 189.114 471.812 196.444C471.812 203.774 477.747 209.716 485.067 209.716Z" fill="#FFB8B8"/>
<path d="M479.69 370.546L473.074 370.545L469.927 344.993L479.693 344.993L479.69 370.546Z" fill="#FFB8B8"/>
<path d="M468.348 368.652H481.108V376.697H460.313C460.313 375.64 460.521 374.594 460.925 373.618C461.329 372.642 461.921 371.755 462.667 371.008C463.413 370.261 464.298 369.669 465.273 369.265C466.248 368.86 467.293 368.652 468.348 368.652Z" fill="#2F2E41"/>
<path d="M501.278 370.547L494.662 370.546L491.515 344.993L501.281 344.994L501.278 370.547Z" fill="#FFB8B8"/>
<path d="M489.936 368.653H502.696V376.698H481.901C481.901 375.641 482.109 374.595 482.513 373.619C482.917 372.643 483.509 371.756 484.255 371.009C485.001 370.262 485.886 369.67 486.861 369.266C487.836 368.861 488.881 368.653 489.936 368.653Z" fill="#2F2E41"/>
<path d="M501.762 364.063L494.008 364.063C493.474 364.062 492.956 363.885 492.532 363.56C492.108 363.235 491.803 362.78 491.663 362.264L480.503 320.817C480.485 320.753 480.445 320.697 480.388 320.661C480.332 320.624 480.265 320.61 480.199 320.621C480.133 320.632 480.073 320.667 480.031 320.719C479.99 320.771 479.969 320.837 479.973 320.904L482.227 360.211C482.247 360.559 482.192 360.906 482.067 361.231C481.941 361.555 481.747 361.849 481.498 362.092C481.249 362.335 480.95 362.521 480.623 362.639C480.296 362.757 479.947 362.802 479.601 362.773L470.886 362.046C470.327 361.998 469.803 361.759 469.4 361.368C468.997 360.978 468.741 360.461 468.675 359.904L460.736 277.366L463.808 279.212L492.589 274.319L504.17 361.31C504.215 361.654 504.187 362.003 504.087 362.334C503.987 362.666 503.817 362.972 503.589 363.233C503.361 363.494 503.08 363.703 502.765 363.846C502.45 363.989 502.108 364.063 501.762 364.063H501.762Z" fill="#2F2E41"/>
<path d="M470.362 286.078C467.186 286.053 464.076 285.176 461.353 283.539C460.934 283.291 460.599 282.921 460.393 282.478C460.188 282.036 460.12 281.541 460.2 281.06C461.212 274.853 466.506 243.014 471.322 225.657C473.284 218.587 477.621 214.78 484.214 214.34C493.857 213.707 502.429 221.26 503.321 231.199C504.896 248.733 498.5 273.645 495.677 283.541C495.568 283.924 495.366 284.273 495.09 284.559C494.815 284.845 494.473 285.059 494.095 285.182C493.718 285.305 493.316 285.334 492.925 285.265C492.533 285.196 492.165 285.032 491.852 284.788L486.098 280.306C485.744 280.035 485.306 279.897 484.861 279.916C484.416 279.934 483.991 280.108 483.661 280.408C478.811 284.739 474.204 286.078 470.362 286.078Z" fill="#3F3D56"/>
<path opacity="0.2" d="M489.392 239.779L494.249 260.313L487.231 277.604L492.09 260.854L489.392 239.779Z" fill="black"/>
<path d="M492.632 207.358C493.811 207.38 494.983 207.167 496.079 206.733C496.562 206.547 497.063 206.394 497.544 206.208C501.798 204.562 504.601 200.027 504.701 195.462C504.802 190.897 502.441 186.467 498.935 183.547C495.429 180.627 490.889 179.128 486.342 178.781C481.444 178.407 475.929 179.651 473.191 183.735C472.463 184.822 471.953 186.141 472.385 187.453C472.514 187.849 472.745 188.204 473.055 188.483C474.277 189.572 475.495 188.753 476.741 188.681C478.454 188.582 479.992 189.97 480.545 191.596C481.098 193.222 480.854 195.012 480.408 196.67C480.068 197.668 479.853 198.704 479.769 199.755C479.733 200.282 479.832 200.81 480.057 201.288C480.282 201.766 480.624 202.179 481.053 202.487C482.123 203.135 483.528 202.76 484.599 202.113C485.67 201.467 486.595 200.568 487.752 200.092C488.909 199.616 490.463 199.722 491.136 200.777C491.35 201.161 491.495 201.579 491.564 202.014C492.167 204.767 492.028 204.604 492.632 207.358Z" fill="#2F2E41"/>
<path d="M472.086 352.009L389.083 323.066C387.658 322.568 386.49 321.524 385.833 320.164C385.176 318.804 385.085 317.239 385.58 315.812L407.149 253.801C407.514 252.756 408.278 251.899 409.273 251.417C410.268 250.935 411.413 250.869 412.458 251.231L498.267 281.152C499.329 281.523 500.2 282.301 500.689 283.315C501.178 284.329 501.246 285.495 500.878 286.559L479.332 348.502C478.834 349.928 477.792 351.098 476.433 351.755C475.075 352.413 473.511 352.504 472.086 352.009Z" fill="#E6E6E6"/>
<path d="M396.165 319.503L468.746 344.811C470.128 345.293 471.645 345.205 472.962 344.567C474.28 343.93 475.291 342.794 475.772 341.41L493.189 291.337C493.671 289.953 493.583 288.434 492.946 287.115C492.309 285.795 491.175 284.784 489.793 284.302L417.212 258.994C415.83 258.512 414.313 258.599 412.996 259.237C411.678 259.875 410.667 261.01 410.186 262.394L392.769 312.468C392.53 313.153 392.429 313.879 392.471 314.603C392.513 315.327 392.696 316.036 393.012 316.69C393.327 317.343 393.768 317.927 394.309 318.41C394.85 318.893 395.481 319.264 396.165 319.503Z" fill="white"/>
<path d="M414.392 284.322L410.797 283.068C410.602 283 410.442 282.857 410.352 282.671C410.263 282.485 410.25 282.271 410.318 282.076L411.57 278.477C411.638 278.282 411.78 278.122 411.966 278.032C412.152 277.942 412.366 277.929 412.561 277.997L416.156 279.25C416.35 279.319 416.51 279.461 416.6 279.647C416.69 279.833 416.702 280.048 416.635 280.243L415.383 283.842C415.315 284.037 415.172 284.197 414.986 284.287C414.8 284.377 414.587 284.389 414.392 284.322Z" fill="#00779F"/>
<path d="M411.148 293.646L407.554 292.393C407.359 292.325 407.199 292.182 407.109 291.996C407.019 291.81 407.007 291.596 407.075 291.4L408.326 287.801C408.394 287.606 408.537 287.446 408.723 287.356C408.909 287.266 409.123 287.254 409.318 287.322L412.912 288.575C413.107 288.643 413.267 288.786 413.357 288.972C413.447 289.158 413.459 289.372 413.391 289.568L412.14 293.167C412.071 293.362 411.929 293.522 411.743 293.612C411.557 293.702 411.343 293.714 411.148 293.646Z" fill="#3F3D56"/>
<path d="M407.905 302.971L404.31 301.717C404.115 301.649 403.956 301.506 403.866 301.32C403.776 301.134 403.763 300.92 403.831 300.725L405.083 297.126C405.151 296.931 405.294 296.771 405.48 296.681C405.665 296.591 405.879 296.578 406.074 296.646L409.669 297.9C409.864 297.968 410.024 298.111 410.113 298.297C410.203 298.483 410.216 298.697 410.148 298.892L408.896 302.491C408.828 302.686 408.685 302.846 408.5 302.936C408.314 303.026 408.1 303.039 407.905 302.971Z" fill="#CCCCCC"/>
<path d="M438.545 290.726L421.226 284.687C421.129 284.654 421.04 284.601 420.963 284.533C420.887 284.465 420.824 284.383 420.78 284.29C420.735 284.198 420.709 284.098 420.703 283.996C420.697 283.893 420.711 283.791 420.745 283.694C420.779 283.597 420.831 283.508 420.899 283.431C420.967 283.355 421.05 283.292 421.142 283.248C421.235 283.203 421.335 283.178 421.437 283.172C421.539 283.166 421.642 283.181 421.738 283.215L439.057 289.254C439.154 289.287 439.243 289.339 439.32 289.407C439.397 289.476 439.459 289.558 439.504 289.65C439.548 289.743 439.574 289.843 439.58 289.945C439.586 290.047 439.572 290.15 439.538 290.247C439.505 290.344 439.452 290.433 439.384 290.509C439.316 290.586 439.233 290.648 439.141 290.693C439.049 290.737 438.949 290.763 438.846 290.769C438.744 290.774 438.642 290.76 438.545 290.726Z" fill="#CCCCCC"/>
<path d="M435.302 300.051L417.983 294.012C417.788 293.944 417.628 293.801 417.538 293.615C417.448 293.429 417.436 293.214 417.503 293.019C417.571 292.824 417.714 292.664 417.9 292.574C418.086 292.484 418.3 292.471 418.495 292.539L435.814 298.578C435.911 298.612 436 298.664 436.076 298.732C436.153 298.8 436.215 298.883 436.26 298.975C436.305 299.067 436.331 299.168 436.337 299.27C436.343 299.372 436.328 299.475 436.295 299.571C436.261 299.668 436.209 299.758 436.14 299.834C436.072 299.911 435.99 299.973 435.898 300.017C435.805 300.062 435.705 300.088 435.603 300.093C435.501 300.099 435.398 300.085 435.302 300.051Z" fill="#CCCCCC"/>
<path d="M432.058 309.375L414.739 303.336C414.544 303.268 414.384 303.125 414.294 302.939C414.205 302.753 414.192 302.539 414.26 302.344C414.328 302.148 414.471 301.988 414.657 301.898C414.842 301.808 415.056 301.796 415.251 301.864L432.571 307.903C432.766 307.971 432.926 308.114 433.015 308.3C433.105 308.486 433.118 308.7 433.05 308.895C432.982 309.091 432.839 309.251 432.653 309.341C432.467 309.431 432.253 309.443 432.058 309.375Z" fill="#CCCCCC"/>
<path d="M478.148 314.427C478.274 314.124 478.393 313.816 478.502 313.502C479.926 309.41 479.667 304.919 477.783 301.017C475.9 297.115 472.545 294.123 468.458 292.698L462.765 309.063L478.148 314.427Z" fill="#00779F"/>
<path d="M461.11 310.059L466.802 293.693C463.794 292.644 460.545 292.499 457.455 293.277C454.366 294.055 451.571 295.721 449.416 298.07C447.261 300.419 445.839 303.348 445.327 306.496C444.815 309.644 445.234 312.873 446.533 315.785C447.831 318.698 449.953 321.166 452.636 322.886C455.319 324.605 458.446 325.501 461.632 325.462C464.817 325.424 467.921 324.453 470.562 322.669C473.203 320.885 475.265 318.366 476.493 315.423L461.11 310.059Z" fill="#3F3D56"/>
<path d="M481.49 286.582C481.425 285.79 481.535 284.994 481.811 284.249C482.087 283.505 482.523 282.83 483.088 282.272C483.653 281.714 484.333 281.287 485.081 281.021C485.829 280.755 486.625 280.656 487.415 280.732L495.442 263.174L500.753 271.684L492.316 287.052C492.102 288.372 491.411 289.568 490.374 290.412C489.338 291.256 488.029 291.69 486.694 291.632C485.36 291.574 484.093 291.028 483.134 290.097C482.174 289.167 481.589 287.916 481.49 286.582Z" fill="#FFB8B8"/>
<path d="M495.386 280.399C494.892 280.399 494.409 280.248 494.003 279.967L490.213 277.34C489.803 277.054 489.491 276.65 489.318 276.181C489.145 275.712 489.121 275.201 489.247 274.718L493.703 257.869L488.317 226.586C488.311 225.557 488.507 224.536 488.895 223.583C489.283 222.629 489.855 221.762 490.579 221.03C491.302 220.298 492.162 219.716 493.11 219.317C494.058 218.918 495.075 218.711 496.103 218.706C497.131 218.701 498.15 218.899 499.102 219.288C500.054 219.678 500.919 220.252 501.649 220.976C502.38 221.701 502.96 222.563 503.357 223.513C503.754 224.462 503.961 225.481 503.964 226.51L508.377 246.03C509.718 251.954 508.863 258.164 505.973 263.505L497.521 279.126C497.358 279.426 497.134 279.689 496.863 279.896C496.593 280.104 496.281 280.253 495.95 280.332C495.765 280.377 495.576 280.399 495.386 280.399Z" fill="#3F3D56"/>
<path d="M536.46 377H433.918C433.774 377 433.637 376.943 433.536 376.842C433.435 376.74 433.378 376.603 433.378 376.46C433.378 376.316 433.435 376.179 433.536 376.077C433.637 375.976 433.774 375.919 433.918 375.919H536.46C536.603 375.919 536.741 375.976 536.842 376.077C536.943 376.179 537 376.316 537 376.46C537 376.603 536.943 376.74 536.842 376.842C536.741 376.943 536.603 377 536.46 377Z" fill="#CCCCCC"/>
<path d="M264.744 370.277L271.361 370.276L274.508 344.724H264.743L264.744 370.277Z" fill="#A0616A"/>
<path d="M263.057 368.114L276.087 368.114H276.088C277.178 368.113 278.258 368.329 279.265 368.746C280.273 369.164 281.188 369.777 281.959 370.549C282.731 371.321 283.342 372.237 283.76 373.246C284.177 374.255 284.392 375.336 284.392 376.428V376.698L263.057 376.699L263.057 368.114Z" fill="#2F2E41"/>
<path d="M238.299 370.277L244.916 370.276L248.063 344.724H238.298L238.299 370.277Z" fill="#A0616A"/>
<path d="M236.611 368.114L249.642 368.114H249.642C250.733 368.113 251.813 368.329 252.82 368.746C253.828 369.164 254.743 369.777 255.514 370.549C256.285 371.321 256.897 372.237 257.314 373.246C257.732 374.255 257.946 375.336 257.946 376.428V376.698L236.612 376.699L236.611 368.114Z" fill="#2F2E41"/>
<path d="M266.065 193.373C273.386 193.373 279.32 187.431 279.32 180.101C279.32 172.771 273.386 166.829 266.065 166.829C258.744 166.829 252.809 172.771 252.809 180.101C252.809 187.431 258.744 193.373 266.065 193.373Z" fill="#A0616A"/>
<path d="M274.979 364.762H262.7C262.379 364.762 262.061 364.698 261.764 364.574C261.468 364.45 261.199 364.268 260.973 364.039C260.747 363.81 260.569 363.539 260.448 363.24C260.328 362.942 260.268 362.622 260.272 362.301L260.985 303.925C260.988 303.717 260.911 303.517 260.771 303.365C260.63 303.212 260.437 303.12 260.23 303.106C260.023 303.092 259.819 303.158 259.66 303.29C259.5 303.422 259.397 303.611 259.372 303.817L252.226 362.624C252.154 363.214 251.869 363.756 251.425 364.15C250.981 364.544 250.409 364.761 249.815 364.762H237.419C237.084 364.762 236.753 364.693 236.446 364.558C236.139 364.424 235.863 364.228 235.636 363.981C235.409 363.735 235.234 363.445 235.125 363.128C235.015 362.811 234.972 362.475 234.998 362.141L243.184 257.27L243.406 257.246L282.604 253.007L277.405 362.446C277.376 363.07 277.107 363.66 276.656 364.091C276.204 364.522 275.603 364.763 274.979 364.762Z" fill="#2F2E41"/>
<path d="M243.661 263.708C243.031 263.706 242.426 263.46 241.975 263.02C241.523 262.581 241.26 261.983 241.241 261.353C241.027 254.722 240.66 231.777 244.923 214.933C246.086 210.331 248.697 206.227 252.37 203.226C256.043 200.225 260.583 198.487 265.319 198.269C269.981 198.014 274.604 199.235 278.533 201.759C282.462 204.283 285.497 207.982 287.209 212.331C294.373 230.543 301.143 252.991 292.703 256.512C281.642 261.126 252.483 263.183 243.81 263.703C243.76 263.706 243.71 263.708 243.661 263.708Z" fill="#3F3D56"/>
<path d="M294.323 166.687C294.531 166.901 294.756 167.099 294.995 167.278L293.604 194.04L287.816 197.007L291.146 206.337L301.902 202.082C302.771 201.738 303.505 201.122 303.994 200.325C304.483 199.528 304.701 198.593 304.615 197.662L301.797 167.304C302.719 166.616 303.41 165.662 303.777 164.571C304.145 163.479 304.172 162.301 303.855 161.194C303.537 160.087 302.891 159.103 302.002 158.372C301.112 157.642 300.021 157.2 298.875 157.105C297.728 157.01 296.58 157.267 295.583 157.842C294.586 158.417 293.787 159.282 293.293 160.322C292.799 161.362 292.633 162.528 292.817 163.665C293.001 164.802 293.526 165.856 294.323 166.687Z" fill="#A0616A"/>
<path d="M293.714 195.036L297.786 206.621C297.901 206.95 297.945 207.301 297.913 207.649C297.882 207.997 297.775 208.334 297.602 208.637C297.428 208.94 297.191 209.202 296.907 209.406C296.624 209.609 296.299 209.749 295.957 209.815L283.951 212.143C282.263 212.727 280.413 212.617 278.806 211.837C277.199 211.057 275.966 209.671 275.378 207.983C274.791 206.295 274.896 204.442 275.67 202.831C276.445 201.22 277.826 199.982 279.51 199.389L290.29 193.692C290.599 193.529 290.939 193.435 291.287 193.415C291.636 193.396 291.984 193.452 292.309 193.579C292.634 193.707 292.928 193.903 293.17 194.154C293.413 194.405 293.598 194.706 293.714 195.036V195.036Z" fill="#3F3D56"/>
<path d="M236.906 166.687C236.698 166.901 236.473 167.099 236.234 167.278L237.625 194.04L243.413 197.007L240.083 206.337L229.327 202.082C228.458 201.738 227.724 201.122 227.235 200.325C226.746 199.528 226.528 198.593 226.615 197.662L229.432 167.304C228.51 166.616 227.82 165.662 227.452 164.571C227.084 163.479 227.057 162.301 227.375 161.194C227.692 160.087 228.338 159.103 229.228 158.372C230.117 157.642 231.208 157.2 232.354 157.105C233.501 157.01 234.649 157.267 235.646 157.842C236.643 158.417 237.442 159.282 237.936 160.322C238.43 161.362 238.597 162.528 238.413 163.665C238.229 164.802 237.703 165.856 236.906 166.687H236.906Z" fill="#A0616A"/>
<path d="M238.92 193.579C239.245 193.451 239.594 193.395 239.942 193.415C240.291 193.434 240.631 193.529 240.94 193.692L251.719 199.389C253.404 199.982 254.785 201.22 255.56 202.831C256.334 204.442 256.439 206.295 255.851 207.983C255.263 209.671 254.031 211.057 252.424 211.837C250.817 212.617 248.967 212.727 247.279 212.143L235.273 209.815C234.93 209.749 234.606 209.609 234.322 209.406C234.038 209.202 233.802 208.94 233.628 208.637C233.454 208.334 233.348 207.997 233.316 207.649C233.285 207.301 233.328 206.95 233.444 206.621L237.516 195.036C237.631 194.706 237.817 194.405 238.059 194.154C238.302 193.902 238.595 193.706 238.92 193.579Z" fill="#3F3D56"/>
<path d="M271.213 182.363C271.143 180.67 271.568 178.994 272.434 177.538C273.301 176.083 274.572 174.911 276.092 174.167C280.121 172.085 282.653 167.642 281.544 163.586C280.124 158.394 273.066 155.026 267.347 156.812C265.799 157.363 264.306 158.057 262.888 158.887L259.152 160.892C257.556 161.692 256.017 162.602 254.546 163.615C252.343 165.24 250.617 167.428 249.547 169.95C248.477 172.471 248.103 175.235 248.464 177.95C249.199 183.229 252.652 188.07 257.378 191.384C259.186 192.737 261.273 193.666 263.487 194.103C265.752 194.477 268.274 194.052 269.931 192.641C272.519 190.437 272.252 186.746 271.414 183.663C271.304 183.237 271.236 182.802 271.213 182.363Z" fill="#2F2E41"/>
<path d="M316.263 377H213.721C213.578 377 213.44 376.943 213.339 376.842C213.238 376.74 213.181 376.603 213.181 376.46C213.181 376.316 213.238 376.179 213.339 376.077C213.44 375.976 213.578 375.919 213.721 375.919H316.263C316.406 375.919 316.544 375.976 316.645 376.077C316.746 376.179 316.803 376.316 316.803 376.46C316.803 376.603 316.746 376.74 316.645 376.842C316.544 376.943 316.406 377 316.263 377Z" fill="#CCCCCC"/>
<path d="M148.908 278.423L64.2957 313.178C62.8425 313.773 61.213 313.766 59.7646 313.16C58.3163 312.553 57.1673 311.397 56.5698 309.943L30.6686 246.73C30.2333 245.664 30.238 244.469 30.6817 243.406C31.1254 242.344 31.9719 241.501 33.0355 241.063L120.508 205.133C121.591 204.69 122.806 204.695 123.885 205.147C124.965 205.599 125.821 206.461 126.266 207.544L152.139 270.688C152.733 272.143 152.727 273.774 152.121 275.224C151.515 276.675 150.36 277.825 148.908 278.423Z" fill="#E6E6E6"/>
<path d="M67.3605 305.511L141.348 275.12C142.757 274.541 143.879 273.426 144.466 272.019C145.054 270.613 145.059 269.03 144.481 267.619L123.566 216.575C123.28 215.877 122.859 215.241 122.328 214.706C121.796 214.17 121.165 213.744 120.469 213.453C119.773 213.162 119.027 213.011 118.273 213.008C117.519 213.006 116.772 213.152 116.074 213.438L42.0867 243.829C41.3891 244.115 40.7546 244.537 40.2196 245.069C39.6846 245.601 39.2595 246.233 38.9686 246.93C38.6777 247.626 38.5266 248.373 38.5241 249.128C38.5215 249.883 38.6675 250.631 38.9537 251.33L59.8687 302.374C60.1549 303.072 60.5757 303.708 61.1071 304.243C61.6385 304.779 62.2701 305.204 62.9657 305.496C63.6614 305.787 64.4076 305.938 65.1616 305.941C65.9157 305.943 66.6628 305.797 67.3605 305.511Z" fill="white"/>
<path d="M123.157 230.496L122.069 230.942L122.144 231.124L123.231 230.677L123.157 230.496Z" fill="#E6E6E6"/>
<path d="M119.947 232.026L117.749 232.929L117.675 232.748L119.872 231.845L119.947 232.026ZM115.551 233.832L113.354 234.734L113.28 234.553L115.477 233.65L115.551 233.832ZM111.156 235.637L108.959 236.54L108.885 236.358L111.082 235.456L111.156 235.637ZM106.761 237.442L104.564 238.345L104.489 238.163L106.687 237.261L106.761 237.442ZM102.366 239.248L100.169 240.15L100.094 239.969L102.292 239.066L102.366 239.248ZM97.9713 241.053L95.7738 241.955L95.6994 241.774L97.8969 240.871L97.9713 241.053ZM93.5762 242.858L91.3788 243.761L91.3044 243.579L93.5019 242.677L93.5762 242.858ZM89.1812 244.663L86.9837 245.566L86.9093 245.384L89.1068 244.482L89.1812 244.663ZM84.7862 246.469L82.5887 247.371L82.5143 247.19L84.7118 246.287L84.7862 246.469ZM80.3911 248.274L78.1936 249.177L78.1193 248.995L80.3168 248.092L80.3911 248.274ZM75.9961 250.079L73.7986 250.982L73.7242 250.8L75.9217 249.898L75.9961 250.079ZM71.601 251.884L69.4035 252.787L69.3292 252.606L71.5267 251.703L71.601 251.884ZM67.206 253.69L65.0085 254.592L64.9341 254.411L67.1316 253.508L67.206 253.69ZM62.811 255.495L60.6134 256.398L60.539 256.216L62.7366 255.313L62.811 255.495ZM58.4159 257.3L56.2184 258.203L56.144 258.021L58.3415 257.119L58.4159 257.3ZM54.0209 259.106L51.8233 260.008L51.749 259.827L53.9465 258.924L54.0209 259.106Z" fill="#E6E6E6"/>
<path d="M49.5517 260.729L48.4639 261.176L48.5383 261.358L49.6261 260.911L49.5517 260.729Z" fill="#E6E6E6"/>
<path d="M94.3594 262.047L93.2716 262.494L93.346 262.675L94.4338 262.228L94.3594 262.047Z" fill="#E6E6E6"/>
<path d="M91.1809 263.564L89.016 264.454L88.9416 264.272L91.1065 263.383L91.1809 263.564ZM86.8511 265.343L84.6862 266.232L84.6119 266.05L86.7767 265.161L86.8511 265.343ZM82.5214 267.121L80.3565 268.01L80.2821 267.829L82.447 266.94L82.5214 267.121ZM78.1916 268.9L76.0267 269.789L75.9524 269.607L78.1172 268.718L78.1916 268.9ZM73.8619 270.678L71.6969 271.567L71.6226 271.386L73.7875 270.497L73.8619 270.678ZM69.5321 272.457L67.3672 273.346L67.2928 273.164L69.4577 272.275L69.5321 272.457ZM65.2023 274.235L63.0374 275.124L62.9631 274.943L65.1279 274.054L65.2023 274.235ZM60.8726 276.014L58.7077 276.903L58.6333 276.721L60.7982 275.832L60.8726 276.014Z" fill="#E6E6E6"/>
<path d="M56.4687 277.61L55.3809 278.057L55.4553 278.239L56.5431 277.792L56.4687 277.61Z" fill="#E6E6E6"/>
<path d="M76.4202 278.746L75.3325 279.193L75.4068 279.375L76.4946 278.928L76.4202 278.746Z" fill="#E6E6E6"/>
<path d="M73.1793 280.289L70.952 281.204L70.8776 281.023L73.1049 280.108L73.1793 280.289ZM68.7246 282.119L66.4973 283.034L66.4229 282.853L68.6502 281.938L68.7246 282.119ZM64.2699 283.949L62.0426 284.864L61.9682 284.682L64.1955 283.767L64.2699 283.949Z" fill="#E6E6E6"/>
<path d="M59.7409 285.597L58.6531 286.044L58.7275 286.225L59.8152 285.779L59.7409 285.597Z" fill="#E6E6E6"/>
<path d="M82.0049 292.376L80.9171 292.823L80.9915 293.004L82.0793 292.557L82.0049 292.376Z" fill="#E6E6E6"/>
<path d="M78.764 293.919L76.5367 294.834L76.4623 294.652L78.6896 293.738L78.764 293.919ZM74.3093 295.749L72.082 296.664L72.0076 296.482L74.2349 295.567L74.3093 295.749ZM69.8546 297.579L67.6273 298.493L67.5529 298.312L69.7803 297.397L69.8546 297.579Z" fill="#E6E6E6"/>
<path d="M65.3256 299.227L64.2379 299.674L64.3122 299.855L65.4 299.409L65.3256 299.227Z" fill="#E6E6E6"/>
<path d="M70.502 297.476L133.202 271.722C134.719 271.096 135.927 269.894 136.56 268.378C137.193 266.862 137.2 265.157 136.578 263.636L123.91 232.719L123.788 232.774L108.401 269.609L96.9897 264.832C96.7791 264.743 96.5509 264.704 96.3228 264.718C96.0948 264.733 95.8731 264.8 95.6753 264.914C95.3781 265.093 95.1482 265.365 95.0211 265.688L86.9573 284.991L78.6137 281.499C78.4337 281.423 78.2405 281.384 78.0454 281.383C77.8502 281.383 77.6568 281.421 77.4762 281.495C77.2957 281.569 77.1315 281.678 76.993 281.816C76.8546 281.953 76.7446 282.117 76.6693 282.297C76.6159 282.429 71.4713 295.067 70.502 297.476Z" fill="#00779F"/>
<path d="M70.3093 297.767L70.1285 297.691L76.5804 282.244C76.7512 281.836 77.0766 281.513 77.4851 281.345C77.8937 281.177 78.3521 281.179 78.7597 281.349L86.9385 284.773L94.9564 265.577C95.1272 265.169 95.4526 264.846 95.8611 264.678C96.2697 264.51 96.728 264.512 97.1356 264.682L108.383 269.391L123.848 232.364L124.029 232.439L108.488 269.648L97.06 264.863C96.882 264.788 96.691 264.75 96.498 264.749C96.305 264.748 96.1138 264.786 95.9352 264.859C95.7566 264.932 95.5943 265.04 95.4573 265.176C95.3204 265.313 95.2116 265.474 95.1372 265.653L87.0437 285.03L78.6841 281.53C78.3244 281.38 77.92 281.379 77.5595 281.527C77.1991 281.675 76.9119 281.96 76.7612 282.32L70.3093 297.767Z" fill="#3F3D56"/>
<path d="M76.4573 280.21C77.2149 280.21 77.829 279.595 77.829 278.837C77.829 278.079 77.2149 277.464 76.4573 277.464C75.6998 277.464 75.0856 278.079 75.0856 278.837C75.0856 279.595 75.6998 280.21 76.4573 280.21Z" fill="#3F3D56"/>
<path d="M94.3966 263.511C95.1542 263.511 95.7683 262.896 95.7683 262.138C95.7683 261.379 95.1542 260.764 94.3966 260.764C93.639 260.764 93.0249 261.379 93.0249 262.138C93.0249 262.896 93.639 263.511 94.3966 263.511Z" fill="#3F3D56"/>
<path d="M122.329 231.911C123.087 231.911 123.701 231.296 123.701 230.538C123.701 229.779 123.087 229.164 122.329 229.164C121.572 229.164 120.957 229.779 120.957 230.538C120.957 231.296 121.572 231.911 122.329 231.911Z" fill="#3F3D56"/>
<path d="M45.5514 277.279C46.2645 276.923 46.8911 276.416 47.3871 275.792C47.8831 275.168 48.2364 274.443 48.4222 273.667C48.6079 272.892 48.6216 272.085 48.4622 271.304C48.3028 270.522 47.9743 269.785 47.4997 269.145L51.5737 229.264H42.7694L39.5317 268.206C38.51 269.075 37.8423 270.29 37.6552 271.619C37.4681 272.949 37.7745 274.301 38.5166 275.419C39.2586 276.538 40.3845 277.345 41.6811 277.687C42.9777 278.03 44.3548 277.885 45.5514 277.279Z" fill="#FFB8B8"/>
<path d="M53.6353 207.254C60.5147 207.254 66.0916 201.671 66.0916 194.783C66.0916 187.895 60.5147 182.311 53.6353 182.311C46.7559 182.311 41.179 187.895 41.179 194.783C41.179 201.671 46.7559 207.254 53.6353 207.254Z" fill="#FFB8B8"/>
<path d="M55.9802 252.489C55.4816 252.489 54.9968 252.325 54.6002 252.023C54.2036 251.72 53.9171 251.296 53.7847 250.814C52.7867 247.184 50.1903 241.046 46.0676 232.57C45.1374 230.654 44.6223 228.563 44.5561 226.433C44.4899 224.304 44.8741 222.185 45.6834 220.214C46.4928 218.244 47.7091 216.468 49.2525 215.001C50.7959 213.535 52.6316 212.411 54.639 211.705C56.5414 211.033 58.5592 210.749 60.573 210.871C62.5868 210.993 64.5557 211.518 66.3633 212.415C68.1708 213.312 69.7803 214.563 71.0965 216.094C72.4127 217.625 73.4088 219.405 74.026 221.328C77.2215 231.358 77.0672 242.103 76.8525 246.257C76.8258 246.757 76.6361 247.235 76.3124 247.617C75.9887 247.999 75.5489 248.264 75.0602 248.372L56.4697 252.436C56.3089 252.472 56.1448 252.489 55.9802 252.489Z" fill="#FF6584"/>
<path d="M73.9829 370.918H80.2002L83.1583 346.906L73.9818 346.906L73.9829 370.918Z" fill="#FFB8B8"/>
<path d="M92.1921 376.698L72.651 376.699L72.6506 369.139L84.6418 369.139C85.6332 369.139 86.615 369.334 87.531 369.714C88.4471 370.094 89.2794 370.651 89.9805 371.353C90.6816 372.055 91.2378 372.888 91.6172 373.805C91.9967 374.722 92.192 375.705 92.1921 376.698Z" fill="#2F2E41"/>
<path d="M11.8094 362.85L17.2582 365.849L31.4048 346.235L23.3638 341.808L11.8094 362.85Z" fill="#FFB8B8"/>
<path d="M24.9852 376.698L7.86139 367.273L11.4987 360.649L22.0065 366.433C23.7612 367.398 25.0608 369.023 25.6194 370.948C26.178 372.873 25.9499 374.942 24.9852 376.698Z" fill="#2F2E41"/>
<path d="M73.6922 357.59C73.1382 357.59 72.6032 357.387 72.1872 357.021C71.7711 356.655 71.5024 356.149 71.4312 355.599L63.6553 295.606C63.621 295.34 63.5037 295.093 63.3204 294.898C63.137 294.703 62.8969 294.572 62.6343 294.522C62.3717 294.472 62.1001 294.506 61.8583 294.62C61.6164 294.734 61.4167 294.922 61.2877 295.156L28.8811 354.023C28.6137 354.504 28.1829 354.872 27.6671 355.062C27.1512 355.251 26.5845 355.249 26.0701 355.056L19.0064 352.361C18.7223 352.253 18.4627 352.089 18.2428 351.879C18.0229 351.669 17.8472 351.416 17.7259 351.137C17.6047 350.858 17.5404 350.558 17.5368 350.253C17.5333 349.949 17.5905 349.647 17.7051 349.365L40.154 294.15C40.2108 294.01 40.2493 293.863 40.2686 293.713C43.3092 270.15 51.0454 258.168 53.344 255.057C53.5119 254.828 53.6223 254.562 53.6661 254.282C53.7099 254.002 53.6857 253.715 53.5955 253.446L53.2795 252.497C53.1533 252.12 53.1274 251.717 53.2044 251.327C53.2814 250.937 53.4587 250.574 53.7187 250.274C62.0012 240.829 76.4373 245.983 76.5822 246.036L76.6545 246.063L76.6998 246.125C92.887 268.351 86.902 340.543 85.5379 354.789C85.487 355.325 85.2486 355.825 84.8649 356.201C84.4812 356.577 83.977 356.806 83.4413 356.846L73.8695 357.584C73.81 357.588 73.7509 357.59 73.6922 357.59Z" fill="#2F2E41"/>
<path d="M102.06 209.27C101.998 209.544 101.958 209.822 101.939 210.103L80.1529 222.686L74.8575 219.634L69.2122 227.034L78.0623 233.349C78.7772 233.859 79.6382 234.124 80.5159 234.102C81.3936 234.081 82.2408 233.775 82.9301 233.23L105.395 215.486C106.409 215.861 107.513 215.919 108.561 215.651C109.608 215.384 110.549 214.803 111.259 213.986C111.969 213.17 112.413 212.156 112.534 211.081C112.654 210.005 112.445 208.918 111.933 207.965C111.422 207.011 110.632 206.236 109.67 205.743C108.708 205.249 107.618 205.061 106.547 205.203C105.475 205.344 104.471 205.809 103.67 206.536C102.869 207.262 102.307 208.216 102.06 209.27Z" fill="#FFB8B8"/>
<path d="M79.4246 223.283L72.3834 232.42C72.183 232.68 71.9291 232.893 71.6388 233.046C71.3485 233.199 71.0288 233.287 70.7013 233.305C70.3738 233.323 70.0464 233.27 69.7412 233.15C69.436 233.03 69.1602 232.845 68.9327 232.609L60.9616 224.321C59.6389 223.287 58.7797 221.771 58.5723 220.103C58.3649 218.436 58.8262 216.755 59.8551 215.428C60.8841 214.101 62.3966 213.236 64.0611 213.024C65.7256 212.812 67.4063 213.269 68.7346 214.296L78.7321 219.893C79.0183 220.053 79.2666 220.273 79.4602 220.538C79.6537 220.803 79.7879 221.107 79.8536 221.429C79.9193 221.751 79.915 222.083 79.841 222.403C79.7669 222.722 79.6249 223.023 79.4246 223.283Z" fill="#FF6584"/>
<path d="M52.1337 239.157L40.7907 237.106C40.468 237.048 40.1616 236.921 39.8924 236.733C39.6233 236.545 39.3976 236.302 39.2309 236.019C39.0642 235.736 38.9603 235.421 38.9263 235.094C38.8924 234.768 38.9291 234.438 39.034 234.126L42.7112 223.226C43.0186 221.574 43.9677 220.112 45.3503 219.16C46.7328 218.208 48.4361 217.843 50.0866 218.147C51.737 218.45 53.1999 219.397 54.1546 220.778C55.1092 222.16 55.4776 223.864 55.179 225.518L54.8203 236.98C54.8099 237.309 54.729 237.631 54.5831 237.925C54.4372 238.219 54.2297 238.478 53.9747 238.685C53.7197 238.891 53.4233 239.04 53.1056 239.122C52.7879 239.203 52.4564 239.215 52.1337 239.157H52.1337Z" fill="#FF6584"/>
<path d="M55.6063 191.914C58.8078 194.108 63.0115 196.363 66.2814 194.027C67.3042 193.247 68.0472 192.157 68.3993 190.919C68.7513 189.681 68.6934 188.362 68.2342 187.159C66.6685 182.676 62.3667 180.703 58.2531 179.19C52.9055 177.223 47.0827 175.659 41.5621 177.067C36.0415 178.476 31.1625 183.827 32.1591 189.443C32.9605 193.96 37.2154 197.717 36.6114 202.264C36.0035 206.841 30.8634 209.249 26.3255 210.067C21.7876 210.885 16.7096 211.148 13.4484 214.411C9.2882 218.575 10.3271 226.016 14.2417 230.411C18.1563 234.807 24.0637 236.799 29.788 238.154C37.3723 239.948 45.5752 240.891 52.7784 237.913C59.9816 234.935 65.587 226.917 63.5003 219.4C62.6189 216.224 60.5426 213.54 58.536 210.928C56.5294 208.315 54.4975 205.583 53.732 202.377C53.0942 199.706 53.5663 196.604 55.3356 194.601C55.6574 194.25 55.8599 193.806 55.9141 193.333C55.9682 192.86 55.8712 192.382 55.637 191.967L55.6063 191.914Z" fill="#2F2E41"/>
<path d="M103.082 377H0.539698C0.396562 377 0.259287 376.943 0.158074 376.842C0.0568605 376.74 0 376.603 0 376.46C0 376.316 0.0568605 376.179 0.158074 376.077C0.259287 375.976 0.396562 375.919 0.539698 375.919H103.082C103.226 375.919 103.363 375.976 103.464 376.077C103.565 376.179 103.622 376.316 103.622 376.46C103.622 376.603 103.565 376.74 103.464 376.842C103.363 376.943 103.226 377 103.082 377Z" fill="#CCCCCC"/>
</svg>
