<svg width="100" height="100" viewBox="0 0 100 100" fill="none" xmlns="http://www.w3.org/2000/svg">
<g clip-path="url(#clip0)">
<path d="M49.9998 9.23706C41.8041 9.23706 34.1264 12.4568 28.3783 18.306L28.2922 18.3941C27.7281 18.9714 27.7387 19.8966 28.3158 20.4609C28.893 21.025 29.8184 21.0144 30.3826 20.4373L30.4658 20.3521C35.6572 15.0693 42.5945 12.1601 49.9998 12.1601C65.1002 12.1601 77.3854 24.4451 77.3854 39.5457C77.3854 54.6462 65.1002 66.9312 49.9998 66.9312C34.8994 66.9312 22.6143 54.646 22.6143 39.5457C22.6143 34.6125 23.9401 29.7771 26.4483 25.5623C26.8609 24.8685 26.6334 23.9716 25.9397 23.5589C25.2457 23.1462 24.349 23.374 23.9363 24.0675C21.1592 28.7343 19.6912 34.0867 19.6912 39.5459C19.6912 56.258 33.2875 69.8544 49.9996 69.8544C66.7117 69.8544 80.308 56.258 80.308 39.5459C80.308 22.8337 66.7119 9.23706 49.9998 9.23706Z" fill="#1D6279"/>
<path d="M87.0181 33.4633C86.2251 32.2826 85.4763 31.1674 85.1949 30.1148C84.8947 28.9916 84.9843 27.6078 85.0794 26.1428C85.2212 23.9574 85.3679 21.6975 84.2515 19.7682C83.1179 17.8088 81.0701 16.8031 79.0896 15.8305C77.7875 15.191 76.5574 14.5869 75.758 13.7875C74.9585 12.9879 74.3544 11.758 73.7148 10.4557C72.7423 8.47539 71.7367 6.42754 69.7771 5.29395C67.8478 4.17773 65.588 4.32441 63.4025 4.46602C61.9375 4.56113 60.5539 4.65098 59.4302 4.35059C58.3777 4.06914 57.2625 3.32031 56.0818 2.52734C54.3183 1.34277 52.3189 0 49.9998 0C47.6806 0 45.6812 1.34277 43.9171 2.52754C42.7365 3.32051 41.6214 4.06934 40.5689 4.35059C39.4457 4.65098 38.0619 4.56113 36.5968 4.46602C34.4113 4.32441 32.1517 4.17773 30.2222 5.29395C28.2628 6.42754 27.2572 8.47539 26.2845 10.4557C25.6451 11.758 25.041 12.9881 24.2414 13.7875C23.4419 14.5869 22.2121 15.191 20.9097 15.8305C18.9292 16.8029 16.8816 17.8088 15.7478 19.7682C14.6314 21.6975 14.7781 23.9574 14.9199 26.143C15.015 27.6078 15.1046 28.9916 14.8044 30.1148C14.523 31.1674 13.7742 32.2826 12.9812 33.4633C11.7966 35.2273 10.4539 37.2266 10.4539 39.5457C10.4539 41.8648 11.7964 43.8643 12.9812 45.6283C13.774 46.809 14.523 47.9242 14.8042 48.9768C15.1044 50.1 15.0148 51.4838 14.9197 52.9488C14.7779 55.1342 14.6312 57.3939 15.7476 59.3234C16.8812 61.2828 18.9291 62.2887 20.9095 63.2611C22.2117 63.9006 23.4417 64.5047 24.2412 65.3041C24.9824 66.0453 25.5558 67.1578 26.1451 68.3535L15.5296 87.8828C15.0742 88.7207 15.0873 89.7139 15.5648 90.5393C16.0423 91.3648 16.8964 91.8713 17.8498 91.8943L25.9906 92.0914L30.5833 98.8158C31.0945 99.5643 31.9234 100 32.8218 100C32.8687 100 32.916 99.9988 32.9632 99.9965C33.9156 99.9482 34.756 99.4191 35.2115 98.5812L46.358 78.0752C47.4798 78.6623 48.6884 79.0916 49.9996 79.0916C51.3105 79.0916 52.5193 78.6623 53.6412 78.0752L64.7876 98.5814C65.2431 99.4193 66.0835 99.9484 67.0359 99.9967C67.0834 99.999 67.1304 100 67.1773 100C68.0757 100 68.9046 99.5645 69.4158 98.816L74.0085 92.0916L82.1492 91.8945C83.1025 91.8715 83.9568 91.3648 84.4341 90.5395C84.9117 89.7139 84.9248 88.7209 84.4693 87.883L80.5875 80.7414C80.2019 80.032 79.3146 79.7693 78.6054 80.1553C77.8962 80.5408 77.6339 81.4281 78.0193 82.1373L81.739 88.9805L73.8312 89.1719C72.9597 89.193 72.146 89.6354 71.6546 90.3551L67.1933 96.8869L56.1292 76.5322C57.2923 75.7512 58.3919 75.0184 59.4302 74.7408C60.5535 74.4406 61.9373 74.5303 63.4023 74.6254C65.588 74.7672 67.8476 74.9139 69.7769 73.7975C70.7982 73.2066 71.5591 72.3664 72.1925 71.4178L74.8037 76.2217C75.189 76.9309 76.0759 77.1932 76.7857 76.8078C77.4949 76.4223 77.7572 75.535 77.3718 74.8258L73.8537 68.3533C74.4429 67.1576 75.0164 66.0453 75.7576 65.3041C76.557 64.5047 77.7869 63.9006 79.0892 63.2611C81.0697 62.2887 83.1173 61.2828 84.2511 59.3234C85.3675 57.3941 85.2208 55.1342 85.079 52.9486C84.9839 51.4838 84.8943 50.1 85.1945 48.9766C85.4759 47.924 86.2248 46.809 87.0175 45.6283C88.2021 43.8643 89.5449 41.8648 89.5449 39.5457C89.5455 37.2266 88.2027 35.2271 87.0181 33.4633ZM32.8058 96.8869L28.3447 90.3553C27.8531 89.6355 27.0394 89.1932 26.1679 89.1721L18.2603 88.9807L27.8066 71.4182C28.44 72.3666 29.2009 73.2068 30.2222 73.7977C32.1517 74.9139 34.4119 74.7674 36.5968 74.6256C38.0619 74.5305 39.4457 74.4408 40.5689 74.741C41.6074 75.0186 42.707 75.7516 43.8699 76.5324L32.8058 96.8869ZM84.5914 43.9986C83.7 45.3262 82.7781 46.6988 82.371 48.2219C81.9466 49.8094 82.0564 51.5016 82.1627 53.1379C82.2814 54.9688 82.3935 56.698 81.7214 57.8596C81.0324 59.0504 79.4628 59.8213 77.8011 60.6375C76.3421 61.3539 74.8335 62.0947 73.6912 63.2373C72.5486 64.3797 71.8078 65.8885 71.0912 67.3475C70.2752 69.0092 69.5042 70.5785 68.3136 71.2676C67.1519 71.9397 65.423 71.8273 63.5919 71.7088C61.9554 71.6025 60.2634 71.493 58.6759 71.9172C57.1531 72.3244 55.7804 73.2461 54.4529 74.1377C52.8976 75.1822 51.4287 76.1688 49.9998 76.1688C48.571 76.1688 47.1021 75.1822 45.5468 74.1377C44.2193 73.2463 42.8468 72.3244 41.3236 71.9172C40.4521 71.6842 39.5494 71.6123 38.6414 71.6123C37.8953 71.6123 37.1457 71.6609 36.4076 71.709C34.5765 71.8275 32.8474 71.94 31.6859 71.2678C30.4951 70.5787 29.7242 69.0092 28.9082 67.3475C28.1917 65.8885 27.4507 64.3799 26.3082 63.2373C25.1658 62.0949 23.6572 61.3539 22.1982 60.6375C20.5365 59.8215 18.9669 59.0506 18.2779 57.8596C17.6058 56.698 17.7179 54.9687 17.8367 53.1381C17.9429 51.5018 18.0527 49.8096 17.6283 48.2221C17.2212 46.699 16.2994 45.3262 15.4078 43.9988C14.3634 42.4436 13.3769 40.9746 13.3769 39.5459C13.3769 38.1172 14.3634 36.6482 15.4078 35.093C16.2994 33.7654 17.221 32.3928 17.6283 30.8697C18.0527 29.2822 17.9429 27.59 17.8367 25.9537C17.7179 24.1229 17.6058 22.3936 18.2779 21.232C18.9669 20.0412 20.5365 19.2703 22.1982 18.4541C23.6572 17.7377 25.1658 16.9967 26.3082 15.8543C27.4505 14.7119 28.1916 13.2031 28.9082 11.7441C29.7242 10.0826 30.4951 8.51309 31.6859 7.82402C32.8474 7.15215 34.5765 7.26426 36.4076 7.38281C38.0439 7.48906 39.7359 7.59883 41.3236 7.17441C42.8464 6.76719 44.2191 5.84551 45.5466 4.95391C47.1019 3.90937 48.5709 2.92285 49.9998 2.92285C51.4285 2.92285 52.8974 3.90938 54.4527 4.95371C55.7802 5.84531 57.1529 6.76719 58.6759 7.17422C60.2634 7.59863 61.9558 7.48887 63.5921 7.38262C65.423 7.26406 67.1523 7.15176 68.3136 7.82383C69.5044 8.51289 70.2753 10.0824 71.0914 11.7439C71.8078 13.2029 72.5488 14.7115 73.6914 15.8541C74.8337 16.9965 76.3425 17.7375 77.8013 18.4539C79.463 19.2699 81.0324 20.0408 81.7214 21.2316C82.3935 22.3932 82.2814 24.1225 82.1627 25.9531C82.0564 27.5895 81.9466 29.2816 82.371 30.8691C82.7781 32.3922 83.7 33.765 84.5916 35.0924C85.6359 36.6477 86.6224 38.1166 86.6224 39.5453C86.6224 40.9744 85.6359 42.4434 84.5914 43.9986Z" fill="#1D6279"/>
<path d="M70.0698 38.1764C71.0573 37.2137 71.4059 35.801 70.9798 34.4895C70.5536 33.178 69.4411 32.2399 68.0765 32.0416L58.1647 30.6014C57.9452 30.5696 57.7556 30.4317 57.6575 30.2329L53.2249 21.2514C52.6145 20.0147 51.3786 19.2465 49.9997 19.2465C48.6208 19.2465 47.3849 20.0147 46.7745 21.2514L42.3419 30.2329C42.2438 30.4317 42.0542 30.5696 41.8347 30.6014L31.9231 32.0416C30.5585 32.2399 29.4458 33.1778 29.0196 34.4895C28.5934 35.801 28.9421 37.2137 29.9298 38.1764L37.1018 45.1674C37.2608 45.3223 37.3331 45.5452 37.2956 45.7637L35.6024 55.6354C35.3692 56.9948 35.9177 58.3426 37.0333 59.1532C37.6638 59.6112 38.4013 59.8438 39.1438 59.8438C39.7153 59.8438 40.2899 59.7059 40.821 59.4268L49.686 54.7661C49.8825 54.6629 50.1169 54.6629 50.313 54.7661L59.1782 59.4268C60.3987 60.0684 61.8501 59.9635 62.9659 59.1532C64.0817 58.3426 64.63 56.9946 64.3968 55.6354L62.7036 45.7637C62.6661 45.5452 62.7386 45.3223 62.8972 45.1676L70.0698 38.1764ZM59.8229 46.2579L61.5161 56.1295C61.58 56.502 61.3499 56.7143 61.2481 56.7883C61.1462 56.8624 60.8733 57.0153 60.5388 56.8395L51.6733 52.1788C50.6253 51.6278 49.3741 51.628 48.3261 52.1788L39.4608 56.8397C39.1267 57.0155 38.8534 56.8624 38.7515 56.7883C38.6497 56.7143 38.4196 56.502 38.4835 56.1295L40.1766 46.2581C40.3768 45.0913 39.9903 43.9012 39.1423 43.0745L31.9702 36.0834C31.6995 35.8196 31.7608 35.5125 31.7997 35.393C31.8386 35.2733 31.9694 34.9889 32.3434 34.9346L42.2552 33.4944C43.4268 33.3241 44.4391 32.5887 44.9632 31.527L49.3958 22.5455C49.563 22.2067 49.8739 22.1702 49.9999 22.1702C50.1259 22.1702 50.4366 22.2067 50.604 22.5455L55.0366 31.527C55.5606 32.5887 56.5729 33.3243 57.7446 33.4944L67.6563 34.9346C68.0304 34.9889 68.161 35.2733 68.2001 35.393C68.239 35.5127 68.3003 35.8198 68.0298 36.0834L60.8573 43.0747C60.0093 43.9012 59.6227 45.0913 59.8229 46.2579Z" fill="#1D6279"/>
</g>
<defs>
<clipPath id="clip0">
<rect width="100" height="100" fill="white"/>
</clipPath>
</defs>
</svg>
