<svg width="100" height="100" viewBox="0 0 100 100" fill="none" xmlns="http://www.w3.org/2000/svg">
<g clip-path="url(#clip0)">
<path d="M49.9997 26.0238L61.8736 16.129H77.4191V0H38.7094V16.129H49.9997V26.0238ZM41.9352 12.9032V3.22581H74.1932V12.9032H60.7064L53.2255 19.1375V12.9032H41.9352Z" fill="#1D6279"/>
<path d="M45.1614 6.45157H48.3872V9.67737H45.1614V6.45157Z" fill="#1D6279"/>
<path d="M51.6125 6.45157H64.5157V9.67737H51.6125V6.45157Z" fill="#1D6279"/>
<path d="M67.7417 6.45157H70.9675V9.67737H67.7417V6.45157Z" fill="#1D6279"/>
<path d="M82.1045 96.7741L80.8003 83.7174C86.1856 82.866 90.3226 78.2029 90.3226 72.5806V51.6129H83.871V49.3841C83.871 47.1915 82.666 45.2227 80.7286 44.213C82.655 42.4434 83.871 39.913 83.871 37.0967V33.8709C83.871 28.5337 79.5308 24.1935 74.1936 24.1935C68.8563 24.1935 64.5161 28.5337 64.5161 33.8709V37.0967C64.5161 41.2723 67.1788 44.8273 70.8921 46.1819L62.2354 54.8387H53.1904C53.01 52.15 51.1632 49.8062 48.547 49.058L41.9355 47.1711V44.2902C43.9099 42.5174 45.1613 39.9547 45.1613 37.0967V33.8709C45.1613 28.5337 40.8211 24.1935 35.4839 24.1935C30.1466 24.1935 25.8065 28.5337 25.8065 33.8709V37.0967C25.8065 39.9532 27.0579 42.5159 29.0323 44.2902V47.1726L22.4208 49.0596C19.6659 49.8448 17.7419 52.3965 17.7419 55.2631V61.2903H11.2903V70.9677H14.5161V96.7741H0V100H100V96.7741H82.1045ZM67.7419 70.9677V63.571L79.1709 52.1421C79.997 51.3159 80.4884 50.2063 80.5987 49.0486C80.6129 49.1612 80.6452 49.2675 80.6452 49.3841V69.3548C80.6452 72.0222 78.4739 74.1935 75.8064 74.1935H62.9032V70.9677H67.7419ZM62.9032 83.8709H71.1213L72.4113 96.7741H62.9032V83.8709ZM74.3629 83.8709H77.5729L78.8629 96.7741H75.6529L74.3629 83.8709ZM83.871 69.3548V54.8387H87.0968V72.5806C87.0968 77.0271 83.4788 80.6451 79.0323 80.6451H62.9032V77.4193H75.8064C80.253 77.4193 83.871 73.8013 83.871 69.3548ZM67.7419 37.0967V33.8709C67.7419 30.3128 70.6354 27.4193 74.1936 27.4193C77.7517 27.4193 80.6452 30.3128 80.6452 33.8709V37.0967C80.6452 40.6549 77.7517 43.5483 74.1936 43.5483C70.6354 43.5483 67.7419 40.6549 67.7419 37.0967ZM63.5711 58.0645L74.3322 47.3034C74.6692 46.9663 75.1355 46.7741 75.6111 46.7741C76.6082 46.7741 77.4194 47.5853 77.4194 48.5824C77.4194 49.058 77.2272 49.5243 76.8901 49.8613L65.4612 61.2903H48.3871C47.4972 61.2903 46.7742 60.5673 46.7742 59.6774C46.7742 58.7874 47.4972 58.0645 48.3871 58.0645H63.5711ZM29.0323 33.8709C29.0323 30.3128 31.9257 27.4193 35.4839 27.4193C39.042 27.4193 41.9355 30.3128 41.9355 33.8709V37.0967C41.9355 40.6549 39.042 43.5483 35.4839 43.5483C31.9257 43.5483 29.0323 40.6549 29.0323 37.0967V33.8709ZM35.4839 46.7741C36.6164 46.7741 37.6985 46.5678 38.7097 46.2095V47.9421C38.3096 48.5595 37.1984 50 35.4839 50C33.7694 50 32.6581 48.5595 32.2581 47.9421V46.2095C33.2693 46.5678 34.3514 46.7741 35.4839 46.7741ZM20.9677 55.2631C20.9677 53.829 21.9309 52.5548 23.3068 52.161L29.9513 50.263C30.8869 51.4821 32.7078 53.2258 35.4839 53.2258C38.26 53.2258 40.0808 51.4821 41.0164 50.2614L47.661 52.1594C48.8966 52.513 49.7582 53.5872 49.9307 54.8371H48.3871C45.7197 54.8371 43.5484 57.0084 43.5484 59.6758C43.5484 60.2436 43.6642 60.7823 43.8453 61.2887H20.9677V55.2631ZM14.5161 64.5161H64.5161V67.7419H14.5161V64.5161ZM17.7419 77.4193H22.5806V74.1935H17.7419V70.9677H59.6774V74.1935H25.8065V77.4193H59.6774V96.7741H55.8358L52.6099 90.3225H24.8094L21.5836 96.7741H17.7419V77.4193ZM52.2288 96.7741H25.1906L26.8035 93.5483H50.6159L52.2288 96.7741Z" fill="#1D6279"/>
</g>
<defs>
<clipPath id="clip0">
<rect width="100" height="100" fill="white"/>
</clipPath>
</defs>
</svg>
