<svg width="100" height="100" viewBox="0 0 100 100" fill="none" xmlns="http://www.w3.org/2000/svg">
<g clip-path="url(#clip0)">
<path d="M6.66664 26.6666V71.6666C6.67215 76.2667 10.3999 79.9945 15 80H31.6666C32.1903 80.0041 32.6825 80.2502 33 80.6666L46.1533 98.2C47.1145 99.3523 48.5418 100.013 50.0424 100C51.543 99.9872 52.9587 99.3021 53.9 98.1333L67 80.6666C67.3179 80.2508 67.8099 80.0048 68.3333 80H85C89.6001 79.9945 93.3278 76.2667 93.3333 71.6666V26.6666C93.3278 22.0665 89.6001 18.3388 85 18.3333H74.08C70.9763 7.06463 60.4693 -0.541894 48.795 0.0283072C38.0201 0.569393 28.7992 7.94174 25.9 18.3333H15C10.3999 18.3388 6.67215 22.0665 6.66664 26.6666H6.66664ZM48.9516 3.35831C54.873 3.07147 60.6534 5.22347 64.9455 9.31282C69.2377 13.4022 71.6667 19.0716 71.6666 25C71.6893 30.9936 69.1994 36.7226 64.8016 40.795C60.6032 44.8457 58.2628 50.4497 58.3333 56.2833V58.3333H41.6666V56.5633C41.7393 50.603 39.3681 44.8728 35.105 40.7066C28.8008 34.7436 26.6668 25.5921 29.6834 17.4557C32.6999 9.31923 40.2838 3.77057 48.9516 3.35831ZM55 70H45C43.159 70 41.6666 68.5076 41.6666 66.6666V61.6666H58.3333V66.6666C58.3333 68.5076 56.8409 70 55 70ZM9.99997 26.6666C9.99997 23.9052 12.2386 21.6666 15 21.6666H25.245C25.1983 22.015 25.1333 22.3583 25.1033 22.7116C24.3928 30.3416 27.2376 37.8734 32.815 43.1283C36.4132 46.6643 38.4073 51.519 38.3333 56.5633V66.6666C38.3447 69.6973 40.3988 72.339 43.3333 73.0966V75C43.3333 75.9204 44.0795 76.6666 45 76.6666C45.9204 76.6666 46.6666 75.9204 46.6666 75V73.3333H53.3333V75C53.3333 75.9204 54.0795 76.6666 55 76.6666C55.9204 76.6666 56.6666 75.9204 56.6666 75V73.0966C59.6011 72.339 61.6553 69.6973 61.6666 66.6666V56.2833C61.594 51.3722 63.5521 46.649 67.0783 43.23C72.1537 38.5297 75.027 31.9175 75 25C74.9917 23.8847 74.9098 22.7712 74.755 21.6666H85C87.7614 21.6666 90 23.9052 90 26.6666V71.6666C90 74.4281 87.7614 76.6666 85 76.6666H68.3333C66.7613 76.6742 65.2825 77.4136 64.3333 78.6666L51.2866 96.0683C50.6086 96.7812 49.4815 96.8111 48.7666 96.135L35.6666 78.6666C34.7179 77.4129 33.2388 76.6734 31.6666 76.6666H15C12.2386 76.6666 9.99997 74.4281 9.99997 71.6666V26.6666Z" fill="#1D6279"/>
<path d="M46.6664 46.6667C45.7459 46.6667 44.9998 47.4129 44.9998 48.3334V53.3334C44.9998 54.2539 45.7459 55.0001 46.6664 55.0001C47.5869 55.0001 48.3331 54.2539 48.3331 53.3334V48.3334C48.3331 47.4129 47.5869 46.6667 46.6664 46.6667Z" fill="#1D6279"/>
<path d="M44.9998 40C44.9998 40.9204 45.7459 41.6666 46.6664 41.6666C47.5869 41.6666 48.3331 40.9204 48.3331 40V38.3333C48.3331 37.4128 47.5869 36.6666 46.6664 36.6666C45.7459 36.6666 44.9998 37.4128 44.9998 38.3333V40Z" fill="#1D6279"/>
<path d="M53.3331 55.0001C54.2536 55.0001 54.9997 54.2539 54.9997 53.3334V48.3334C54.9997 47.4129 54.2536 46.6667 53.3331 46.6667C52.4126 46.6667 51.6664 47.4129 51.6664 48.3334V53.3334C51.6664 54.2539 52.4126 55.0001 53.3331 55.0001Z" fill="#1D6279"/>
<path d="M53.3331 41.6666C54.2536 41.6666 54.9997 40.9204 54.9997 40V38.3333C54.9997 37.4128 54.2536 36.6666 53.3331 36.6666C52.4126 36.6666 51.6664 37.4128 51.6664 38.3333V40C51.6664 40.9204 52.4126 41.6666 53.3331 41.6666Z" fill="#1D6279"/>
<path d="M23.3332 11.6667C24.0412 11.667 24.6722 11.22 24.9066 10.5519C25.1411 9.88382 24.9278 9.14054 24.3749 8.69835L16.0415 2.03169C15.3226 1.45639 14.2735 1.5728 13.6982 2.29169C13.1229 3.01058 13.2393 4.05972 13.9582 4.63502L22.2915 11.3017C22.5872 11.5381 22.9546 11.6669 23.3332 11.6667Z" fill="#1D6279"/>
<path d="M77.7085 11.3017L86.0419 4.63502C86.7608 4.05972 86.8772 3.01058 86.3019 2.29169C85.7266 1.5728 84.6774 1.45639 83.9586 2.03169L75.6252 8.69835C75.1602 9.07051 74.929 9.66249 75.0188 10.2513C75.1085 10.8401 75.5056 11.3363 76.0604 11.553C76.6153 11.7696 77.2435 11.6738 77.7085 11.3017Z" fill="#1D6279"/>
<path d="M13.6988 59.3749C13.975 59.7203 14.3771 59.9417 14.8166 59.9905C15.2561 60.0392 15.697 59.9113 16.0421 59.6349L24.3755 52.9683C25.0944 52.393 25.2108 51.3438 24.6355 50.6249C24.0602 49.906 23.011 49.7896 22.2921 50.3649L13.9588 57.0316C13.6135 57.3078 13.392 57.7099 13.3433 58.1494C13.2945 58.5889 13.4224 59.0298 13.6988 59.3749Z" fill="#1D6279"/>
<path d="M83.9585 59.6349C84.6774 60.2102 85.7265 60.0938 86.3018 59.3749C86.8771 58.656 86.7607 57.6069 86.0418 57.0316L77.7085 50.3649C76.9896 49.7896 75.9404 49.906 75.3651 50.6249C74.7898 51.3438 74.9062 52.393 75.6251 52.9683L83.9585 59.6349Z" fill="#1D6279"/>
<path d="M34.6817 21.6351C34.7865 21.656 34.8932 21.6666 35.0001 21.6667C35.7973 21.6653 36.4819 21.0995 36.6334 20.3167C37.8284 14.1784 43.9067 11.565 43.9667 11.54C44.8177 11.1889 45.2229 10.2144 44.8717 9.36338C44.5206 8.5124 43.546 8.10722 42.6951 8.45838C42.3767 8.58838 34.9017 11.7484 33.3617 19.6834C33.1877 20.5868 33.7785 21.4603 34.6817 21.6351Z" fill="#1D6279"/>
<path d="M15 30H20C20.9204 30 21.6666 29.2538 21.6666 28.3333C21.6666 27.4128 20.9204 26.6666 20 26.6666H15C14.0795 26.6666 13.3333 27.4128 13.3333 28.3333C13.3333 29.2538 14.0795 30 15 30Z" fill="#1D6279"/>
<path d="M79.9995 30H84.9995C85.92 30 86.6662 29.2538 86.6662 28.3333C86.6662 27.4128 85.92 26.6666 84.9995 26.6666H79.9995C79.079 26.6666 78.3328 27.4128 78.3328 28.3333C78.3328 29.2538 79.079 30 79.9995 30Z" fill="#1D6279"/>
</g>
<defs>
<clipPath id="clip0">
<rect width="100" height="100" fill="white"/>
</clipPath>
</defs>
</svg>
