<svg width="100" height="100" viewBox="0 0 100 100" fill="none" xmlns="http://www.w3.org/2000/svg">
<g clip-path="url(#clip0)">
<path d="M50.0008 14.6379C51.4191 14.6379 52.5729 15.6041 52.5729 16.7916C52.5729 17.8701 53.4475 18.7447 54.526 18.7447C55.6045 18.7447 56.4791 17.8701 56.4791 16.7916C56.4791 14.0867 54.5744 11.7904 51.9539 11.0137V10.7422C51.9539 9.66367 51.0793 8.78906 50.0008 8.78906C48.9223 8.78906 48.0477 9.66367 48.0477 10.7422V11.0137C45.4271 11.7906 43.5225 14.0867 43.5225 16.7916C43.5225 20.133 46.4287 22.8514 50.0008 22.8514C51.4191 22.8514 52.5729 23.8174 52.5729 25.0049C52.5729 26.1924 51.4191 27.1586 50.0008 27.1586C48.5824 27.1586 47.4287 26.1924 47.4287 25.0049C47.4287 23.9264 46.5541 23.0518 45.4756 23.0518C44.3971 23.0518 43.5225 23.9264 43.5225 25.0049C43.5225 27.7098 45.4271 30.0061 48.0477 30.7828V31.0547C48.0477 32.1332 48.9223 33.0078 50.0008 33.0078C51.0793 33.0078 51.9539 32.1332 51.9539 31.0547V30.7832C54.5744 30.0063 56.4791 27.7102 56.4791 25.0053C56.4791 21.6637 53.5729 18.9453 50.0008 18.9453C48.5824 18.9453 47.4287 17.9793 47.4287 16.7918C47.4287 15.6043 48.5824 14.6379 50.0008 14.6379Z" fill="#1D6279"/>
<path d="M87.5 53.5606H78.5736C67.0105 53.5606 57.6033 62.9678 57.6033 74.5309V82.6482L51.9531 88.2984V41.7049C62.5641 40.7166 70.8984 31.7633 70.8984 20.8984C70.8984 18.6486 70.5426 16.4344 69.8404 14.3168C69.501 13.2926 68.3947 12.7385 67.3719 13.0773C66.3479 13.4168 65.7932 14.5219 66.1324 15.5459C66.7031 17.2662 66.9922 19.0672 66.9922 20.8984C66.9922 30.268 59.3695 37.8906 50 37.8906C40.6305 37.8906 33.0078 30.268 33.0078 20.8984C33.0078 11.5289 40.6305 3.90625 50 3.90625C51.7246 3.90625 53.4248 4.16309 55.0535 4.66992C56.083 4.99023 57.1781 4.41504 57.4988 3.38516C57.8193 2.35527 57.2439 1.26035 56.2141 0.939844C54.2092 0.316211 52.1186 0 50 0C38.4766 0 29.1016 9.375 29.1016 20.8984C29.1016 31.7633 37.4359 40.7166 48.0469 41.7049V71.457L42.3967 65.807V57.6898C42.3967 46.1268 32.9895 36.7195 21.4264 36.7195H12.5C11.4215 36.7195 10.5469 37.5941 10.5469 38.6727V47.599C10.5469 59.1621 19.9541 68.5693 31.5172 68.5693H39.6346L48.0469 76.9814V96.0938H28.4842C27.4057 96.0938 26.5311 96.9684 26.5311 98.0469C26.5311 99.1254 27.4057 100 28.4842 100H71.5158C72.5943 100 73.4689 99.1254 73.4689 98.0469C73.4689 96.9684 72.5943 96.0938 71.5158 96.0938H51.9531V93.8228L60.3656 85.4105H68.4828C80.0459 85.4105 89.4531 76.0033 89.4531 64.4402V55.5137C89.4531 54.4352 88.5785 53.5606 87.5 53.5606ZM31.5172 64.6629C22.108 64.6629 14.4531 57.008 14.4531 47.5988V40.6256H21.4264C30.8355 40.6256 38.4904 48.2805 38.4904 57.6896V61.9006L29.8652 53.2754C29.1023 52.5129 27.866 52.5129 27.1029 53.2754C26.3402 54.0381 26.3402 55.2748 27.1029 56.0377L35.7283 64.6629H31.5172ZM85.5469 64.4402C85.5469 73.8494 77.892 81.5043 68.4828 81.5043H64.2719L72.8971 72.8793C73.6598 72.1166 73.6598 70.8799 72.8971 70.117C72.1344 69.3547 70.898 69.3545 70.1348 70.117L61.5096 78.7422V74.5311C61.5096 65.1219 69.1645 57.467 78.5736 57.467H85.5469V64.4402Z" fill="#1D6279"/>
<path d="M63.355 9.41406C63.8687 9.41406 64.3726 9.20508 64.7358 8.8416C65.0989 8.47852 65.3081 7.97461 65.3081 7.46094C65.3081 6.94707 65.0991 6.44336 64.7358 6.08008C64.3726 5.7168 63.8687 5.50781 63.355 5.50781C62.8413 5.50781 62.3374 5.7166 61.9741 6.08008C61.611 6.44336 61.4019 6.94707 61.4019 7.46094C61.4019 7.97461 61.6108 8.47852 61.9741 8.8416C62.3374 9.20508 62.8413 9.41406 63.355 9.41406Z" fill="#1D6279"/>
</g>
<defs>
<clipPath id="clip0">
<rect width="100" height="100" fill="white"/>
</clipPath>
</defs>
</svg>
