<svg width="100" height="100" viewBox="0 0 100 100" fill="none" xmlns="http://www.w3.org/2000/svg">
<path d="M67.1875 64.0625C67.1875 65.6077 67.6457 67.1181 68.5041 68.4029C69.3626 69.6877 70.5827 70.689 72.0103 71.2803C73.4378 71.8716 75.0087 72.0263 76.5241 71.7249C78.0396 71.4234 79.4317 70.6794 80.5243 69.5868C81.6169 68.4942 82.3609 67.1021 82.6624 65.5866C82.9638 64.0712 82.8091 62.5003 82.2178 61.0728C81.6265 59.6452 80.6252 58.4251 79.3404 57.5666C78.0556 56.7082 76.5452 56.25 75 56.25C72.9288 56.2525 70.9431 57.0764 69.4785 58.541C68.0139 60.0056 67.19 61.9913 67.1875 64.0625ZM79.6875 64.0625C79.6875 64.9896 79.4126 65.8959 78.8975 66.6667C78.3824 67.4376 77.6504 68.0384 76.7938 68.3932C75.9373 68.748 74.9948 68.8408 74.0855 68.6599C73.1762 68.4791 72.341 68.0326 71.6854 67.3771C71.0299 66.7215 70.5834 65.8863 70.4026 64.977C70.2217 64.0677 70.3145 63.1252 70.6693 62.2687C71.0241 61.4121 71.6249 60.6801 72.3958 60.165C73.1666 59.6499 74.0729 59.375 75 59.375C76.2432 59.375 77.4355 59.8689 78.3146 60.7479C79.1936 61.627 79.6875 62.8193 79.6875 64.0625Z" fill="#1D6279"/>
<path d="M80.4375 86.4219C85.1875 80.2969 92.1875 70.2188 92.1875 64.0625C92.1787 60.0497 90.7688 56.1659 88.2013 53.082C85.6337 49.9981 82.0698 47.9077 78.125 47.1719V12.5H81.25C81.6644 12.5 82.0618 12.3354 82.3549 12.0424C82.6479 11.7493 82.8125 11.3519 82.8125 10.9375V4.6875C82.8125 4.2731 82.6479 3.87567 82.3549 3.58265C82.0618 3.28962 81.6644 3.125 81.25 3.125H9.375C8.9606 3.125 8.56317 3.28962 8.27015 3.58265C7.97712 3.87567 7.8125 4.2731 7.8125 4.6875V10.9375C7.8125 11.3519 7.97712 11.7493 8.27015 12.0424C8.56317 12.3354 8.9606 12.5 9.375 12.5H12.5V75H9.375C8.9606 75 8.56317 75.1646 8.27015 75.4576C7.97712 75.7507 7.8125 76.1481 7.8125 76.5625V81.25C7.8125 81.6644 7.97712 82.0618 8.27015 82.3549C8.56317 82.6479 8.9606 82.8125 9.375 82.8125H66.8594C67.7969 84.1094 68.7188 85.3281 69.5625 86.4219C65.7969 87.1406 62.5 88.7031 62.5 91.4062C62.5 95.1562 68.9844 96.875 75 96.875C81.0156 96.875 87.5 95.1562 87.5 91.4062C87.5 88.7031 84.2031 87.1406 80.4375 86.4219ZM10.9375 9.375V6.25H79.6875V9.375H10.9375ZM70.3125 34.375H60.9375C60.5231 34.375 60.1257 34.5396 59.8326 34.8326C59.5396 35.1257 59.375 35.5231 59.375 35.9375V46.875H57.8125V50H65.1562C62.8902 51.5794 61.0392 53.6827 59.7606 56.131C58.482 58.5794 57.8137 61.3004 57.8125 64.0625C57.8125 67.0781 59.5 71.0312 61.7656 75H54.6875V67.1875C54.6875 64.7011 53.6998 62.3165 51.9416 60.5584C50.1835 58.8002 47.7989 57.8125 45.3125 57.8125C42.8261 57.8125 40.4415 58.8002 38.6834 60.5584C36.9252 62.3165 35.9375 64.7011 35.9375 67.1875V75H15.625V12.5H75V46.875C73.9515 46.8786 72.9055 46.978 71.875 47.1719V35.9375C71.875 35.5231 71.7104 35.1257 71.4174 34.8326C71.1243 34.5396 70.7269 34.375 70.3125 34.375ZM68.75 37.5V46.875H62.5V37.5H68.75ZM51.5625 67.1875V75H39.0625V67.1875C39.0625 65.5299 39.721 63.9402 40.8931 62.7681C42.0652 61.596 43.6549 60.9375 45.3125 60.9375C46.9701 60.9375 48.5598 61.596 49.7319 62.7681C50.904 63.9402 51.5625 65.5299 51.5625 67.1875ZM10.9375 79.6875V78.125H63.6563C64 78.6562 64.3438 79.1719 64.6875 79.6875H10.9375ZM60.9375 64.0625C60.9375 60.3329 62.4191 56.756 65.0563 54.1188C67.6935 51.4816 71.2704 50 75 50C78.7296 50 82.3065 51.4816 84.9437 54.1188C87.5809 56.756 89.0625 60.3329 89.0625 64.0625C89.0625 70.1094 79.7969 82.4531 75 88.2188C70.2031 82.4531 60.9375 70.1094 60.9375 64.0625ZM75 93.75C69 93.75 65.8125 92.0312 65.625 91.4375C65.7656 90.9531 67.7656 89.7188 71.8125 89.2656C72.9219 90.625 73.6875 91.5 73.8281 91.6562C73.9748 91.8225 74.1551 91.9557 74.3571 92.0469C74.5592 92.1381 74.7783 92.1852 75 92.1852C75.2217 92.1852 75.4408 92.1381 75.6429 92.0469C75.8449 91.9557 76.0252 91.8225 76.1719 91.6562C76.3125 91.5 77.0781 90.625 78.1875 89.2656C82.2344 89.7188 84.2344 90.9531 84.375 91.375C84.1875 92.0312 81 93.75 75 93.75Z" fill="#1D6279"/>
<path d="M71.875 28.125V17.1875C71.875 16.7731 71.7104 16.3757 71.4174 16.0826C71.1243 15.7896 70.7269 15.625 70.3125 15.625H60.9375C60.5231 15.625 60.1257 15.7896 59.8326 16.0826C59.5396 16.3757 59.375 16.7731 59.375 17.1875V28.125H57.8125V31.25H73.4375V28.125H71.875ZM68.75 28.125H62.5V18.75H68.75V28.125Z" fill="#1D6279"/>
<path d="M51.5625 28.125V17.1875C51.5625 16.7731 51.3979 16.3757 51.1049 16.0826C50.8118 15.7896 50.4144 15.625 50 15.625H40.625C40.2106 15.625 39.8132 15.7896 39.5201 16.0826C39.2271 16.3757 39.0625 16.7731 39.0625 17.1875V28.125H37.5V31.25H53.125V28.125H51.5625ZM48.4375 28.125H42.1875V18.75H48.4375V28.125Z" fill="#1D6279"/>
<path d="M31.25 28.125V17.1875C31.25 16.7731 31.0854 16.3757 30.7924 16.0826C30.4993 15.7896 30.1019 15.625 29.6875 15.625H20.3125C19.8981 15.625 19.5007 15.7896 19.2076 16.0826C18.9146 16.3757 18.75 16.7731 18.75 17.1875V28.125H17.1875V31.25H32.8125V28.125H31.25ZM28.125 28.125H21.875V18.75H28.125V28.125Z" fill="#1D6279"/>
<path d="M31.25 46.875V35.9375C31.25 35.5231 31.0854 35.1257 30.7924 34.8326C30.4993 34.5396 30.1019 34.375 29.6875 34.375H20.3125C19.8981 34.375 19.5007 34.5396 19.2076 34.8326C18.9146 35.1257 18.75 35.5231 18.75 35.9375V46.875H17.1875V50H32.8125V46.875H31.25ZM28.125 46.875H21.875V37.5H28.125V46.875Z" fill="#1D6279"/>
<path d="M51.5625 46.875V35.9375C51.5625 35.5231 51.3979 35.1257 51.1049 34.8326C50.8118 34.5396 50.4144 34.375 50 34.375H40.625C40.2106 34.375 39.8132 34.5396 39.5201 34.8326C39.2271 35.1257 39.0625 35.5231 39.0625 35.9375V46.875H37.5V50H53.125V46.875H51.5625ZM48.4375 46.875H42.1875V37.5H48.4375V46.875Z" fill="#1D6279"/>
</svg>
