<svg width="517" height="365" viewBox="0 0 517 365" fill="none" xmlns="http://www.w3.org/2000/svg">
<g clip-path="url(#clip0)">
<path d="M264.042 364.226C279.592 364.226 292.198 351.598 292.198 336.02C292.198 320.443 279.592 307.814 264.042 307.814C248.493 307.814 235.887 320.443 235.887 336.02C235.887 351.598 248.493 364.226 264.042 364.226Z" fill="#6C63FF"/>
<path d="M432.243 362.642C447.994 357.903 464.74 352.961 477.232 341.695C488.395 331.628 495.931 316.255 491.307 301.157C486.691 286.09 472.868 276.044 458.597 271.047C450.502 268.213 442.033 266.64 433.568 265.405C424.366 264.063 415.123 262.963 405.884 261.904C368.475 257.618 330.926 254.999 293.236 254.049C274.639 253.579 256.045 253.591 237.445 253.861C220.834 254.103 203.339 254.097 187.929 247.024C175.946 241.524 165.069 231.517 161.73 218.368C157.876 203.189 164.985 187.731 175.184 176.738C180.559 170.944 186.842 166.067 193.323 161.582C200.354 156.717 207.63 152.197 215.064 147.977C229.706 139.67 245.013 132.601 260.827 126.842C268.628 124 276.545 121.548 284.531 119.287C291.274 117.377 298.038 115.464 304.555 112.862C317.154 107.832 329.136 99.3109 332.34 85.3418C335.376 72.1025 330.257 57.7301 321.283 47.8948C310.9 36.5161 295.246 31.528 280.237 30.721C263.388 29.8149 246.927 34.0395 231.09 39.401C214.199 45.1195 197.672 51.6947 180.424 56.3266C163.32 60.9153 145.886 64.162 128.278 66.0372C119.659 66.9567 110.779 67.9949 102.108 67.291C94.8417 66.7011 87.6121 64.5601 82.2566 59.3935C77.6645 54.9635 74.929 48.8751 75.8695 42.45C76.0403 41.283 77.8099 41.7792 77.6401 42.939C76.4953 50.7602 81.8021 57.9671 88.3416 61.6589C95.8995 65.9255 105.096 65.9314 113.511 65.4434C131.756 64.3395 149.878 61.7151 167.688 57.5974C185.189 53.593 202.064 47.8686 218.921 41.7535C234.93 35.9458 251.297 30.2775 268.4 29.0195C283.241 27.928 298.852 30.094 311.78 37.8634C323.143 44.6918 331.498 56.0792 334.16 69.1465C336.762 81.9157 333.159 94.7681 323.51 103.679C313.521 112.905 299.823 116.849 287.058 120.482C270.867 125.09 255.024 130.476 239.688 137.469C224.144 144.538 209.236 152.934 195.129 162.565C181.513 171.887 168.075 183.616 163.769 200.246C161.763 207.992 162.133 216.208 165.49 223.524C168.474 230.03 173.39 235.503 179.116 239.724C192.777 249.795 209.996 251.863 226.498 252.068C245.033 252.299 263.568 251.673 282.108 251.977C319.893 252.599 357.6 254.903 395.23 258.89C404.659 259.889 414.076 260.995 423.482 262.205C431.941 263.294 440.43 264.376 448.747 266.31C463.536 269.749 477.927 276.361 487.119 288.923C491.198 294.368 493.726 300.82 494.431 307.592C495.075 314.658 493.348 321.737 490.159 328.023C483.1 341.936 469.879 350.786 455.838 356.6C448.318 359.714 440.517 362.073 432.731 364.416C431.597 364.757 431.112 362.982 432.243 362.642L432.243 362.642Z" fill="#F2F2F2"/>
<path d="M77.0551 57.3319C85.168 57.3319 91.7448 50.7432 91.7448 42.6156C91.7448 34.4881 85.168 27.8994 77.0551 27.8994C68.9423 27.8994 62.3655 34.4881 62.3655 42.6156C62.3655 50.7432 68.9423 57.3319 77.0551 57.3319Z" fill="#F2F2F2"/>
<path d="M178.965 85.2315C187.078 85.2315 193.654 78.6428 193.654 70.5153C193.654 62.3878 187.078 55.7991 178.965 55.7991C170.852 55.7991 164.275 62.3878 164.275 70.5153C164.275 78.6428 170.852 85.2315 178.965 85.2315Z" fill="#F2F2F2"/>
<path d="M265.267 29.4324C273.379 29.4324 279.956 22.8438 279.956 14.7162C279.956 6.58868 273.379 0 265.267 0C257.154 0 250.577 6.58868 250.577 14.7162C250.577 22.8438 257.154 29.4324 265.267 29.4324Z" fill="#F2F2F2"/>
<path d="M319.129 91.9764C327.242 91.9764 333.818 85.3877 333.818 77.2602C333.818 69.1326 327.242 62.5439 319.129 62.5439C311.016 62.5439 304.439 69.1326 304.439 77.2602C304.439 85.3877 311.016 91.9764 319.129 91.9764Z" fill="#F2F2F2"/>
<path d="M246.292 164.331C254.405 164.331 260.982 157.742 260.982 149.615C260.982 141.487 254.405 134.899 246.292 134.899C238.179 134.899 231.603 141.487 231.603 149.615C231.603 157.742 238.179 164.331 246.292 164.331Z" fill="#F2F2F2"/>
<path d="M153.87 199.282C161.983 199.282 168.559 192.693 168.559 184.566C168.559 176.438 161.983 169.85 153.87 169.85C145.757 169.85 139.18 176.438 139.18 184.566C139.18 192.693 145.757 199.282 153.87 199.282Z" fill="#F2F2F2"/>
<path d="M251.801 253.855C259.914 253.855 266.491 247.266 266.491 239.139C266.491 231.011 259.914 224.422 251.801 224.422C243.688 224.422 237.111 231.011 237.111 239.139C237.111 247.266 243.688 253.855 251.801 253.855Z" fill="#F2F2F2"/>
<path d="M357.077 284.513C365.19 284.513 371.767 277.925 371.767 269.797C371.767 261.67 365.19 255.081 357.077 255.081C348.964 255.081 342.387 261.67 342.387 269.797C342.387 277.925 348.964 284.513 357.077 284.513Z" fill="#F2F2F2"/>
<path d="M480.103 277.769C488.216 277.769 494.793 271.18 494.793 263.052C494.793 254.925 488.216 248.336 480.103 248.336C471.99 248.336 465.413 254.925 465.413 263.052C465.413 271.18 471.99 277.769 480.103 277.769Z" fill="#F2F2F2"/>
<path d="M261.026 41.6979C217.024 42.0093 180.995 77.8323 180.369 121.911C180.364 122.318 180.361 125.18 180.361 128.923C180.362 134.41 182.538 139.673 186.411 143.553C190.284 147.434 195.537 149.614 201.015 149.615H201.015C203.73 149.614 206.419 149.078 208.927 148.036C211.436 146.994 213.714 145.467 215.633 143.542C217.552 141.618 219.074 139.333 220.111 136.819C221.149 134.305 221.681 131.611 221.679 128.891C221.677 126.345 221.676 124.583 221.676 124.475C221.674 117.662 223.443 110.967 226.808 105.047C230.173 99.1272 235.018 94.1869 240.867 90.712C246.716 87.2372 253.367 85.3475 260.166 85.2288C266.965 85.1102 273.678 86.7667 279.644 90.0354C285.61 93.3042 290.624 98.0725 294.193 103.871C297.762 109.67 299.762 116.3 299.998 123.108C300.233 129.916 298.695 136.669 295.536 142.701C292.376 148.733 287.703 153.838 281.977 157.512L281.984 157.521C281.984 157.521 252.588 176.48 243.625 202.488L243.633 202.49C242.057 207.818 241.258 213.347 241.262 218.904C241.262 221.188 241.396 241.175 241.655 257.397C241.746 262.995 244.029 268.332 248.013 272.258C251.997 276.184 257.361 278.383 262.949 278.382H262.949C265.757 278.382 268.537 277.825 271.13 276.745C273.722 275.664 276.076 274.081 278.055 272.086C280.034 270.09 281.6 267.723 282.662 265.119C283.725 262.515 284.263 259.727 284.246 256.914C284.156 242.057 284.107 224.758 284.107 223.502C284.107 207.532 299.485 191.62 312.117 181.244C326.664 169.295 337.131 153.012 341.336 134.643C342.266 130.861 342.779 126.989 342.866 123.095C342.866 112.356 340.744 101.723 336.624 91.8091C332.504 81.895 326.467 72.8956 318.859 65.3295C311.252 57.7634 302.226 51.7801 292.3 47.7243C282.374 43.6685 271.746 41.6203 261.026 41.6979Z" fill="#6C63FF"/>
<path d="M516.271 365H0.72881C0.535891 364.999 0.351068 364.922 0.214851 364.785C0.0786341 364.649 0.00213623 364.463 0.00213623 364.27C0.00213623 364.077 0.0786341 363.891 0.214851 363.754C0.351068 363.618 0.535891 363.54 0.72881 363.54H516.271C516.465 363.54 516.65 363.617 516.787 363.754C516.923 363.891 517 364.076 517 364.27C517 364.464 516.923 364.649 516.787 364.786C516.65 364.923 516.465 365 516.271 365Z" fill="#3F3D56"/>
<path d="M384.654 167.395C394.795 167.395 403.016 159.159 403.016 148.999C403.016 138.84 394.795 130.604 384.654 130.604C374.513 130.604 366.292 138.84 366.292 148.999C366.292 159.159 374.513 167.395 384.654 167.395Z" fill="#2F2E41"/>
<path d="M350.723 356.947H343.22L339.65 327.951H350.725L350.723 356.947Z" fill="#A0616A"/>
<path d="M337.86 354.799H352.331V363.928H328.748C328.748 362.729 328.983 361.542 329.441 360.434C329.899 359.327 330.57 358.321 331.417 357.473C332.263 356.625 333.267 355.953 334.373 355.494C335.478 355.035 336.663 354.799 337.86 354.799Z" fill="#2F2E41"/>
<path d="M408.87 356.947H401.366L397.796 327.951H408.872L408.87 356.947Z" fill="#A0616A"/>
<path d="M396.006 354.799H410.478V363.928H386.894C386.894 362.729 387.13 361.542 387.588 360.434C388.046 359.327 388.717 358.321 389.563 357.473C390.409 356.625 391.414 355.953 392.519 355.494C393.625 355.035 394.81 354.799 396.006 354.799Z" fill="#2F2E41"/>
<path d="M381.864 167.502C390.166 167.502 396.897 160.759 396.897 152.442C396.897 144.124 390.166 137.381 381.864 137.381C373.561 137.381 366.831 144.124 366.831 152.442C366.831 160.759 373.561 167.502 381.864 167.502Z" fill="#A0616A"/>
<path d="M390.824 216.087L397.551 200.604C399.184 196.972 399.652 192.922 398.891 189.012C398.129 185.102 396.174 181.525 393.297 178.775C392.706 178.19 392.078 177.643 391.418 177.138C388.099 174.537 384.008 173.119 379.795 173.109C376.961 173.12 374.164 173.744 371.593 174.937C371.372 175.035 371.158 175.139 370.938 175.243C370.516 175.446 370.1 175.666 369.695 175.893C367.06 177.409 364.818 179.524 363.149 182.067C361.48 184.611 360.43 187.512 360.086 190.536L357.117 215.455C356.371 217.411 329.733 288.049 339.049 341.978C339.148 342.554 339.429 343.083 339.849 343.488C340.27 343.893 340.809 344.152 341.387 344.228L350.832 345.516C351.521 345.61 352.221 345.44 352.79 345.038C353.359 344.636 353.755 344.034 353.898 343.351L369.744 267.679C369.843 267.209 370.096 266.786 370.464 266.477C370.831 266.168 371.291 265.991 371.77 265.975C372.25 265.959 372.721 266.104 373.108 266.387C373.495 266.671 373.776 267.076 373.906 267.538L396.296 347.116C396.455 347.695 396.8 348.204 397.276 348.568C397.753 348.931 398.335 349.128 398.934 349.128C399.113 349.126 399.291 349.11 399.467 349.079L411.004 346.853C411.675 346.727 412.274 346.355 412.685 345.809C413.096 345.264 413.289 344.584 413.226 343.903C411.53 324.962 402.521 230.086 390.824 216.087Z" fill="#2F2E41"/>
<path d="M323.442 164.975C323.337 165.87 323.43 166.778 323.714 167.633C323.997 168.489 324.465 169.271 325.083 169.926C325.701 170.581 326.455 171.092 327.292 171.424C328.129 171.755 329.028 171.899 329.926 171.844L338.329 192.075L344.685 182.635L335.731 164.871C335.54 163.366 334.804 161.983 333.663 160.985C332.522 159.986 331.056 159.442 329.541 159.455C328.026 159.467 326.568 160.036 325.444 161.054C324.32 162.071 323.608 163.466 323.442 164.975L323.442 164.975Z" fill="#A0616A"/>
<path d="M381.03 236.457C381.924 236.35 382.783 236.048 383.547 235.572C384.312 235.097 384.963 234.459 385.454 233.704C385.946 232.949 386.267 232.096 386.393 231.203C386.52 230.311 386.45 229.401 386.188 228.539L403.868 215.639L393.224 211.646L378.066 224.508C376.65 225.045 375.479 226.084 374.775 227.428C374.072 228.773 373.885 230.328 374.251 231.801C374.616 233.274 375.508 234.562 376.757 235.42C378.007 236.278 379.527 236.647 381.03 236.457Z" fill="#A0616A"/>
<path d="M352.209 205.562C351.531 205.561 350.855 205.494 350.19 205.362C348.582 205.056 347.074 204.358 345.799 203.329C344.523 202.301 343.52 200.974 342.878 199.466L331.105 185.085C330.856 184.781 330.675 184.427 330.573 184.047C330.472 183.667 330.453 183.27 330.517 182.882C330.582 182.495 330.728 182.125 330.947 181.798C331.165 181.472 331.451 181.196 331.785 180.989L340.161 175.795C340.47 175.603 340.814 175.474 341.173 175.416C341.532 175.359 341.899 175.372 342.253 175.457C342.606 175.542 342.94 175.697 343.234 175.911C343.527 176.126 343.776 176.397 343.965 176.708L352.262 190.403L368.152 178.638C369.418 177.974 370.879 177.787 372.27 178.113C373.661 178.439 374.889 179.255 375.729 180.413C376.569 181.571 376.965 182.993 376.845 184.419C376.725 185.845 376.096 187.18 375.075 188.18L359.215 202.674C357.351 204.524 354.833 205.563 352.209 205.562Z" fill="#2F2E41"/>
<path d="M395.146 227.19C395.124 227.19 395.103 227.19 395.081 227.189C394.695 227.18 394.315 227.089 393.966 226.923C393.617 226.758 393.306 226.52 393.055 226.226L385.608 217.523C385.354 217.227 385.166 216.88 385.057 216.506C384.947 216.131 384.917 215.737 384.971 215.351C385.024 214.964 385.158 214.593 385.365 214.262C385.572 213.931 385.847 213.648 386.171 213.432L400.115 204.119L387.483 188.905C386.748 187.678 386.479 186.226 386.724 184.816C386.969 183.407 387.712 182.132 388.817 181.226C389.923 180.319 391.317 179.842 392.745 179.88C394.173 179.918 395.54 180.47 396.595 181.435L411.948 196.465C413.156 197.571 414.079 198.954 414.636 200.496C415.193 202.037 415.369 203.691 415.148 205.316C414.927 206.94 414.315 208.487 413.366 209.823C412.417 211.158 411.158 212.243 409.698 212.985L397.15 226.323C396.893 226.597 396.582 226.815 396.237 226.964C395.893 227.113 395.521 227.19 395.146 227.19Z" fill="#2F2E41"/>
<path d="M378.042 195.121C377.922 195.121 377.803 195.114 377.684 195.098C377.166 195.035 376.676 194.824 376.273 194.491C375.871 194.157 375.572 193.715 375.413 193.217L369.817 176.03C369.677 175.595 369.699 175.125 369.878 174.705C370.057 174.285 370.382 173.944 370.793 173.746L370.974 173.66C371.139 173.582 371.302 173.504 371.469 173.43C374.078 172.218 376.918 171.585 379.795 171.576C383.529 171.583 387.179 172.682 390.299 174.738C390.717 175.017 391.009 175.449 391.112 175.942C391.215 176.434 391.121 176.948 390.85 177.371L380.353 193.846C380.107 194.237 379.766 194.559 379.362 194.782C378.957 195.005 378.503 195.122 378.042 195.121Z" fill="#E6E6E6"/>
<path d="M399.131 140.787C402.45 140.787 405.14 138.092 405.14 134.768C405.14 131.443 402.45 128.748 399.131 128.748C395.813 128.748 393.123 131.443 393.123 134.768C393.123 138.092 395.813 140.787 399.131 140.787Z" fill="#2F2E41"/>
<path d="M378.534 128.151C374.313 128.151 370.265 129.831 367.281 132.821C364.297 135.811 362.62 139.866 362.62 144.094V150.839H370.901L374.861 144.094L376.05 150.839H401.18L394.447 144.094C394.447 139.866 392.771 135.811 389.786 132.821C386.802 129.831 382.754 128.151 378.534 128.151Z" fill="#2F2E41"/>
<path d="M402.219 130.644C402.884 128.563 404.259 126.783 406.104 125.617C407.949 124.451 410.146 123.974 412.307 124.27C416.136 124.911 419.163 127.995 420.967 131.439C422.771 134.883 423.604 138.737 424.817 142.432C426.029 146.126 427.749 149.841 430.811 152.233C433.872 154.624 438.57 155.273 441.577 152.813C441.233 155.377 440.094 157.768 438.32 159.648C436.545 161.527 434.226 162.801 431.69 163.288C429.154 163.774 426.529 163.45 424.187 162.361C421.845 161.271 419.904 159.471 418.638 157.216C417.052 154.388 416.642 151.074 416.172 147.865C415.701 144.655 415.09 141.334 413.196 138.704C411.302 136.073 407.756 134.354 404.747 135.553L402.219 130.644Z" fill="#2F2E41"/>
<path d="M206.847 139.828C201.369 139.827 196.116 137.647 192.243 133.766C188.369 129.886 186.193 124.623 186.193 119.135C186.193 115.393 186.195 112.531 186.201 112.124C186.375 99.3048 189.598 86.7117 195.602 75.3896C185.737 88.9181 180.313 105.183 180.08 121.935C180.075 122.342 180.072 125.204 180.072 128.946C180.073 134.434 182.249 139.697 186.122 143.577C189.995 147.458 195.248 149.638 200.726 149.638C205.227 149.637 209.605 148.163 213.194 145.442C216.783 142.72 219.387 138.9 220.611 134.56C216.829 137.958 211.926 139.834 206.847 139.828Z" fill="#3F3D56"/>
<path d="M262.426 85.2986C268.759 85.6015 274.924 87.4397 280.391 90.6552C285.858 93.8707 290.465 98.3675 293.815 103.759C297.165 109.151 299.16 115.277 299.626 121.611C300.093 127.945 299.018 134.298 296.494 140.124C300.145 135.829 302.828 130.795 304.361 125.367C305.894 119.938 306.241 114.242 305.377 108.667C304.514 103.092 302.46 97.769 299.357 93.061C296.254 88.3531 292.174 84.3708 287.395 81.3857C282.617 78.4006 277.252 76.4828 271.666 75.7632C266.081 75.0435 260.406 75.5389 255.029 77.2155C249.652 78.8922 244.699 81.7106 240.507 85.4787C236.316 89.2468 232.985 93.876 230.742 99.0507C234.619 94.4809 239.493 90.8644 244.986 88.4801C250.48 86.0957 256.447 85.0072 262.426 85.2986Z" fill="#3F3D56"/>
<path d="M268.781 268.595C263.193 268.596 257.828 266.396 253.845 262.471C249.861 258.545 247.578 253.208 247.487 247.61C247.228 231.388 247.094 211.401 247.094 209.117C247.09 203.56 247.889 198.031 249.465 192.703L249.457 192.701C250.388 190.027 251.512 187.424 252.82 184.914C248.804 190.275 245.607 196.207 243.336 202.512L243.344 202.514C241.768 207.842 240.969 213.37 240.973 218.928C240.973 221.212 241.107 241.199 241.366 257.421C241.457 263.019 243.74 268.356 247.724 272.282C251.708 276.207 257.072 278.407 262.66 278.406C267.268 278.405 271.75 276.907 275.437 274.138C279.123 271.369 281.813 267.477 283.104 263.046C279.189 266.623 274.079 268.602 268.781 268.595Z" fill="#3F3D56"/>
<path d="M77.4519 357.227L84.9553 357.227L88.5255 328.231L77.4501 328.231L77.4519 357.227Z" fill="#FFB8B8"/>
<path d="M99.4274 364.207L75.8439 364.208L75.8435 355.079L90.3152 355.079C92.7318 355.079 95.0494 356.04 96.7583 357.752C98.4672 359.464 99.4273 361.786 99.4274 364.207L99.4274 364.207Z" fill="#2F2E41"/>
<path d="M50.5209 357.227L58.0242 357.227L61.5944 328.231L50.519 328.231L50.5209 357.227Z" fill="#FFB8B8"/>
<path d="M72.4963 364.207L48.9129 364.208L48.9125 355.079L63.3841 355.079C65.8007 355.079 68.1184 356.04 69.8273 357.752C71.5361 359.464 72.4962 361.786 72.4963 364.207L72.4963 364.207Z" fill="#2F2E41"/>
<path d="M57.0781 348.309L49.7485 347.923C49.3706 347.903 49.0003 347.808 48.6593 347.644C48.3182 347.48 48.013 347.249 47.7615 346.966C47.5099 346.683 47.317 346.352 47.1939 345.994C47.0707 345.635 47.0198 345.256 47.0441 344.877L55.8045 247.71L96.1466 258.616L100.033 257.553L87.8787 343.573C87.7751 344.22 87.4544 344.812 86.9694 345.252C86.4844 345.692 85.8642 345.952 85.2112 345.991L77.31 346.36C76.915 346.382 76.5196 346.322 76.149 346.183C75.7784 346.044 75.4406 345.83 75.1569 345.553C74.8733 345.277 74.6499 344.945 74.501 344.577C74.352 344.21 74.2807 343.816 74.2916 343.42L75.7233 291.792C75.7299 291.554 75.6472 291.321 75.4912 291.14C75.3352 290.96 75.1174 290.844 74.8806 290.817C74.6438 290.789 74.4052 290.851 74.2119 290.991C74.0186 291.131 73.8845 291.338 73.8361 291.572L60.0297 346.029C59.8994 346.675 59.5494 347.256 59.0394 347.673C58.5295 348.089 57.8911 348.316 57.2331 348.314C57.1818 348.314 57.1301 348.312 57.0781 348.309Z" fill="#2F2E41"/>
<path d="M78.799 168.206C87.1016 168.206 93.8321 161.463 93.8321 153.146C93.8321 144.828 87.1016 138.086 78.799 138.086C70.4965 138.086 63.766 144.828 63.766 153.146C63.766 161.463 70.4965 168.206 78.799 168.206Z" fill="#FFB8B8"/>
<path d="M53.7701 197.392L55.4231 233.12L56.0206 246.119C56.0444 246.684 56.2362 247.23 56.5714 247.686C56.9066 248.142 57.37 248.488 57.9023 248.679L96.6683 262.747C96.9815 262.864 97.3133 262.922 97.6473 262.919C98.0292 262.921 98.4075 262.846 98.7596 262.698C99.1118 262.55 99.4306 262.333 99.6971 262.059C99.9635 261.785 100.172 261.459 100.31 261.103C100.449 260.746 100.514 260.366 100.502 259.983L98.9125 195.743C98.8082 190.472 96.8715 185.403 93.4365 181.409C90.0014 177.416 85.2832 174.748 80.0953 173.866C79.7203 173.809 79.3388 173.752 78.9573 173.701C75.7404 173.3 72.475 173.611 69.3909 174.612C66.3068 175.612 63.479 177.277 61.1063 179.49C58.6495 181.753 56.719 184.53 55.4513 187.624C54.1836 190.717 53.6097 194.052 53.7701 197.392L53.7701 197.392Z" fill="#CCCCCC"/>
<path d="M115.187 255.618C114.27 255.333 113.432 254.837 112.741 254.17C112.049 253.503 111.522 252.684 111.203 251.777C110.884 250.87 110.781 249.9 110.902 248.946C111.023 247.992 111.365 247.08 111.901 246.282L98.7546 228.769L110.099 228.066L120.843 244.804C121.994 245.695 122.794 246.963 123.104 248.386C123.414 249.809 123.215 251.296 122.54 252.586C121.865 253.876 120.758 254.887 119.414 255.442C118.069 255.996 116.573 256.059 115.187 255.618H115.187Z" fill="#FFB8B8"/>
<path d="M105.944 243.113C105.595 242.971 105.279 242.762 105.012 242.497C104.745 242.232 104.533 241.916 104.388 241.568L84.583 194.296C84.1943 193.37 83.9916 192.377 83.9863 191.373C83.981 190.369 84.1733 189.374 84.5522 188.444C84.931 187.515 85.489 186.669 86.1943 185.955C86.8995 185.242 87.7382 184.675 88.6624 184.286C89.5866 183.898 90.5781 183.695 91.5804 183.691C92.5827 183.686 93.576 183.88 94.5036 184.26C95.4313 184.64 96.275 185.2 96.9866 185.907C97.6982 186.614 98.2638 187.455 98.651 188.381L118.456 235.654C118.749 236.355 118.752 237.143 118.466 237.847C118.179 238.55 117.625 239.11 116.926 239.405L108.133 243.102C107.787 243.249 107.415 243.325 107.04 243.327C106.664 243.329 106.291 243.256 105.944 243.113L105.944 243.113Z" fill="#CCCCCC"/>
<path d="M73.9658 241.445L92.9884 204.956C93.3553 204.254 93.985 203.727 94.7394 203.49C95.4939 203.252 96.3114 203.325 97.0127 203.691L124.624 218.137C125.325 218.505 125.851 219.135 126.088 219.891C126.325 220.647 126.252 221.466 125.887 222.169L106.864 258.658C106.498 259.36 105.868 259.887 105.113 260.124C104.359 260.361 103.541 260.289 102.84 259.923L75.2287 245.477C74.5283 245.109 74.0019 244.478 73.7651 243.723C73.5283 242.967 73.6005 242.148 73.9658 241.445Z" fill="#3F3D56"/>
<path d="M86.7231 224.774C86.3849 223.874 85.8414 223.066 85.1359 222.413C84.4305 221.761 83.5826 221.283 82.6599 221.017C81.7373 220.752 80.7654 220.706 79.8219 220.883C78.8783 221.061 77.9893 221.456 77.2256 222.039L58.9991 209.927L58.9681 221.313L76.2811 231.07C77.2367 232.168 78.5477 232.893 79.984 233.119C81.4204 233.345 82.8903 233.058 84.1361 232.307C85.3818 231.556 86.3239 230.389 86.7969 229.012C87.27 227.634 87.2438 226.134 86.7231 224.774Z" fill="#FFB8B8"/>
<path d="M63.6786 227.335L48.7828 215.514C47.1714 214.972 45.7153 214.046 44.5396 212.816C43.3639 211.586 42.5037 210.089 42.0328 208.453C41.5619 206.816 41.4944 205.09 41.836 203.422C42.1777 201.754 42.9183 200.194 43.9944 198.875L57.5193 181.118C58.4592 179.967 59.781 179.194 61.2432 178.939C62.7053 178.685 64.2101 178.966 65.4824 179.731C66.7548 180.496 67.7097 181.695 68.1727 183.107C68.6357 184.52 68.5757 186.052 68.0038 187.424L57.3025 204.961L73.029 212.434C73.3947 212.607 73.7195 212.857 73.9818 213.166C74.2441 213.474 74.438 213.836 74.5507 214.225C74.6634 214.614 74.6923 215.023 74.6356 215.425C74.5788 215.826 74.4377 216.211 74.2214 216.554L67.8732 226.619C67.6586 226.958 67.3752 227.249 67.0413 227.472C66.7074 227.695 66.3305 227.845 65.935 227.913C65.9193 227.916 65.9034 227.918 65.8876 227.921C65.499 227.979 65.1024 227.958 64.7225 227.857C64.3425 227.756 63.9873 227.578 63.6786 227.335Z" fill="#CCCCCC"/>
<path d="M67.4396 163.231C67.3751 163.042 67.3547 162.84 67.3798 162.642C67.405 162.444 67.4751 162.254 67.5847 162.087C67.6944 161.921 67.8408 161.781 68.0125 161.68C68.1843 161.578 68.377 161.518 68.5758 161.502C68.983 161.524 69.3815 161.629 69.7471 161.81C70.1128 161.99 70.4381 162.244 70.7035 162.554C71.2475 163.182 71.8809 163.727 72.5832 164.171C73.3104 164.538 74.2967 164.486 74.7113 163.786C75.1006 163.128 74.8339 162.248 74.5982 161.484C73.9985 159.541 73.6629 157.526 73.6006 155.493C73.5327 153.224 73.8522 150.856 75.1061 149.087C76.7243 146.803 79.6179 145.936 82.3563 145.999C85.0947 146.062 87.7887 146.908 90.5012 147.444C91.4376 147.629 92.5383 147.723 93.1646 146.996C93.8306 146.223 93.586 144.972 93.3027 143.928C92.5677 141.219 91.7879 138.419 90.08 136.231C88.2334 133.958 85.5957 132.47 82.698 132.067C79.916 131.722 77.092 132.043 74.4581 133.005C70.1668 134.36 66.3907 136.995 63.6349 140.558C60.7941 144.347 59.5666 149.109 60.2208 153.803C60.8598 157.891 63.0221 161.584 66.2716 164.138L67.4396 163.231Z" fill="#2F2E41"/>
<path d="M257.839 357.346C253.84 355.601 250.3 352.949 247.498 349.598C244.697 346.248 242.712 342.291 241.699 338.04C240.685 333.789 240.672 329.361 241.66 325.104C242.648 320.847 244.61 316.878 247.391 313.511C244.167 315.87 241.48 318.888 239.509 322.367C237.538 325.845 236.328 329.704 235.959 333.686C235.591 337.669 236.072 341.684 237.371 345.466C238.67 349.248 240.757 352.71 243.493 355.623C246.23 358.535 249.554 360.831 253.244 362.358C256.934 363.885 260.906 364.608 264.896 364.48C268.887 364.352 272.804 363.374 276.389 361.613C279.973 359.852 283.143 357.347 285.688 354.265C281.719 357.171 277.059 358.985 272.173 359.525C267.287 360.066 262.345 359.315 257.839 357.346Z" fill="#3F3D56"/>
</g>
<defs>
<clipPath id="clip0">
<rect width="517" height="365" fill="white"/>
</clipPath>
</defs>
</svg>
