<svg width="391" height="1422" viewBox="0 0 391 1422" fill="none" xmlns="http://www.w3.org/2000/svg">
<path d="M64 931L54 940.5L64 950" stroke="#1D6279" stroke-width="3"/>
<path d="M16 108V108C16 154.392 53.6081 192 100 192H282C333.362 192 375 233.638 375 285V285C375 336.362 333.362 378 282 378H110.5C58.3091 378 16 420.309 16 472.5V478.5C16 527.377 55.6228 567 104.5 567V567C153.377 567 193 606.623 193 655.5V698M193 698H145C73.7553 698 16 755.755 16 827V1405.5M193 698H244.5C315.745 698 373.5 755.755 373.5 827V1315.25C373.5 1365.09 333.094 1405.5 283.25 1405.5V1405.5C233.406 1405.5 193 1365.09 193 1315.25V1081.5C193 1004.73 130.768 942.5 54 942.5V942.5" stroke="#4C5E8C" stroke-width="3"/>
<circle cx="371" cy="249" r="12" fill="white" stroke="#4C5E8C" stroke-width="8"/>
<circle cx="16" cy="108" r="12" fill="white" stroke="#4C5E8C" stroke-width="8"/>
<circle cx="20" cy="506" r="12" fill="white" stroke="#4C5E8C" stroke-width="8"/>
<circle cx="16" cy="941" r="12" fill="white" stroke="#4C5E8C" stroke-width="8"/>
<circle cx="375" cy="854" r="12" fill="white" stroke="#4C5E8C" stroke-width="8"/>
<circle cx="16" cy="1406" r="12" fill="white" stroke="#4C5E8C" stroke-width="8"/>
<circle cx="375" cy="1312" r="12" fill="white" stroke="#4C5E8C" stroke-width="8"/>
</svg>
