<svg width="394" height="1310" viewBox="0 0 394 1310" fill="none" xmlns="http://www.w3.org/2000/svg">
<path d="M376 293V293C376 345.467 333.467 388 281 388H112C59.5329 388 17 430.533 17 483V483" stroke="#567999" stroke-width="3"/>
<path d="M16 103V103C16 153.756 57.146 194.902 107.902 194.902H277.902C332.08 194.902 376 238.822 376 293V293" stroke="#567999" stroke-width="3"/>
<circle cx="16" cy="103" r="12" fill="white" stroke="#4C5E8C" stroke-width="8"/>
<circle cx="376" cy="293" r="12" fill="white" stroke="#4C5E8C" stroke-width="8"/>
<path d="M17 483V485.386C17 535.092 57.2944 575.386 107 575.386V575.386C156.706 575.386 197 615.68 197 665.386V674" stroke="#567999" stroke-width="3"/>
<path d="M197 674V772.674H271.674C329.844 772.674 377 819.83 377 878V878" stroke="#567999" stroke-width="3"/>
<path d="M197 674V772.19H122.81C64.925 772.19 18 819.115 18 877V877" stroke="#567999" stroke-width="3"/>
<path d="M18 862L18 1295" stroke="#567999" stroke-width="3"/>
<path d="M378 862V1295" stroke="#567999" stroke-width="3"/>
<path d="M376 1295H314.265C250.2 1295 198.265 1243.07 198.265 1179V993C198.265 928.935 146.33 877 82.2653 877H41" stroke="#567999" stroke-width="3"/>
<path d="M51 867L41 877L51 887" stroke="#1D6279" stroke-width="3"/>
<circle cx="18" cy="483" r="12" fill="white" stroke="#4C5E8C" stroke-width="8"/>
<circle cx="18" cy="874" r="12" fill="white" stroke="#4C5E8C" stroke-width="8"/>
<circle cx="378" cy="874" r="12" fill="white" stroke="#4C5E8C" stroke-width="8"/>
<circle cx="18" cy="1294" r="12" fill="white" stroke="#4C5E8C" stroke-width="8"/>
<circle cx="378" cy="1294" r="12" fill="white" stroke="#4C5E8C" stroke-width="8"/>
</svg>
