<svg width="394" height="1311" viewBox="0 0 394 1311" fill="none" xmlns="http://www.w3.org/2000/svg">
<path d="M376 293V293C376 345.467 333.467 388 281 388H112C59.5329 388 17 430.533 17 483V483" stroke="#567999" stroke-width="3"/>
<path d="M16 103V103C16 153.756 57.146 194.902 107.902 194.902H277.902C332.08 194.902 376 238.822 376 293V293" stroke="#567999" stroke-width="3"/>
<circle cx="16" cy="103" r="12" fill="white" stroke="#4C5E8C" stroke-width="8"/>
<circle cx="376" cy="293" r="12" fill="white" stroke="#4C5E8C" stroke-width="8"/>
<path d="M17 483V485.386C17 535.092 57.2944 575.386 107 575.386V575.386C156.706 575.386 197 615.68 197 665.386V674" stroke="#567999" stroke-width="3"/>
<path d="M197 674V765.902H278.902C333.08 765.902 377 809.822 377 864V864" stroke="#567999" stroke-width="3"/>
<path d="M197 674V765.418H115.582C61.6887 765.418 18 809.107 18 863V863" stroke="#567999" stroke-width="3"/>
<path d="M18 862V1311" stroke="#567999" stroke-width="3"/>
<path d="M378 862V1311" stroke="#567999" stroke-width="3"/>
<path d="M376 1309H314.265C250.2 1309 198.265 1257.07 198.265 1193V1006C198.265 941.935 146.33 890 82.2653 890H41" stroke="#567999" stroke-width="3"/>
<path d="M51 880L41 890L51 900" stroke="#1D6279" stroke-width="3"/>
<circle cx="18" cy="483" r="12" fill="white" stroke="#4C5E8C" stroke-width="8"/>
<circle cx="18" cy="862" r="12" fill="white" stroke="#4C5E8C" stroke-width="8"/>
<circle cx="16" cy="1249" r="12" fill="white" stroke="#4C5E8C" stroke-width="8"/>
<circle cx="376" cy="1249" r="12" fill="white" stroke="#4C5E8C" stroke-width="8"/>
<circle cx="378" cy="862" r="12" fill="white" stroke="#4C5E8C" stroke-width="8"/>
</svg>
