<svg width="392" height="1265" viewBox="0 0 392 1265" fill="none" xmlns="http://www.w3.org/2000/svg">
<path d="M376 283V283C376 332.706 335.706 373 286 373H107C57.2944 373 17 413.294 17 463V463" stroke="#567999" stroke-width="3"/>
<path d="M16 103V103C16 151.085 54.9804 190.065 103.065 190.065H283.065C334.392 190.065 376 231.674 376 283V283" stroke="#567999" stroke-width="3"/>
<circle cx="16" cy="103" r="12" fill="white" stroke="#4C5E8C" stroke-width="8"/>
<circle cx="376" cy="284" r="12" fill="white" stroke="#4C5E8C" stroke-width="8"/>
<path d="M16 465V465C16 513.619 55.4136 553.033 104.033 553.033H106C155.706 553.033 196 593.327 196 643.033V647" stroke="#567999" stroke-width="3"/>
<path d="M196 647V734.065H283.065C334.392 734.065 376 775.674 376 827V827" stroke="#567999" stroke-width="3"/>
<path d="M196 647V733.582H109.418C58.3772 733.582 17 774.959 17 826V826" stroke="#567999" stroke-width="3"/>
<path d="M17.5 823.5V1249.5" stroke="#567999" stroke-width="3"/>
<path d="M377.5 823.5V1249.5" stroke="#567999" stroke-width="3"/>
<path d="M376 1248H314.265C250.2 1248 198.265 1196.07 198.265 1132V966C198.265 901.935 146.33 850 82.2653 850H41" stroke="#567999" stroke-width="3"/>
<path d="M51 840.5L41 850.5L51 860.5" stroke="#1D6279" stroke-width="3"/>
<circle cx="16" cy="465" r="12" fill="white" stroke="#4C5E8C" stroke-width="8"/>
<circle cx="16" cy="851" r="12" fill="white" stroke="#4C5E8C" stroke-width="8"/>
<circle cx="16" cy="1249" r="12" fill="white" stroke="#4C5E8C" stroke-width="8"/>
<circle cx="376" cy="1249" r="12" fill="white" stroke="#4C5E8C" stroke-width="8"/>
<circle cx="376" cy="851" r="12" fill="white" stroke="#4C5E8C" stroke-width="8"/>
</svg>
