<svg width="100" height="100" viewBox="0 0 100 100" fill="none" xmlns="http://www.w3.org/2000/svg">
<g clip-path="url(#clip0)">
<path d="M78.5292 55.901C73.6805 55.901 69.3266 58.0477 66.3589 61.4371C64.8688 57.5145 61.0725 54.7184 56.6339 54.7184H53.9552V54.5264L57.426 51.7391C61.1844 48.7207 63.3448 44.2248 63.3528 39.4041C63.3534 39.0086 63.3542 38.6413 63.3548 38.3159C65.7995 37.9543 67.6817 35.8426 67.6817 33.2991V31.7526H69.2501C70.3712 31.7526 71.3743 31.0834 71.8057 30.0483C72.2362 29.0151 72.0057 27.8344 71.2186 27.0403C70.0796 25.8909 68.2346 24.8588 65.854 23.9809C65.6309 22.7051 65.269 20.762 64.7735 18.5053C64.5999 17.7151 63.8194 17.2155 63.0286 17.3887C62.2383 17.5621 61.7385 18.3432 61.912 19.1334C62.2307 20.5852 62.4925 21.902 62.6966 22.9893C57.6118 21.6297 50.9696 20.8348 43.7829 20.8348C36.5966 20.8348 29.9548 21.6295 24.87 22.9889C25.3176 20.6088 26.0653 16.9955 27.0589 13.4737C29.3829 5.23539 31.3323 3.47172 32.0626 3.09613C32.2454 3.00199 33.3567 2.58363 37.2831 3.59809C41.4743 4.6807 46.0909 4.6807 50.2823 3.59809C54.2091 2.58383 55.32 3.00199 55.5028 3.09613C56.1891 3.44926 58.0239 5.07582 60.235 12.534C60.4649 13.3096 61.279 13.7516 62.0557 13.5219C62.8313 13.292 63.2737 12.477 63.0436 11.7012C60.2382 2.23832 57.6829 0.923281 56.8434 0.491054C55.4192 -0.241953 53.1016 -0.156016 49.5497 0.761562C45.8307 1.72191 41.7346 1.72211 38.0159 0.761562C34.4643 -0.155821 32.1466 -0.241953 30.7219 0.491054C29.8409 0.944375 27.16 2.32406 24.2391 12.6784C22.9803 17.1409 22.1221 21.6295 21.7114 23.9805C19.3309 24.8582 17.486 25.8905 16.3471 27.0397C15.5598 27.8338 15.3294 29.0147 15.76 30.0479C16.1915 31.0832 17.1946 31.7522 18.3157 31.7522H19.8841V33.2987C19.8841 35.842 21.7659 37.9536 24.2104 38.3155C24.2112 38.8758 24.212 39.5518 24.2128 40.2456L24.2135 40.9647C24.218 44.7932 25.9325 48.3631 28.9173 50.7592L33.6106 54.5272V54.7182H30.9319C25.6141 54.7182 21.2184 58.7309 20.6069 63.887L17.7188 64.4233C17.6696 64.4325 17.6208 64.444 17.5725 64.4584C13.9997 65.5104 10.9321 67.643 8.70105 70.6254C6.47019 73.608 5.29089 77.1532 5.29089 80.8778V81.119C5.29089 81.928 5.94675 82.5838 6.75574 82.5838C7.56472 82.5838 8.22058 81.9282 8.22058 81.119V80.8778C8.22058 77.7907 9.19792 74.8524 11.0471 72.3803C12.8815 69.9278 15.3985 68.1688 18.3298 67.2897L21.5186 66.6973L28.8448 73.8207L27.2159 77.9266C26.7612 79.0725 27.1389 80.3809 28.1348 81.108L42.3178 91.4653V97.0664H19.1747V85.153C19.1747 84.344 18.5188 83.6881 17.7098 83.6881C16.9009 83.6881 16.245 84.3438 16.245 85.153V97.0664H8.82371C8.49148 97.0664 8.22117 96.7959 8.22117 96.4637V87.9952C8.22117 87.1862 7.56531 86.5303 6.75632 86.5303C5.94734 86.5303 5.29148 87.186 5.29148 87.9952V96.4637C5.29148 98.4114 6.87605 99.9959 8.82371 99.9959H55.6243C55.6532 99.9967 55.6815 100 55.7104 100C55.7393 100 55.7676 99.9967 55.7966 99.9959H78.7422C80.6899 99.9959 82.2745 98.4114 82.2745 96.4637V87.8176C89.3952 86.1227 94.7085 79.7125 94.7085 72.0803C94.7087 63.1592 87.4505 55.901 78.5292 55.901ZM56.6337 57.6479C60.5524 57.6479 63.7762 60.6811 64.0809 64.5229L56.5708 71.8252C55.7846 72.5897 55.538 73.7422 55.9423 74.7616L57.5626 78.845L47.2419 86.3819L56.4591 64.928C56.9819 63.7114 56.5225 62.2979 55.3909 61.6409C54.5858 61.1731 53.9552 60.0061 53.9552 58.9844V57.6479H56.6337ZM53.6632 64.0141L52.369 67.026C46.8094 69.1678 40.7567 69.1678 35.1971 67.026L33.903 64.0139C35.4686 62.9668 36.5407 60.9446 36.5407 58.9842V56.8793L37.2887 57.4799C38.3733 58.351 39.737 58.8307 41.1284 58.8307H46.4372C47.8286 58.8307 49.1923 58.351 50.277 57.4799L51.0253 56.8789V58.9844C51.0253 60.9448 52.0971 62.9668 53.6632 64.0141ZM64.752 33.2989C64.752 34.2163 64.1714 34.9985 63.3591 35.3034L63.3608 31.7524H64.752V33.2989ZM22.8139 33.2989V31.7524H24.2052L24.2069 35.3034C23.3948 34.9985 22.8139 34.2163 22.8139 33.2989ZM18.7305 28.8229C20.2678 27.511 23.4016 26.2635 27.4452 25.3655C32.1604 24.3182 37.81 23.7647 43.7831 23.7647C49.7561 23.7647 55.4057 24.3182 60.121 25.3655C64.1645 26.2635 67.2981 27.5108 68.8356 28.8229H18.7305ZM30.7518 48.4748C28.4622 46.6368 27.1471 43.8981 27.1436 40.9614L27.1428 40.242C27.1399 37.8123 27.1364 31.9086 27.135 31.7524H60.4313C60.4305 31.8258 60.4268 37.2973 60.4231 39.3991C60.4165 43.3289 58.6555 46.9944 55.5915 49.4549L51.5618 52.6911C51.56 52.6924 51.5583 52.6938 51.5567 52.6952L48.4428 55.1957C47.8764 55.6506 47.1641 55.901 46.4374 55.901H41.1286C40.4018 55.901 39.6897 55.6506 39.1231 55.1955L30.7518 48.4748ZM30.0036 78.845L31.6237 74.7618C32.0282 73.7422 31.7815 72.5893 30.9952 71.8252L23.485 64.5229C23.7897 60.6811 27.0135 57.6479 30.9325 57.6479H33.6112V58.9844C33.6112 60.0061 32.9805 61.1731 32.176 61.6407C31.0438 62.2979 30.5844 63.7114 31.1073 64.928L40.3247 86.3819L30.0036 78.845ZM36.7378 70.6123C39.0508 71.2461 41.4169 71.5637 43.7831 71.5637C46.1493 71.5637 48.5153 71.2461 50.8284 70.6123L43.7831 87.0106L36.7378 70.6123ZM45.2477 97.0668V91.4655L59.4309 81.1082C60.4262 80.3811 60.8042 79.0729 60.3497 77.9268L58.7206 73.8209L62.4649 70.1803C62.3915 70.8041 62.3495 71.4375 62.3495 72.0807C62.3495 76.0151 63.7624 79.6248 66.1057 82.4325L63.8825 84.6557L63.7868 84.56C63.2507 84.0239 62.5382 83.7286 61.78 83.7286C61.0219 83.7286 60.3092 84.0239 59.7733 84.5598L51.4403 92.8928C50.9044 93.4287 50.6092 94.1414 50.6092 94.8995C50.6092 95.6577 50.9046 96.3704 51.4405 96.9061L51.6012 97.0668H45.2477ZM55.7104 97.0329L53.5768 94.8993L61.7801 86.6959L63.9137 88.8293L55.7104 97.0329ZM68.3913 85.1534V97.0668H59.8196L66.0499 90.8364C66.586 90.3004 66.8811 89.5877 66.8811 88.8295C66.8811 88.0715 66.5858 87.3588 66.0499 86.8229L65.9542 86.7272L68.1772 84.5039C68.2682 84.5799 68.3618 84.6532 68.4546 84.7272C68.4137 84.8622 68.3913 85.0051 68.3913 85.1534ZM79.345 96.4639C79.345 96.7961 79.0747 97.0666 78.7422 97.0666H71.3208V86.5598C73.4928 87.6455 75.9399 88.2602 78.529 88.2602C78.8026 88.2602 79.0745 88.253 79.345 88.2395V96.4639ZM78.5292 85.3307C71.2231 85.3307 65.2792 79.3868 65.2792 72.0805C65.2792 69.8182 65.8503 67.6869 66.8542 65.8219C66.8557 65.819 66.8573 65.8159 66.8589 65.8129C69.0983 61.6598 73.4891 58.8307 78.5292 58.8307C85.8352 58.8307 91.7792 64.7746 91.7792 72.0807C91.7792 79.3868 85.8352 85.3307 78.5292 85.3307Z" fill="#1D6279"/>
<path d="M78.5301 61.1372C72.4957 61.1372 67.5865 66.0465 67.5865 72.0807C67.5865 78.1151 72.4959 83.0245 78.5301 83.0245C84.5643 83.0245 89.4737 78.1149 89.4737 72.0805C89.4737 66.0463 84.5643 61.1372 78.5301 61.1372ZM78.5301 80.0948C74.1112 80.0948 70.516 76.4997 70.516 72.0807C70.516 67.6618 74.1112 64.0668 78.5301 64.0668C82.949 64.0668 86.5442 67.6618 86.5442 72.0807C86.5442 76.4995 82.949 80.0948 78.5301 80.0948Z" fill="#1D6279"/>
</g>
<defs>
<clipPath id="clip0">
<rect width="100" height="100" fill="white"/>
</clipPath>
</defs>
</svg>
