<svg width="100" height="100" viewBox="0 0 100 100" fill="none" xmlns="http://www.w3.org/2000/svg">
<g clip-path="url(#clip0)">
<path d="M81.2495 27.5285H99.9995V30.6535H81.2495V27.5285Z" fill="#1D6279"/>
<path d="M78.0948 46.714L78.1246 20.3141L39.0622 0.781433L-0.000100545 20.3126V46.1845C-0.0153593 62.3862 8.08245 77.5206 21.5704 86.4966L39.0622 98.1535L52.5372 89.1768C59.821 98.509 72.4056 101.889 83.385 97.4615C94.3644 93.0342 101.084 81.8701 99.8568 70.095C98.6293 58.3198 89.7517 48.7823 78.0948 46.714ZM39.0622 94.4029L23.3046 83.9003C10.6848 75.5019 3.10887 61.3433 3.12489 46.1845V22.2444L39.0622 4.27568L74.9996 22.2444L74.9698 46.3562C74.4602 46.3264 73.9544 46.2784 73.4371 46.2784C72.8947 46.2784 72.3652 46.3264 71.8311 46.3592L71.8746 24.1738L39.0622 7.76611L6.24987 24.1723V46.1845C6.23843 60.2966 13.2918 73.4771 25.0387 81.2971L39.0622 90.6408L49.2841 83.8301C49.7212 84.783 50.2148 85.71 50.7619 86.6049L39.0622 94.4029ZM48.1152 80.8546L39.0622 86.8857L26.7736 78.6971C26.1671 78.2919 25.5796 77.867 24.9998 77.4314V63.4658H21.8748V74.8091C20.1597 73.2192 18.5911 71.4774 17.1873 69.6067V60.527C17.1881 58.3778 18.6491 56.5048 20.7327 55.9814L31.3291 53.3249C31.6694 56.7131 34.1665 59.4894 37.4997 60.1844V66.5908H40.6247V60.1844C43.958 59.4894 46.4543 56.7131 46.7938 53.3249L53.7495 55.072C47.408 62.046 45.2611 71.8695 48.1152 80.8531V80.8546ZM46.8747 32.2159L44.531 29.0909H41.8187L41.4891 29.255C39.6497 30.172 37.6233 30.6504 35.5688 30.6534H28.2545C28.5711 28.6942 29.8185 27.0104 31.6015 26.1376C35.0576 24.6003 38.9516 24.3546 42.5733 25.4472L42.9326 25.966H45.3122C46.1751 25.966 46.8747 26.6656 46.8747 27.5285V32.2159ZM35.5688 33.7784C37.9804 33.7754 40.3623 33.2421 42.545 32.2159H42.9685L46.8747 37.4237V43.9346L41.6669 47.8409H36.4576L31.2498 43.9346V33.7784H35.5688ZM34.3748 50.1846L35.4169 50.9659H42.7075L43.7497 50.1846V52.5283C43.7497 55.117 41.6509 57.2158 39.0622 57.2158C36.4736 57.2158 34.3748 55.117 34.3748 52.5283V50.1846ZM56.3748 52.5108L46.8747 50.1236V47.8409L49.9997 45.4971V27.5285C49.9997 24.9398 47.9009 22.841 45.3122 22.841H44.2731C42.011 21.4677 36.3828 21.1892 32.398 22.4366C27.9279 23.5337 24.8403 27.6154 24.9998 32.2159V33.7784H28.1248V45.4971L31.2498 47.8409V50.1159L19.972 52.9518C16.4961 53.8192 14.0585 56.9442 14.0623 60.527V64.7452C10.9831 59.0438 9.37181 52.6649 9.37486 46.1845V26.1033L39.0622 11.2596L68.7496 26.1033L68.7077 46.7285C64.1621 47.5464 59.9102 49.5407 56.3748 52.5108ZM73.4371 96.2782C60.4931 96.2782 49.9997 85.7847 49.9997 72.8408C49.9997 59.8968 60.4931 49.4034 73.4371 49.4034C86.3811 49.4034 96.8745 59.8968 96.8745 72.8408C96.86 85.7786 86.375 96.2637 73.4371 96.2782Z" fill="#1D6279"/>
<path d="M80.0786 57.3502L73.4379 63.9908L66.7973 57.3502L57.9472 66.2003L64.5878 72.8409L57.9472 79.4816L66.7973 88.3317L73.4379 81.691L80.0786 88.3317L88.9286 79.4816L82.288 72.8409L88.9286 66.2003L80.0786 57.3502ZM84.5097 79.4816L80.0786 83.9127L73.4379 77.2721L66.7973 83.9127L62.3661 79.4816L69.0068 72.8409L62.3661 66.2003L66.7973 61.7692L73.4379 68.4098L80.0786 61.7692L84.5097 66.2003L77.8691 72.8409L84.5097 79.4816Z" fill="#1D6279"/>
<path d="M81.2495 33.7785H93.7495V36.9035H81.2495V33.7785Z" fill="#1D6279"/>
<path d="M81.2495 40.0284H87.4995V43.1534H81.2495V40.0284Z" fill="#1D6279"/>
</g>
<defs>
<clipPath id="clip0">
<rect width="100" height="100" fill="white"/>
</clipPath>
</defs>
</svg>
